<svg width="41" height="33" viewBox="0 0 41 33" fill="none" xmlns="http://www.w3.org/2000/svg">
<path fill-rule="evenodd" clip-rule="evenodd" d="M20.5238 18.2894C19.3161 18.2894 18.3371 19.2684 18.3371 20.4761C18.3371 21.6838 19.3161 22.6628 20.5238 22.6628C21.7315 22.6628 22.7105 21.6838 22.7105 20.4761C22.7105 19.2684 21.7315 18.2894 20.5238 18.2894ZM14.7588 20.4761C14.7588 17.2922 17.3399 14.7111 20.5238 14.7111C23.7077 14.7111 26.2888 17.2922 26.2888 20.4761C26.2888 23.66 23.7077 26.2411 20.5238 26.2411C17.3399 26.2411 14.7588 23.66 14.7588 20.4761Z" fill="white"/>
<path fill-rule="evenodd" clip-rule="evenodd" d="M20.524 11.928C17.0983 11.928 14.1396 13.9431 12.7755 16.8605C12.357 17.7555 11.2921 18.1419 10.397 17.7233C9.50187 17.3048 9.11555 16.2399 9.53408 15.3448C11.4646 11.2161 15.6577 8.34972 20.524 8.34972C25.3902 8.34972 29.5834 11.2161 31.5139 15.3448C31.9324 16.2399 31.5461 17.3048 30.651 17.7233C29.7559 18.1419 28.691 17.7555 28.2725 16.8605C26.9084 13.9431 23.9497 11.928 20.524 11.928Z" fill="white"/>
<path fill-rule="evenodd" clip-rule="evenodd" d="M0.237127 10.9291C0.679024 10.0453 1.75371 9.68705 2.6375 10.1289L6.61335 12.1169C7.49714 12.5588 7.85537 13.6334 7.41348 14.5172C6.97158 15.401 5.8969 15.7593 5.0131 15.3174L1.03725 13.3294C0.153459 12.8875 -0.204769 11.8129 0.237127 10.9291Z" fill="white"/>
<path fill-rule="evenodd" clip-rule="evenodd" d="M40.8107 11.3267C40.3688 10.4429 39.2941 10.0846 38.4104 10.5265L34.4345 12.5145C33.5507 12.9564 33.1925 14.031 33.6344 14.9148C34.0763 15.7986 35.151 16.1569 36.0347 15.715L40.0106 13.727C40.8944 13.2851 41.2526 12.2105 40.8107 11.3267Z" fill="white"/>
<path fill-rule="evenodd" clip-rule="evenodd" d="M11.4342 0.160804C12.3338 -0.248079 13.3945 0.149679 13.8033 1.04922L15.7913 5.42266C16.2002 6.3222 15.8024 7.38289 14.9029 7.79177C14.0033 8.20066 12.9426 7.8029 12.5337 6.90336L10.5458 2.52992C10.1369 1.63038 10.5347 0.569687 11.4342 0.160804Z" fill="white"/>
<path fill-rule="evenodd" clip-rule="evenodd" d="M29.6136 0.558387C28.7141 0.149504 27.6534 0.547262 27.2445 1.44681L25.2566 5.82024C24.8477 6.71978 25.2455 7.78047 26.145 8.18936C27.0445 8.59824 28.1052 8.20048 28.5141 7.30094L30.502 2.9275C30.9109 2.02796 30.5132 0.96727 29.6136 0.558387Z" fill="white"/>
<path fill-rule="evenodd" clip-rule="evenodd" d="M6.21076 19.4821C7.19887 19.4821 7.9999 20.2831 7.9999 21.2712V25.2471C7.9999 25.7824 8.32452 26.9155 9.05426 27.929C9.77305 28.9274 10.5929 29.4217 11.3794 29.4217H20.5238C21.5119 29.4217 22.313 30.2228 22.313 31.2109C22.313 32.199 21.5119 33 20.5238 33H11.3794C8.98519 33 7.22071 31.5064 6.15037 30.0198C5.09097 28.5485 4.42163 26.6997 4.42163 25.2471V21.2712C4.42163 20.2831 5.22265 19.4821 6.21076 19.4821Z" fill="white"/>
<path fill-rule="evenodd" clip-rule="evenodd" d="M34.8368 19.4821C33.8487 19.4821 33.0477 20.2831 33.0477 21.2712V25.2471C33.0477 25.7824 32.7231 26.9155 31.9934 27.929C31.2746 28.9274 30.4547 29.4217 29.6682 29.4217H20.5238C19.5357 29.4217 18.7346 30.2228 18.7346 31.2109C18.7346 32.199 19.5357 33 20.5238 33H29.6682C32.0624 33 33.8269 31.5064 34.8972 30.0198C35.9566 28.5485 36.626 26.6997 36.626 25.2471V21.2712C36.626 20.2831 35.825 19.4821 34.8368 19.4821Z" fill="white"/>
</svg>
