<svg width="52" height="42" viewBox="0 0 52 42" fill="none" xmlns="http://www.w3.org/2000/svg">
<path fill-rule="evenodd" clip-rule="evenodd" d="M25.7505 23.0005C24.2317 23.0005 23.0005 24.2318 23.0005 25.7505C23.0005 27.2693 24.2317 28.5005 25.7505 28.5005C27.2693 28.5005 28.5005 27.2693 28.5005 25.7505C28.5005 24.2318 27.2693 23.0005 25.7505 23.0005ZM18.5005 25.7505C18.5005 21.7465 21.7464 18.5005 25.7505 18.5005C29.7546 18.5005 33.0005 21.7465 33.0005 25.7505C33.0005 29.7546 29.7546 33.0005 25.7505 33.0005C21.7464 33.0005 18.5005 29.7546 18.5005 25.7505Z" fill="white"/>
<path fill-rule="evenodd" clip-rule="evenodd" d="M25.7505 15.0005C21.4424 15.0005 17.7216 17.5348 16.0061 21.2036C15.4797 22.3292 14.1405 22.8151 13.0149 22.2887C11.8892 21.7624 11.4034 20.4232 11.9297 19.2975C14.3575 14.1053 19.6308 10.5005 25.7505 10.5005C31.8703 10.5005 37.1435 14.1053 39.5714 19.2975C40.0977 20.4232 39.6119 21.7624 38.4862 22.2887C37.3605 22.8151 36.0213 22.3292 35.495 21.2036C33.7795 17.5348 30.0587 15.0005 25.7505 15.0005Z" fill="white"/>
<path fill-rule="evenodd" clip-rule="evenodd" d="M0.238032 13.7443C0.793757 12.6329 2.14527 12.1824 3.25672 12.7381L8.25672 15.2381C9.36818 15.7938 9.81868 17.1453 9.26295 18.2568C8.70723 19.3682 7.35571 19.8187 6.24426 19.263L1.24426 16.763C0.132811 16.2073 -0.317694 14.8558 0.238032 13.7443Z" fill="white"/>
<path fill-rule="evenodd" clip-rule="evenodd" d="M51.2629 14.2443C50.7072 13.1329 49.3557 12.6824 48.2443 13.2381L43.2443 15.7381C42.1328 16.2938 41.6823 17.6453 42.238 18.7568C42.7937 19.8682 44.1453 20.3187 45.2567 19.763L50.2567 17.263C51.3682 16.7073 51.8187 15.3558 51.2629 14.2443Z" fill="white"/>
<path fill-rule="evenodd" clip-rule="evenodd" d="M14.3194 0.202226C15.4507 -0.311982 16.7846 0.188236 17.2988 1.31949L19.7988 6.81949C20.313 7.95075 19.8128 9.28467 18.6815 9.79887C17.5503 10.3131 16.2164 9.81287 15.7022 8.68161L13.2022 3.18161C12.688 2.05035 13.1882 0.716434 14.3194 0.202226Z" fill="white"/>
<path fill-rule="evenodd" clip-rule="evenodd" d="M37.1815 0.702226C36.0503 0.188018 34.7164 0.688236 34.2022 1.81949L31.7022 7.31949C31.188 8.45075 31.6882 9.78467 32.8194 10.2989C33.9507 10.8131 35.2846 10.3129 35.7988 9.18161L38.2988 3.68161C38.813 2.55035 38.3128 1.21643 37.1815 0.702226Z" fill="white"/>
<path fill-rule="evenodd" clip-rule="evenodd" d="M7.75049 24.5005C8.99313 24.5005 10.0005 25.5079 10.0005 26.7505V31.7505C10.0005 32.4237 10.4087 33.8488 11.3264 35.1234C12.2304 36.3789 13.2614 37.0005 14.2505 37.0005H25.7505C26.9931 37.0005 28.0005 38.0079 28.0005 39.2505C28.0005 40.4932 26.9931 41.5005 25.7505 41.5005H14.2505C11.2396 41.5005 9.02058 39.6222 7.67454 37.7527C6.34225 35.9023 5.50049 33.5774 5.50049 31.7505V26.7505C5.50049 25.5079 6.50785 24.5005 7.75049 24.5005Z" fill="white"/>
<path fill-rule="evenodd" clip-rule="evenodd" d="M43.7505 24.5005C42.5078 24.5005 41.5005 25.5079 41.5005 26.7505V31.7505C41.5005 32.4237 41.0922 33.8488 40.1745 35.1234C39.2706 36.3789 38.2396 37.0005 37.2505 37.0005H25.7505C24.5078 37.0005 23.5005 38.0079 23.5005 39.2505C23.5005 40.4932 24.5078 41.5005 25.7505 41.5005H37.2505C40.2614 41.5005 42.4804 39.6222 43.8264 37.7527C45.1587 35.9023 46.0005 33.5774 46.0005 31.7505V26.7505C46.0005 25.5079 44.9931 24.5005 43.7505 24.5005Z" fill="white"/>
</svg>
