<svg width="23" height="23" viewBox="0 0 23 23" fill="none" xmlns="http://www.w3.org/2000/svg">
<path d="M14.8594 7.125H19.625V18.375H3.375V7.125H8.10156L9.03906 4.625H13.9219L14.8594 7.125ZM14.1562 2.75H9.03906C8.25781 2.75 7.55469 3.25781 7.28125 4L6.8125 5.25H3.375C2.32031 5.25 1.5 6.10938 1.5 7.125V18.375C1.5 19.4297 2.32031 20.25 3.375 20.25H19.625C20.6406 20.25 21.5 19.4297 21.5 18.375V7.125C21.5 6.10938 20.6406 5.25 19.625 5.25H16.1875L15.6016 3.76562C15.3672 3.17969 14.8203 2.75 14.1562 2.75ZM11.5 17.4375C14.0781 17.4375 16.1875 15.3672 16.1875 12.75C16.1875 10.1719 14.0781 8.0625 11.5 8.0625C8.88281 8.0625 6.8125 10.1719 6.8125 12.75C6.8125 15.3672 8.88281 17.4375 11.5 17.4375ZM11.5 9.9375C13.0234 9.9375 14.3125 11.2266 14.3125 12.75C14.3125 14.3125 13.0234 15.5625 11.5 15.5625C9.9375 15.5625 8.6875 14.3125 8.6875 12.75C8.6875 11.2266 9.9375 9.9375 11.5 9.9375Z" fill="#BCBCBC"/>
</svg>
