<svg width="106" height="58" viewBox="0 0 106 58" fill="none" xmlns="http://www.w3.org/2000/svg">
<path d="M26.12 57H20.84C19.6133 57 18.84 56.7867 18.52 56.36C18.2 55.88 18.04 55.16 18.04 54.2V44.6C18.04 44.0667 17.7733 43.8 17.24 43.8H3C2.04 43.8 1.4 43.6933 1.08 43.48C0.493333 43.0533 0.2 42.2267 0.2 41V35.96C0.2 35.4267 0.306667 34.9467 0.52 34.52C0.786667 34.04 0.973333 33.6933 1.08 33.48L17.72 2.76C18.0933 2.06666 18.4933 1.61333 18.92 1.4C19.4 1.13333 20.04 0.999996 20.84 0.999996H26.12C27.3467 0.999996 28.12 1.24 28.44 1.72C28.76 2.14666 28.92 2.84 28.92 3.8V34.36C28.92 34.8933 29.1867 35.16 29.72 35.16H30.44C31.6667 35.16 32.44 35.4 32.76 35.88C33.08 36.3067 33.24 37 33.24 37.96V41C33.24 42.2267 33 43 32.52 43.32C32.0933 43.64 31.4 43.8 30.44 43.8H29.72C29.1867 43.8 28.92 44.0667 28.92 44.6V54.2C28.92 55.16 28.8133 55.8 28.6 56.12C28.1733 56.7067 27.3467 57 26.12 57ZM11.88 35.16H17.16C17.7467 35.16 18.04 34.8667 18.04 34.28V22.36C18.04 21.9333 17.9333 21.72 17.72 21.72C17.56 21.72 17.2933 22.0933 16.92 22.84C16.0133 24.8133 15.4 26.12 15.08 26.76C14.0667 28.84 13.24 30.4667 12.6 31.64C11.64 33.4 11.16 34.3867 11.16 34.6C11.16 34.9733 11.4 35.16 11.88 35.16ZM36.7981 40.76V17.24C36.7981 11.8533 38.3715 7.64 41.5181 4.6C44.4515 1.77333 48.1581 0.36 52.6381 0.36C57.1715 0.36 60.8781 1.74667 63.7581 4.52C66.9048 7.56 68.4781 11.8 68.4781 17.24V40.76C68.4781 46.1467 66.9048 50.36 63.7581 53.4C60.8248 56.2267 57.1181 57.64 52.6381 57.64C48.1048 57.64 44.3981 56.2533 41.5181 53.48C38.3715 50.44 36.7981 46.2 36.7981 40.76ZM48.6381 15.64V42.36C48.6381 44.2267 49.0381 45.5867 49.8381 46.44C50.6381 47.2933 51.5715 47.72 52.6381 47.72C54.2915 47.72 55.4381 46.9733 56.0781 45.48C56.4515 44.6267 56.6381 43.5867 56.6381 42.36V15.64C56.6381 14.2533 56.4515 13.16 56.0781 12.36C55.4381 10.9733 54.2915 10.28 52.6381 10.28C51.5181 10.28 50.6381 10.6 49.9981 11.24C49.0915 12.1467 48.6381 13.6133 48.6381 15.64ZM75.9875 38.2H81.3475C82.5742 38.2 83.3475 38.44 83.6675 38.92C83.9875 39.3467 84.1475 40.04 84.1475 41V43.64C84.1475 45.1333 84.5475 46.2533 85.3475 47C86.1475 47.6933 87.1342 48.04 88.3075 48.04C90.2808 48.04 91.6142 47.2667 92.3075 45.72C92.8408 44.5467 93.1075 42.8133 93.1075 40.52C93.1075 36.68 92.4142 34.12 91.0275 32.84C90.1208 31.9867 88.5742 31.56 86.3875 31.56H84.5475C83.5875 31.56 82.9475 31.4533 82.6275 31.24C82.0408 30.8133 81.7475 29.9867 81.7475 28.76V25.4C81.7475 24.1733 81.9608 23.4 82.3875 23.08C82.8675 22.76 83.5875 22.6 84.5475 22.6H86.9475C88.7608 22.6 90.0942 22.2267 90.9475 21.48C92.2275 20.36 92.8675 18.36 92.8675 15.48C92.8675 11.8 91.4275 9.96 88.5475 9.96C87.4808 9.96 86.6275 10.3067 85.9875 11C85.3475 11.64 85.0275 12.52 85.0275 13.64V14.12C85.0275 14.7067 84.9208 15.1333 84.7075 15.4C84.2808 15.88 83.4542 16.12 82.2275 16.12H77.5875C76.8408 16.12 76.3342 16.04 76.0675 15.88C75.5342 15.56 75.2675 14.84 75.2675 13.72V11.64C75.2675 8.01333 76.7342 5.16 79.6675 3.08C82.2275 1.26667 85.4008 0.36 89.1875 0.36C93.8275 0.36 97.5075 1.64 100.228 4.2C102.948 6.76 104.308 10.28 104.308 14.76C104.308 17.9067 103.721 20.3867 102.548 22.2C101.108 23.5867 99.6942 24.9467 98.3075 26.28C98.4675 27.0267 99.7208 28.2533 102.068 29.96C104.094 31.4533 105.108 34.6533 105.108 39.56C105.108 45.32 103.694 49.7733 100.868 52.92C98.0408 56.0667 94.0142 57.64 88.7875 57.64C84.1475 57.64 80.4408 56.44 77.6675 54.04C74.9475 51.5867 73.5875 48.0933 73.5875 43.56V40.52C73.5875 39.5067 73.7742 38.8667 74.1475 38.6C74.5742 38.3333 75.1875 38.2 75.9875 38.2Z" fill="black"/>
</svg>
