<svg width="106" height="58" viewBox="0 0 106 58" fill="none" xmlns="http://www.w3.org/2000/svg">
<path d="M26.62 57H21.34C20.1133 57 19.34 56.7867 19.02 56.36C18.7 55.88 18.54 55.16 18.54 54.2V44.6C18.54 44.0667 18.2733 43.8 17.74 43.8H3.5C2.54 43.8 1.9 43.6933 1.58 43.48C0.993333 43.0533 0.7 42.2267 0.7 41V35.96C0.7 35.4267 0.806667 34.9467 1.02 34.52C1.28667 34.04 1.47333 33.6933 1.58 33.48L18.22 2.76C18.5933 2.06666 18.9933 1.61333 19.42 1.4C19.9 1.13333 20.54 0.999996 21.34 0.999996H26.62C27.8467 0.999996 28.62 1.24 28.94 1.72C29.26 2.14666 29.42 2.84 29.42 3.8V34.36C29.42 34.8933 29.6867 35.16 30.22 35.16H30.94C32.1667 35.16 32.94 35.4 33.26 35.88C33.58 36.3067 33.74 37 33.74 37.96V41C33.74 42.2267 33.5 43 33.02 43.32C32.5933 43.64 31.9 43.8 30.94 43.8H30.22C29.6867 43.8 29.42 44.0667 29.42 44.6V54.2C29.42 55.16 29.3133 55.8 29.1 56.12C28.6733 56.7067 27.8467 57 26.62 57ZM12.38 35.16H17.66C18.2467 35.16 18.54 34.8667 18.54 34.28V22.36C18.54 21.9333 18.4333 21.72 18.22 21.72C18.06 21.72 17.7933 22.0933 17.42 22.84C16.5133 24.8133 15.9 26.12 15.58 26.76C14.5667 28.84 13.74 30.4667 13.1 31.64C12.14 33.4 11.66 34.3867 11.66 34.6C11.66 34.9733 11.9 35.16 12.38 35.16ZM37.2981 40.76V17.24C37.2981 11.8533 38.8715 7.64 42.0181 4.6C44.9515 1.77333 48.6581 0.36 53.1381 0.36C57.6715 0.36 61.3781 1.74667 64.2581 4.52C67.4048 7.56 68.9781 11.8 68.9781 17.24V40.76C68.9781 46.1467 67.4048 50.36 64.2581 53.4C61.3248 56.2267 57.6181 57.64 53.1381 57.64C48.6048 57.64 44.8981 56.2533 42.0181 53.48C38.8715 50.44 37.2981 46.2 37.2981 40.76ZM49.1381 15.64V42.36C49.1381 44.2267 49.5381 45.5867 50.3381 46.44C51.1381 47.2933 52.0715 47.72 53.1381 47.72C54.7915 47.72 55.9381 46.9733 56.5781 45.48C56.9515 44.6267 57.1381 43.5867 57.1381 42.36V15.64C57.1381 14.2533 56.9515 13.16 56.5781 12.36C55.9381 10.9733 54.7915 10.28 53.1381 10.28C52.0181 10.28 51.1381 10.6 50.4981 11.24C49.5915 12.1467 49.1381 13.6133 49.1381 15.64ZM98.8075 57H93.5275C92.3008 57 91.5275 56.7867 91.2075 56.36C90.8875 55.88 90.7275 55.16 90.7275 54.2V44.6C90.7275 44.0667 90.4608 43.8 89.9275 43.8H75.6875C74.7275 43.8 74.0875 43.6933 73.7675 43.48C73.1808 43.0533 72.8875 42.2267 72.8875 41V35.96C72.8875 35.4267 72.9942 34.9467 73.2075 34.52C73.4742 34.04 73.6608 33.6933 73.7675 33.48L90.4075 2.76C90.7808 2.06666 91.1808 1.61333 91.6075 1.4C92.0875 1.13333 92.7275 0.999996 93.5275 0.999996H98.8075C100.034 0.999996 100.808 1.24 101.128 1.72C101.448 2.14666 101.608 2.84 101.608 3.8V34.36C101.608 34.8933 101.874 35.16 102.408 35.16H103.128C104.354 35.16 105.128 35.4 105.448 35.88C105.768 36.3067 105.928 37 105.928 37.96V41C105.928 42.2267 105.688 43 105.208 43.32C104.781 43.64 104.088 43.8 103.128 43.8H102.408C101.874 43.8 101.608 44.0667 101.608 44.6V54.2C101.608 55.16 101.501 55.8 101.288 56.12C100.861 56.7067 100.034 57 98.8075 57ZM84.5675 35.16H89.8475C90.4342 35.16 90.7275 34.8667 90.7275 34.28V22.36C90.7275 21.9333 90.6208 21.72 90.4075 21.72C90.2475 21.72 89.9808 22.0933 89.6075 22.84C88.7008 24.8133 88.0875 26.12 87.7675 26.76C86.7542 28.84 85.9275 30.4667 85.2875 31.64C84.3275 33.4 83.8475 34.3867 83.8475 34.6C83.8475 34.9733 84.0875 35.16 84.5675 35.16Z" fill="black"/>
</svg>
