<svg width="144" height="40" viewBox="0 0 144 40" fill="none" xmlns="http://www.w3.org/2000/svg">
<rect width="144" height="40" rx="10" fill="url(#paint0_linear)"/>
<g filter="url(#filter0_di)">
<path d="M21.2886 25V23.6987L22.2534 23.4956V17.4844H20.8252L20.7681 18.481H19.0859V15.7578H27.6743V18.481H25.9731L25.9224 17.4844H24.4814V23.4956L25.4463 23.6987V25H21.2886ZM32.3589 25.1333C31.7199 25.1333 31.1317 25.0169 30.5942 24.7842C30.061 24.5472 29.5977 24.2171 29.2041 23.7939C28.8105 23.3708 28.5059 22.8757 28.29 22.3086C28.0785 21.7373 27.9727 21.1174 27.9727 20.4487V20.3027C27.9727 19.6383 28.0785 19.0226 28.29 18.4556C28.5059 17.8885 28.8084 17.3934 29.1978 16.9702C29.5913 16.547 30.0547 16.217 30.5879 15.98C31.1211 15.743 31.7072 15.6245 32.3462 15.6245C32.9725 15.6245 33.5544 15.743 34.0918 15.98C34.6292 16.217 35.099 16.547 35.501 16.9702C35.9072 17.3934 36.2225 17.8885 36.4468 18.4556C36.6711 19.0226 36.7832 19.6383 36.7832 20.3027V20.4487C36.7832 21.1174 36.6711 21.7373 36.4468 22.3086C36.2225 22.8757 35.9093 23.3708 35.5073 23.7939C35.1053 24.2171 34.6356 24.5472 34.0981 24.7842C33.5607 25.0169 32.981 25.1333 32.3589 25.1333ZM32.3589 23.4448C33.0571 23.4448 33.5988 23.1719 33.9839 22.626C34.3732 22.0758 34.5679 21.3501 34.5679 20.4487V20.29C34.5679 19.4056 34.3732 18.6904 33.9839 18.1445C33.5946 17.5944 33.0487 17.3193 32.3462 17.3193C31.6056 17.3193 31.0618 17.5902 30.7148 18.1318C30.3721 18.6735 30.2007 19.3929 30.2007 20.29V20.4487C30.2007 21.3543 30.3763 22.0801 30.7275 22.626C31.0788 23.1719 31.6226 23.4448 32.3589 23.4448ZM37.1514 25V23.6987L38.1035 23.4956V17.2686L37.1514 17.0654V15.7578H46.8315V17.0654L45.8794 17.2686V23.4956L46.8315 23.6987V25H42.6992V23.6987L43.6514 23.4956V17.459H40.3315V23.4956L41.29 23.6987V25H37.1514ZM50.6274 25V23.5718L53.6045 20.436C54.0023 19.9832 54.2816 19.6024 54.4424 19.2935C54.6032 18.9845 54.6836 18.6947 54.6836 18.4238C54.6836 18.1234 54.6032 17.8695 54.4424 17.6621C54.2816 17.4505 54.0404 17.3447 53.7188 17.3447C53.3675 17.3447 53.1073 17.4696 52.938 17.7192C52.7687 17.9647 52.6841 18.2969 52.6841 18.7158H50.5068L50.4941 18.6777C50.4814 18.1064 50.6042 17.5902 50.8623 17.1289C51.1247 16.6676 51.5013 16.3016 51.9922 16.0308C52.4831 15.7599 53.0607 15.6245 53.7251 15.6245C54.7238 15.6245 55.5046 15.8805 56.0674 16.3926C56.6344 16.9004 56.918 17.5711 56.918 18.4048C56.918 18.7856 56.8524 19.1369 56.7212 19.4585C56.5942 19.7759 56.3826 20.1165 56.0864 20.4805C55.7944 20.8444 55.403 21.2845 54.9121 21.8008L53.5156 23.2798L53.5283 23.3115H55.3628L55.458 22.5435H57.1274V25H50.6274ZM61.228 25.1333C60.2251 25.1333 59.4316 24.8159 58.8477 24.1812C58.2637 23.5464 57.9717 22.6048 57.9717 21.3564V19.4077C57.9717 18.1636 58.2637 17.222 58.8477 16.583C59.4316 15.944 60.2209 15.6245 61.2153 15.6245C62.2013 15.6245 62.9863 15.944 63.5703 16.583C64.1585 17.222 64.4526 18.1636 64.4526 19.4077V21.3564C64.4526 22.6048 64.1606 23.5464 63.5767 24.1812C62.9969 24.8159 62.214 25.1333 61.228 25.1333ZM61.228 23.4385C61.5539 23.4385 61.8035 23.2904 61.9771 22.9941C62.1506 22.6937 62.2373 22.1901 62.2373 21.4834V19.2681C62.2373 18.5741 62.1484 18.0768 61.9707 17.7764C61.793 17.4759 61.5412 17.3257 61.2153 17.3257C60.8768 17.3257 60.6208 17.4759 60.4473 17.7764C60.2738 18.0726 60.187 18.5698 60.187 19.2681V21.4834C60.187 22.1943 60.2738 22.6979 60.4473 22.9941C60.6208 23.2904 60.881 23.4385 61.228 23.4385ZM68.3057 25V23.6987L69.2642 23.4956V17.2686L68.3057 17.0654V15.7578H72.4507V17.0654L71.4922 17.2686V19.6045H74.8564V17.2686L73.8979 17.0654V15.7578H78.0366V17.0654L77.0781 17.2686V23.4956L78.0366 23.6987V25H73.8979V23.6987L74.8564 23.4956V21.312H71.4922V23.4956L72.4507 23.6987V25H68.3057ZM78.5508 25V23.6987L79.5093 23.4956V17.2686L78.5508 17.0654V15.7578H85.9331V18.4238H84.251L84.2002 17.4717H81.7373V19.3696H84.689V21.0771H81.7373V23.2798H84.3208L84.3716 22.2832H86.0347V25H78.5508ZM86.9424 27.2661L86.8281 23.3052H87.4883C87.7126 23.1528 87.9136 22.9328 88.0913 22.645C88.269 22.3573 88.415 21.9658 88.5293 21.4707C88.6478 20.9756 88.724 20.3408 88.7578 19.5664L88.9419 17.2495L88.085 17.0654V15.7578H96.2925V17.0654L95.3403 17.2686V23.3052H96.3242L96.1211 27.2788H94.0962V25H89.0435V27.2661H86.9424ZM90.0337 23.3052H93.1123V17.459H91.1445L90.9922 19.5664C90.9541 20.4593 90.8525 21.1978 90.6875 21.7817C90.5225 22.3657 90.3045 22.8735 90.0337 23.3052ZM96.8828 25V23.6987L97.8413 23.4956V17.2686L96.8828 17.0654V15.7578H104.265V18.4238H102.583L102.532 17.4717H100.069V19.3696H103.021V21.0771H100.069V23.2798H102.653L102.704 22.2832H104.367V25H96.8828ZM105.211 25V23.3052H105.458C105.844 23.2544 106.136 23.1296 106.334 22.9307C106.533 22.7275 106.665 22.3869 106.728 21.9087C106.796 21.4305 106.825 20.7534 106.817 19.8774L106.772 17.2686L105.814 17.0654V15.7578H114.409V17.0654L113.45 17.2686V23.4956L114.409 23.6987V25H110.27V23.6987L111.229 23.4956V17.459H108.994L109.045 19.8774C109.058 21.0962 108.939 22.0822 108.689 22.8354C108.444 23.5887 108.074 24.1388 107.579 24.4858C107.088 24.8286 106.478 25 105.75 25H105.211ZM115.101 25V23.6987L116.065 23.4956V17.2686L115.101 17.0654V15.7578H119.246V17.0654L118.281 17.2686V20.8931L118.319 20.9058L121.601 17.7383V17.2686L120.648 17.0654V15.7578H124.793V17.0654L123.841 17.2686V23.4956L124.793 23.6987V25H120.648V23.6987L121.601 23.4956V19.9282L121.562 19.9155L118.281 23.0894V23.4956L119.246 23.6987V25H115.101Z" fill="#4B4B4B"/>
</g>
<defs>
<filter id="filter0_di" x="19.0859" y="15.6245" width="106.708" height="12.6543" filterUnits="userSpaceOnUse" color-interpolation-filters="sRGB">
<feFlood flood-opacity="0" result="BackgroundImageFix"/>
<feColorMatrix in="SourceAlpha" type="matrix" values="0 0 0 0 0 0 0 0 0 0 0 0 0 0 0 0 0 0 127 0"/>
<feOffset dx="1" dy="1"/>
<feColorMatrix type="matrix" values="0 0 0 0 0.908333 0 0 0 0 0.908333 0 0 0 0 0.908333 0 0 0 1 0"/>
<feBlend mode="normal" in2="BackgroundImageFix" result="effect1_dropShadow"/>
<feBlend mode="normal" in="SourceGraphic" in2="effect1_dropShadow" result="shape"/>
<feColorMatrix in="SourceAlpha" type="matrix" values="0 0 0 0 0 0 0 0 0 0 0 0 0 0 0 0 0 0 127 0" result="hardAlpha"/>
<feOffset dx="1" dy="1"/>
<feComposite in2="hardAlpha" operator="arithmetic" k2="-1" k3="1"/>
<feColorMatrix type="matrix" values="0 0 0 0 0.108333 0 0 0 0 0.108333 0 0 0 0 0.108333 0 0 0 1 0"/>
<feBlend mode="normal" in2="shape" result="effect2_innerShadow"/>
</filter>
<linearGradient id="paint0_linear" x1="72.0059" y1="39.6068" x2="72.0059" y2="0.391623" gradientUnits="userSpaceOnUse">
<stop stop-color="#CDCDCD"/>
<stop offset="0.161458" stop-color="#9A9A9A"/>
<stop offset="0.239583" stop-color="#CCCCCC"/>
<stop offset="0.421875" stop-color="#D6D6D6"/>
<stop offset="0.5" stop-color="#C9C9C9"/>
<stop offset="0.598958" stop-color="#9E9E9E"/>
<stop offset="0.776042" stop-color="#C5C5C5"/>
<stop offset="0.85" stop-color="#B3B3B3"/>
<stop offset="1" stop-color="#DEDEDE"/>
</linearGradient>
</defs>
</svg>
