<svg width="136" height="40" viewBox="0 0 136 40" fill="none" xmlns="http://www.w3.org/2000/svg">
<rect width="136" height="40" rx="10" fill="url(#paint0_linear)"/>
<g filter="url(#filter0_di)">
<path d="M16.7363 25V23.6987L17.7012 23.4956V17.4844H16.2729L16.2158 18.481H14.5337V15.7578H23.1221V18.481H21.4209L21.3701 17.4844H19.9292V23.4956L20.894 23.6987V25H16.7363ZM27.8066 25.1333C27.1676 25.1333 26.5794 25.0169 26.042 24.7842C25.5088 24.5472 25.0454 24.2171 24.6519 23.7939C24.2583 23.3708 23.9536 22.8757 23.7378 22.3086C23.5262 21.7373 23.4204 21.1174 23.4204 20.4487V20.3027C23.4204 19.6383 23.5262 19.0226 23.7378 18.4556C23.9536 17.8885 24.2562 17.3934 24.6455 16.9702C25.0391 16.547 25.5024 16.217 26.0356 15.98C26.5688 15.743 27.1549 15.6245 27.7939 15.6245C28.4202 15.6245 29.0021 15.743 29.5396 15.98C30.077 16.217 30.5467 16.547 30.9487 16.9702C31.355 17.3934 31.6702 17.8885 31.8945 18.4556C32.1188 19.0226 32.231 19.6383 32.231 20.3027V20.4487C32.231 21.1174 32.1188 21.7373 31.8945 22.3086C31.6702 22.8757 31.3571 23.3708 30.9551 23.7939C30.5531 24.2171 30.0833 24.5472 29.5459 24.7842C29.0085 25.0169 28.4287 25.1333 27.8066 25.1333ZM27.8066 23.4448C28.5049 23.4448 29.0465 23.1719 29.4316 22.626C29.821 22.0758 30.0156 21.3501 30.0156 20.4487V20.29C30.0156 19.4056 29.821 18.6904 29.4316 18.1445C29.0423 17.5944 28.4964 17.3193 27.7939 17.3193C27.0534 17.3193 26.5096 17.5902 26.1626 18.1318C25.8198 18.6735 25.6484 19.3929 25.6484 20.29V20.4487C25.6484 21.3543 25.8241 22.0801 26.1753 22.626C26.5265 23.1719 27.0703 23.4448 27.8066 23.4448ZM32.5991 25V23.6987L33.5513 23.4956V17.2686L32.5991 17.0654V15.7578H42.2793V17.0654L41.3271 17.2686V23.4956L42.2793 23.6987V25H38.147V23.6987L39.0991 23.4956V17.459H35.7793V23.4956L36.7378 23.6987V25H32.5991ZM46.0752 25V23.5718L49.0522 20.436C49.45 19.9832 49.7293 19.6024 49.8901 19.2935C50.0509 18.9845 50.1313 18.6947 50.1313 18.4238C50.1313 18.1234 50.0509 17.8695 49.8901 17.6621C49.7293 17.4505 49.4881 17.3447 49.1665 17.3447C48.8153 17.3447 48.555 17.4696 48.3857 17.7192C48.2165 17.9647 48.1318 18.2969 48.1318 18.7158H45.9546L45.9419 18.6777C45.9292 18.1064 46.0519 17.5902 46.3101 17.1289C46.5724 16.6676 46.9491 16.3016 47.4399 16.0308C47.9308 15.7599 48.5085 15.6245 49.1729 15.6245C50.1715 15.6245 50.9523 15.8805 51.5151 16.3926C52.0822 16.9004 52.3657 17.5711 52.3657 18.4048C52.3657 18.7856 52.3001 19.1369 52.1689 19.4585C52.042 19.7759 51.8304 20.1165 51.5342 20.4805C51.2422 20.8444 50.8507 21.2845 50.3599 21.8008L48.9634 23.2798L48.9761 23.3115H50.8105L50.9058 22.5435H52.5752V25H46.0752ZM56.6758 25.1333C55.6729 25.1333 54.8794 24.8159 54.2954 24.1812C53.7114 23.5464 53.4194 22.6048 53.4194 21.3564V19.4077C53.4194 18.1636 53.7114 17.222 54.2954 16.583C54.8794 15.944 55.6686 15.6245 56.6631 15.6245C57.6491 15.6245 58.4341 15.944 59.0181 16.583C59.6063 17.222 59.9004 18.1636 59.9004 19.4077V21.3564C59.9004 22.6048 59.6084 23.5464 59.0244 24.1812C58.4447 24.8159 57.6618 25.1333 56.6758 25.1333ZM56.6758 23.4385C57.0016 23.4385 57.2513 23.2904 57.4248 22.9941C57.5983 22.6937 57.6851 22.1901 57.6851 21.4834V19.2681C57.6851 18.5741 57.5962 18.0768 57.4185 17.7764C57.2407 17.4759 56.9889 17.3257 56.6631 17.3257C56.3245 17.3257 56.0685 17.4759 55.895 17.7764C55.7215 18.0726 55.6348 18.5698 55.6348 19.2681V21.4834C55.6348 22.1943 55.7215 22.6979 55.895 22.9941C56.0685 23.2904 56.3288 23.4385 56.6758 23.4385ZM63.7026 25V23.6987L64.6548 23.4956V17.2686L63.7026 17.0654V15.7578H68.0635L70.2979 21.8452H70.3359L72.5068 15.7578H76.8169V17.0654L75.8584 17.2686V23.4956L76.8169 23.6987V25H72.6782V23.6987L73.6748 23.4956V22.2896L73.7256 17.9414L73.6875 17.9351L71.0723 25H69.3203L66.667 18.0176L66.6226 18.0239L66.7749 21.9849V23.4956L67.8477 23.6987V25H63.7026ZM77.1978 25V23.6987L78.1562 23.4956V17.2686L77.1978 17.0654V15.7578H84.5801V18.4238H82.8979L82.8472 17.4717H80.3843V19.3696H83.3359V21.0771H80.3843V23.2798H82.9678L83.0186 22.2832H84.6816V25H77.1978ZM90.0518 25.1333C89.1715 25.1333 88.3866 24.9556 87.6968 24.6001C87.007 24.2446 86.4653 23.7305 86.0718 23.0576C85.6782 22.3805 85.4814 21.5596 85.4814 20.5947V20.1694C85.4814 19.2808 85.6613 18.4958 86.021 17.8145C86.3849 17.1289 86.9012 16.5936 87.5698 16.2085C88.2427 15.8192 89.0404 15.6245 89.9629 15.6245C90.6061 15.6245 91.2176 15.7113 91.7974 15.8848C92.3813 16.054 92.923 16.346 93.4224 16.7607V19.1411H91.8037L91.5815 17.7764C91.3657 17.6283 91.133 17.5119 90.8833 17.4272C90.6336 17.3426 90.3522 17.3003 90.0391 17.3003C89.3366 17.3003 88.7716 17.55 88.3442 18.0493C87.9168 18.5444 87.7031 19.2469 87.7031 20.1567V20.5947C87.7031 21.1618 87.8026 21.6611 88.0015 22.0928C88.2004 22.5202 88.4775 22.8545 88.833 23.0957C89.1927 23.3369 89.6074 23.4575 90.0771 23.4575C90.3268 23.4575 90.5807 23.4321 90.8389 23.3813C91.097 23.3263 91.3467 23.2544 91.5879 23.1655L91.8101 21.8579H93.4351V24.1875C93.0669 24.4414 92.5972 24.6636 92.0259 24.854C91.4546 25.0402 90.7965 25.1333 90.0518 25.1333ZM102.341 23.6987V25H98.2021V23.6987L99.167 23.5083V21.6167H98.3545L97.8149 23.2798C97.5737 23.8426 97.2648 24.2806 96.8882 24.5938C96.5116 24.9069 96.0524 25.0635 95.5107 25.0635C95.2738 25.0635 95.041 25.0339 94.8125 24.9746C94.5882 24.9111 94.3914 24.8265 94.2222 24.7207L94.5015 23.0068C94.6665 23.0618 94.8231 23.0894 94.9712 23.0894C95.1574 23.0894 95.333 23.0365 95.498 22.9307C95.6631 22.8249 95.8429 22.6027 96.0376 22.2642L96.3867 21.2104L96.3994 21.1851C95.7731 20.9269 95.3097 20.5968 95.0093 20.1948C94.7088 19.7928 94.5586 19.2723 94.5586 18.6333C94.5586 17.6981 94.8654 16.985 95.479 16.4941C96.0926 16.0033 96.9453 15.7578 98.0371 15.7578H102.341V17.0654L101.389 17.2686V23.4956L102.341 23.6987ZM98.0371 17.459C97.1992 17.459 96.7803 17.8927 96.7803 18.7603C96.7803 19.6151 97.1992 20.0425 98.0371 20.0425H99.167V17.459H98.0371ZM110.758 27.228V25H102.855V23.6987L103.807 23.4956V17.2686L102.855 17.0654V15.7578H106.987V17.0654L106.035 17.2686V23.3052H109.342V17.2686L108.39 17.0654V15.7578H112.535V17.0654L111.583 17.2686V23.3115H112.929L112.827 27.228H110.758ZM112.18 25V23.6987L112.827 23.6035L115.582 15.7578H117.994L120.755 23.6035L121.403 23.6987V25H117.95V23.6987L118.553 23.5845L118.273 22.5815H115.303L115.036 23.5845L115.639 23.6987V25H112.18ZM115.772 21.02H117.797L116.896 18.2207L116.794 17.897H116.756L116.648 18.2524L115.772 21.02Z" fill="#4B4B4B"/>
</g>
<defs>
<filter id="filter0_di" x="14.5337" y="15.6245" width="107.869" height="12.6035" filterUnits="userSpaceOnUse" color-interpolation-filters="sRGB">
<feFlood flood-opacity="0" result="BackgroundImageFix"/>
<feColorMatrix in="SourceAlpha" type="matrix" values="0 0 0 0 0 0 0 0 0 0 0 0 0 0 0 0 0 0 127 0"/>
<feOffset dx="1" dy="1"/>
<feColorMatrix type="matrix" values="0 0 0 0 0.908333 0 0 0 0 0.908333 0 0 0 0 0.908333 0 0 0 1 0"/>
<feBlend mode="normal" in2="BackgroundImageFix" result="effect1_dropShadow"/>
<feBlend mode="normal" in="SourceGraphic" in2="effect1_dropShadow" result="shape"/>
<feColorMatrix in="SourceAlpha" type="matrix" values="0 0 0 0 0 0 0 0 0 0 0 0 0 0 0 0 0 0 127 0" result="hardAlpha"/>
<feOffset dx="1" dy="1"/>
<feComposite in2="hardAlpha" operator="arithmetic" k2="-1" k3="1"/>
<feColorMatrix type="matrix" values="0 0 0 0 0.108333 0 0 0 0 0.108333 0 0 0 0 0.108333 0 0 0 1 0"/>
<feBlend mode="normal" in2="shape" result="effect2_innerShadow"/>
</filter>
<linearGradient id="paint0_linear" x1="68.0055" y1="39.6068" x2="68.0055" y2="0.391623" gradientUnits="userSpaceOnUse">
<stop stop-color="#CDCDCD"/>
<stop offset="0.135417" stop-color="#B7B7B7"/>
<stop offset="0.239583" stop-color="#CCCCCC"/>
<stop offset="0.369792" stop-color="#D6D6D6"/>
<stop offset="0.494792" stop-color="#9E9E9E"/>
<stop offset="0.53125" stop-color="#C9C9C9"/>
<stop offset="0.6875" stop-color="#C5C5C5"/>
<stop offset="0.85" stop-color="#B3B3B3"/>
<stop offset="1" stop-color="#DEDEDE"/>
</linearGradient>
</defs>
</svg>
