<svg width="23" height="23" viewBox="0 0 23 23" fill="none" xmlns="http://www.w3.org/2000/svg">
<path d="M21 11.5C21 8.9625 20.0118 6.57677 18.2175 4.78248C16.4232 2.98818 14.0375 2 11.5 2C9.08905 2 6.81567 2.89265 5.05587 4.52054C5.02485 4.54475 4.99644 4.57185 4.96991 4.60027C4.90685 4.66013 4.84423 4.72073 4.78248 4.78248C2.98818 6.57677 2 8.9625 2 11.5C2 14.0375 2.98818 16.4232 4.78248 18.2175C6.57677 20.0118 8.9625 21 11.5 21C13.9102 21 16.1829 20.1079 17.9425 18.4809C17.975 18.4558 18.0046 18.4276 18.0321 18.3977C18.0946 18.3386 18.1565 18.2785 18.2175 18.2175C20.0118 16.4232 21 14.0375 21 11.5ZM17.8527 16.3897L15.9205 9.17892L19.3962 10.1103C19.4752 10.5647 19.5156 11.0292 19.5156 11.5C19.5156 13.2923 18.931 14.9945 17.8527 16.3897ZM12.512 15.277L8.73506 14.2651L7.72311 10.488L10.4879 7.72325L14.2649 8.73521L15.2769 12.5121L12.512 15.277ZM18.9149 8.44456L11.6999 6.51125L14.2458 3.96535C15.3314 4.36021 16.3267 4.99093 17.1679 5.83212C17.9285 6.59258 18.5172 7.47914 18.9149 8.44456ZM12.5582 3.55367L7.27939 8.83247L6.34861 5.35883C7.78993 4.14568 9.59409 3.48438 11.5 3.48438C11.8569 3.48438 12.2102 3.508 12.5582 3.55367ZM5.14734 6.6104L7.07949 13.8214L3.60382 12.8902C3.52482 12.4356 3.48438 11.9708 3.48438 11.5C3.48438 9.70773 4.06899 8.00563 5.14734 6.6104ZM4.08523 14.5559L11.2998 16.489L8.7542 19.0347C7.6686 18.6398 6.67317 18.0091 5.83212 17.1679C5.07167 16.4074 4.48299 15.521 4.08523 14.5559ZM10.4418 19.4463L15.7205 14.1677L16.6512 17.6413C15.2099 18.8545 13.4059 19.5156 11.5 19.5156C11.1431 19.5156 10.7898 19.492 10.4418 19.4463Z" fill="#BCBCBC"/>
<circle cx="11.5" cy="11.5" r="8.5" stroke="#BCBCBC" stroke-width="2"/>
</svg>
