<svg width="91" height="66" viewBox="0 0 91 66" fill="none" xmlns="http://www.w3.org/2000/svg">
<path d="M3.872 59.67V62.552C3.872 62.816 3.81333 62.9847 3.696 63.058C3.59333 63.1313 3.44667 63.168 3.256 63.168H1.496C1.232 63.168 1.06333 63.1093 0.99 62.992C0.916667 62.8893 0.88 62.7427 0.88 62.552V48.384C0.88 48.12 0.931333 47.9513 1.034 47.878C1.15133 47.8047 1.30533 47.768 1.496 47.768H3.498C3.762 47.768 3.894 47.8707 3.894 48.076V48.252C3.894 48.3547 3.94533 48.406 4.048 48.406C4.06267 48.406 4.12867 48.3693 4.246 48.296C4.49533 48.076 4.71533 47.922 4.906 47.834C5.24333 47.6727 5.66867 47.592 6.182 47.592C7.414 47.592 8.25 48.1053 8.69 49.132C8.93933 49.7187 9.064 50.5767 9.064 51.706V56.15C9.064 57.25 8.91 58.108 8.602 58.724C8.118 59.692 7.26 60.176 6.028 60.176C5.52933 60.176 5.126 60.11 4.818 59.978C4.53933 59.8313 4.26067 59.6773 3.982 59.516C3.90867 59.5747 3.872 59.626 3.872 59.67ZM3.872 51.728V56.04C3.872 56.4213 3.92333 56.722 4.026 56.942C4.202 57.3087 4.51 57.492 4.95 57.492C5.39 57.492 5.698 57.3087 5.874 56.942C5.97667 56.722 6.028 56.4213 6.028 56.04V51.728C6.028 51.3467 5.97667 51.046 5.874 50.826C5.698 50.4593 5.39 50.276 4.95 50.276C4.51 50.276 4.202 50.4593 4.026 50.826C3.92333 51.046 3.872 51.3467 3.872 51.728ZM10.8273 59.384V45.216C10.8273 44.952 10.8786 44.7833 10.9813 44.71C11.0986 44.6367 11.2526 44.6 11.4433 44.6H13.2033C13.4673 44.6 13.6359 44.6587 13.7093 44.776C13.7826 44.8787 13.8193 45.0253 13.8193 45.216V48.12V48.252C13.8193 48.3253 13.8853 48.3767 14.0173 48.406C14.1786 48.406 14.4206 48.274 14.7433 48.01C15.0806 47.7313 15.5353 47.592 16.1073 47.592C16.8846 47.592 17.5226 47.8267 18.0213 48.296C18.6226 48.868 18.9233 49.726 18.9233 50.87V59.384C18.9233 59.648 18.8646 59.8167 18.7473 59.89C18.6446 59.9633 18.4979 60 18.3073 60H16.5473C16.2833 60 16.1146 59.9487 16.0413 59.846C15.9679 59.7287 15.9313 59.5747 15.9313 59.384V51.508C15.9313 51.2147 15.8359 50.9727 15.6453 50.782C15.4693 50.5767 15.2199 50.474 14.8973 50.474C14.4279 50.474 14.1126 50.6793 13.9513 51.09C13.8633 51.3247 13.8193 51.662 13.8193 52.102V59.384C13.8193 59.648 13.7606 59.8167 13.6433 59.89C13.5406 59.9633 13.3939 60 13.2033 60H11.4433C11.1793 60 11.0106 59.9487 10.9373 59.846C10.8639 59.7287 10.8273 59.5747 10.8273 59.384ZM20.5566 55.754V52.014C20.5566 50.826 20.7839 49.88 21.2386 49.176C21.9133 48.12 23.0793 47.592 24.7366 47.592C26.3793 47.592 27.5453 48.12 28.2346 49.176C28.6893 49.88 28.9166 50.826 28.9166 52.014V55.754C28.9166 56.942 28.6893 57.888 28.2346 58.592C27.5599 59.648 26.3939 60.176 24.7366 60.176C23.0939 60.176 21.9279 59.648 21.2386 58.592C20.7839 57.888 20.5566 56.942 20.5566 55.754ZM23.5486 51.508V56.26C23.5486 56.8027 23.6733 57.1913 23.9226 57.426C24.1279 57.6167 24.3993 57.712 24.7366 57.712C25.0593 57.712 25.3233 57.6167 25.5286 57.426C25.7926 57.1767 25.9246 56.788 25.9246 56.26V51.508C25.9246 50.9653 25.8073 50.5913 25.5726 50.386C25.3526 50.166 25.0739 50.056 24.7366 50.056C24.4139 50.056 24.1499 50.1513 23.9446 50.342C23.6806 50.5913 23.5486 50.98 23.5486 51.508ZM31.2759 45.568L33.4539 44.864C33.5419 44.8347 33.6153 44.82 33.6739 44.82C33.8499 44.82 33.9379 44.9447 33.9379 45.194V47.658C33.9379 47.8487 34.0333 47.944 34.2239 47.944H35.0819C35.2726 47.944 35.4193 47.9807 35.5219 48.054C35.6393 48.1273 35.6979 48.296 35.6979 48.56V49.594C35.6979 49.858 35.6393 50.0267 35.5219 50.1C35.4193 50.1733 35.2726 50.21 35.0819 50.21H34.1799C34.0186 50.21 33.9379 50.2907 33.9379 50.452V56.436C33.9379 56.8613 33.9966 57.162 34.1139 57.338C34.2459 57.514 34.5026 57.602 34.8839 57.602C35.0453 57.602 35.1699 57.5947 35.2579 57.58C35.3459 57.5507 35.4413 57.536 35.5439 57.536C35.7199 57.536 35.8079 57.646 35.8079 57.866V59.538C35.8079 59.7727 35.7126 59.934 35.5219 60.022C35.3313 60.1247 34.9206 60.176 34.2899 60.176C33.1019 60.176 32.2439 59.9633 31.7159 59.538C31.2026 59.098 30.9459 58.3573 30.9459 57.316V50.496C30.9459 50.3787 30.9166 50.3053 30.8579 50.276C30.7993 50.2467 30.7333 50.2247 30.6599 50.21H30.3079C30.1466 50.21 30.0293 50.1733 29.9559 50.1C29.8826 50.0267 29.8459 49.858 29.8459 49.594V48.56C29.8459 48.296 29.8826 48.1273 29.9559 48.054C30.0293 47.9807 30.1466 47.944 30.3079 47.944H30.6599C30.7039 47.944 30.7333 47.944 30.7479 47.944C30.8799 47.9 30.9459 47.8047 30.9459 47.658V46.03C30.9459 45.7953 31.0559 45.6413 31.2759 45.568ZM36.7343 55.754V52.014C36.7343 50.826 36.9617 49.88 37.4163 49.176C38.091 48.12 39.257 47.592 40.9143 47.592C42.557 47.592 43.723 48.12 44.4123 49.176C44.867 49.88 45.0943 50.826 45.0943 52.014V55.754C45.0943 56.942 44.867 57.888 44.4123 58.592C43.7377 59.648 42.5717 60.176 40.9143 60.176C39.2717 60.176 38.1057 59.648 37.4163 58.592C36.9617 57.888 36.7343 56.942 36.7343 55.754ZM39.7263 51.508V56.26C39.7263 56.8027 39.851 57.1913 40.1003 57.426C40.3057 57.6167 40.577 57.712 40.9143 57.712C41.237 57.712 41.501 57.6167 41.7063 57.426C41.9703 57.1767 42.1023 56.788 42.1023 56.26V51.508C42.1023 50.9653 41.985 50.5913 41.7503 50.386C41.5303 50.166 41.2517 50.056 40.9143 50.056C40.5917 50.056 40.3277 50.1513 40.1223 50.342C39.8583 50.5913 39.7263 50.98 39.7263 51.508ZM50.1377 57.426V59.384C50.1377 59.648 50.079 59.8167 49.9617 59.89C49.859 59.9633 49.7123 60 49.5217 60H47.5637C47.2997 60 47.131 59.9487 47.0577 59.846C46.9843 59.7287 46.9477 59.5747 46.9477 59.384V57.426C46.9477 57.162 46.999 56.9933 47.1017 56.92C47.219 56.8467 47.373 56.81 47.5637 56.81H49.5217C49.7857 56.81 49.9543 56.8687 50.0277 56.986C50.101 57.0887 50.1377 57.2353 50.1377 57.426ZM51.6802 59.098V57.668C51.6802 57.316 51.7976 57.14 52.0322 57.14C52.1056 57.14 52.3036 57.1913 52.6262 57.294C52.9636 57.382 53.3376 57.4627 53.7482 57.536C54.1736 57.6093 54.5256 57.646 54.8042 57.646C55.2589 57.646 55.5889 57.5507 55.7942 57.36C55.9996 57.1693 56.1022 56.9347 56.1022 56.656C56.1022 56.2453 55.8016 55.82 55.2002 55.38C54.7602 55.0867 54.4522 54.874 54.2762 54.742C53.5136 54.1993 52.9636 53.73 52.6262 53.334C52.0102 52.6153 51.7022 51.8087 51.7022 50.914C51.7022 50.0633 51.9442 49.352 52.4282 48.78C53.0882 47.988 54.1296 47.592 55.5522 47.592C56.6669 47.592 57.4809 47.6873 57.9942 47.878C58.5222 48.0687 58.7862 48.3473 58.7862 48.714V50.1C58.7862 50.1733 58.7862 50.2393 58.7862 50.298C58.7422 50.474 58.6029 50.562 58.3682 50.562C57.6642 50.562 57.1656 50.4667 56.8722 50.276C56.7109 50.1733 56.3809 50.122 55.8822 50.122C55.5156 50.122 55.2589 50.2027 55.1122 50.364C54.9802 50.5107 54.9142 50.672 54.9142 50.848C54.9142 51.2293 55.2662 51.662 55.9702 52.146C56.2929 52.366 56.6229 52.586 56.9602 52.806C57.7229 53.3633 58.2729 53.8693 58.6102 54.324C59.0796 54.9693 59.3142 55.732 59.3142 56.612C59.3142 57.7267 58.9256 58.5993 58.1482 59.23C57.3709 59.8607 56.3369 60.176 55.0462 60.176C53.6236 60.176 52.6482 60.0293 52.1202 59.736C51.8269 59.5747 51.6802 59.362 51.6802 59.098ZM63.5771 44.886V46.228C63.5771 46.4187 63.5404 46.5727 63.4671 46.69C63.3937 46.7927 63.2251 46.844 62.9611 46.844H61.2011C60.9371 46.844 60.7684 46.7927 60.6951 46.69C60.6217 46.5727 60.5851 46.4187 60.5851 46.228V44.886C60.5851 44.6953 60.6217 44.5487 60.6951 44.446C60.7684 44.3287 60.9371 44.27 61.2011 44.27H62.9611C63.1517 44.27 63.2984 44.3067 63.4011 44.38C63.5184 44.4533 63.5771 44.622 63.5771 44.886ZM63.5771 48.384V59.384C63.5771 59.648 63.5184 59.8167 63.4011 59.89C63.2984 59.9633 63.1517 60 62.9611 60H61.2011C60.9371 60 60.7684 59.9487 60.6951 59.846C60.6217 59.7287 60.5851 59.5747 60.5851 59.384V48.384C60.5851 48.12 60.6364 47.9513 60.7391 47.878C60.8564 47.8047 61.0104 47.768 61.2011 47.768H62.9611C63.1517 47.768 63.2984 47.8047 63.4011 47.878C63.5184 47.9513 63.5771 48.12 63.5771 48.384ZM70.7671 47.768H72.7691C72.9598 47.768 73.1065 47.8047 73.2091 47.878C73.3265 47.9513 73.3851 48.12 73.3851 48.384V57.976C73.3851 59.6627 73.2091 60.8287 72.8571 61.474C72.1971 62.662 70.8111 63.256 68.6991 63.256C67.2618 63.256 66.3085 63.168 65.8391 62.992C65.5751 62.8893 65.4431 62.728 65.4431 62.508V60.77C65.4431 60.5647 65.5311 60.462 65.7071 60.462C66.1031 60.55 66.5358 60.6307 67.0051 60.704C67.4891 60.7773 67.9218 60.814 68.3031 60.814C69.1538 60.814 69.7405 60.6527 70.0631 60.33C70.2831 60.11 70.3931 59.7947 70.3931 59.384V59.142C70.3785 59.0247 70.3565 58.966 70.3271 58.966C69.9898 59.186 69.6598 59.3547 69.3371 59.472C69.0291 59.5893 68.6625 59.648 68.2371 59.648C66.9905 59.648 66.1325 59.1127 65.6631 58.042C65.3551 57.3527 65.2011 56.37 65.2011 55.094V51.706C65.2011 50.5473 65.3331 49.6747 65.5971 49.088C66.0371 48.0907 66.8658 47.592 68.0831 47.592C68.5818 47.592 68.9998 47.6727 69.3371 47.834C69.6158 48.0247 69.8945 48.2153 70.1731 48.406C70.3051 48.3767 70.3711 48.3253 70.3711 48.252V48.076C70.3711 47.8707 70.5031 47.768 70.7671 47.768ZM70.3931 55.512V51.728C70.3931 51.3467 70.3418 51.046 70.2391 50.826C70.0631 50.4593 69.7551 50.276 69.3151 50.276C68.8751 50.276 68.5671 50.4593 68.3911 50.826C68.2885 51.046 68.2371 51.3467 68.2371 51.728V55.512C68.2371 55.8933 68.2885 56.194 68.3911 56.414C68.5671 56.7807 68.8751 56.964 69.3151 56.964C69.7551 56.964 70.0631 56.7807 70.2391 56.414C70.3418 56.194 70.3931 55.8933 70.3931 55.512ZM75.1515 59.384V45.216C75.1515 44.952 75.2028 44.7833 75.3055 44.71C75.4228 44.6367 75.5768 44.6 75.7675 44.6H77.5275C77.7915 44.6 77.9602 44.6587 78.0335 44.776C78.1068 44.8787 78.1435 45.0253 78.1435 45.216V48.12V48.252C78.1435 48.3253 78.2095 48.3767 78.3415 48.406C78.5028 48.406 78.7448 48.274 79.0675 48.01C79.4048 47.7313 79.8595 47.592 80.4315 47.592C81.2088 47.592 81.8468 47.8267 82.3455 48.296C82.9468 48.868 83.2475 49.726 83.2475 50.87V59.384C83.2475 59.648 83.1888 59.8167 83.0715 59.89C82.9688 59.9633 82.8222 60 82.6315 60H80.8715C80.6075 60 80.4388 59.9487 80.3655 59.846C80.2922 59.7287 80.2555 59.5747 80.2555 59.384V51.508C80.2555 51.2147 80.1602 50.9727 79.9695 50.782C79.7935 50.5767 79.5442 50.474 79.2215 50.474C78.7522 50.474 78.4368 50.6793 78.2755 51.09C78.1875 51.3247 78.1435 51.662 78.1435 52.102V59.384C78.1435 59.648 78.0848 59.8167 77.9675 59.89C77.8648 59.9633 77.7182 60 77.5275 60H75.7675C75.5035 60 75.3348 59.9487 75.2615 59.846C75.1882 59.7287 75.1515 59.5747 75.1515 59.384ZM85.7388 45.568L87.9168 44.864C88.0048 44.8347 88.0781 44.82 88.1368 44.82C88.3128 44.82 88.4008 44.9447 88.4008 45.194V47.658C88.4008 47.8487 88.4961 47.944 88.6868 47.944H89.5448C89.7355 47.944 89.8821 47.9807 89.9848 48.054C90.1021 48.1273 90.1608 48.296 90.1608 48.56V49.594C90.1608 49.858 90.1021 50.0267 89.9848 50.1C89.8821 50.1733 89.7355 50.21 89.5448 50.21H88.6428C88.4815 50.21 88.4008 50.2907 88.4008 50.452V56.436C88.4008 56.8613 88.4595 57.162 88.5768 57.338C88.7088 57.514 88.9655 57.602 89.3468 57.602C89.5081 57.602 89.6328 57.5947 89.7208 57.58C89.8088 57.5507 89.9041 57.536 90.0068 57.536C90.1828 57.536 90.2708 57.646 90.2708 57.866V59.538C90.2708 59.7727 90.1755 59.934 89.9848 60.022C89.7941 60.1247 89.3835 60.176 88.7528 60.176C87.5648 60.176 86.7068 59.9633 86.1788 59.538C85.6655 59.098 85.4088 58.3573 85.4088 57.316V50.496C85.4088 50.3787 85.3795 50.3053 85.3208 50.276C85.2621 50.2467 85.1961 50.2247 85.1228 50.21H84.7708C84.6095 50.21 84.4921 50.1733 84.4188 50.1C84.3455 50.0267 84.3088 49.858 84.3088 49.594V48.56C84.3088 48.296 84.3455 48.1273 84.4188 48.054C84.4921 47.9807 84.6095 47.944 84.7708 47.944H85.1228C85.1668 47.944 85.1961 47.944 85.2108 47.944C85.3428 47.9 85.4088 47.8047 85.4088 47.658V46.03C85.4088 45.7953 85.5188 45.6413 85.7388 45.568Z" fill="#282828"/>
<path fill-rule="evenodd" clip-rule="evenodd" d="M45.7505 23.0006C44.2317 23.0006 43.0005 24.2318 43.0005 25.7506C43.0005 27.2694 44.2317 28.5006 45.7505 28.5006C47.2693 28.5006 48.5005 27.2694 48.5005 25.7506C48.5005 24.2318 47.2693 23.0006 45.7505 23.0006ZM38.5005 25.7506C38.5005 21.7465 41.7464 18.5006 45.7505 18.5006C49.7546 18.5006 53.0005 21.7465 53.0005 25.7506C53.0005 29.7547 49.7546 33.0006 45.7505 33.0006C41.7464 33.0006 38.5005 29.7547 38.5005 25.7506Z" fill="#282828"/>
<path fill-rule="evenodd" clip-rule="evenodd" d="M45.7505 15.0006C41.4424 15.0006 37.7216 17.5348 36.0061 21.2036C35.4798 22.3293 34.1405 22.8151 33.0149 22.2888C31.8892 21.7625 31.4034 20.4232 31.9297 19.2976C34.3575 14.1054 39.6308 10.5006 45.7505 10.5006C51.8703 10.5006 57.1436 14.1054 59.5714 19.2976C60.0977 20.4232 59.6119 21.7625 58.4862 22.2888C57.3606 22.8151 56.0213 22.3293 55.495 21.2036C53.7795 17.5348 50.0587 15.0006 45.7505 15.0006Z" fill="#282828"/>
<path fill-rule="evenodd" clip-rule="evenodd" d="M20.238 13.7443C20.7938 12.6328 22.1453 12.1823 23.2567 12.738L28.2567 15.238C29.3682 15.7938 29.8187 17.1453 29.263 18.2567C28.7072 19.3682 27.3557 19.8187 26.2443 19.263L21.2443 16.763C20.1328 16.2072 19.6823 14.8557 20.238 13.7443Z" fill="#282828"/>
<path fill-rule="evenodd" clip-rule="evenodd" d="M71.2629 14.2443C70.7072 13.1328 69.3557 12.6823 68.2443 13.238L63.2443 15.738C62.1328 16.2938 61.6823 17.6453 62.238 18.7567C62.7937 19.8682 64.1453 20.3187 65.2567 19.763L70.2567 17.263C71.3682 16.7072 71.8187 15.3557 71.2629 14.2443Z" fill="#282828"/>
<path fill-rule="evenodd" clip-rule="evenodd" d="M34.3194 0.202226C35.4507 -0.311982 36.7846 0.188236 37.2988 1.31949L39.7988 6.81949C40.313 7.95075 39.8128 9.28467 38.6815 9.79887C37.5503 10.3131 36.2164 9.81287 35.7022 8.68161L33.2022 3.18161C32.688 2.05035 33.1882 0.716434 34.3194 0.202226Z" fill="#282828"/>
<path fill-rule="evenodd" clip-rule="evenodd" d="M57.1815 0.702226C56.0503 0.188018 54.7164 0.688236 54.2022 1.81949L51.7022 7.31949C51.188 8.45075 51.6882 9.78467 52.8194 10.2989C53.9507 10.8131 55.2846 10.3129 55.7988 9.18161L58.2988 3.68161C58.813 2.55035 58.3128 1.21643 57.1815 0.702226Z" fill="#282828"/>
<path fill-rule="evenodd" clip-rule="evenodd" d="M27.7505 24.5006C28.9931 24.5006 30.0005 25.508 30.0005 26.7506V31.7506C30.0005 32.4238 30.4087 33.8488 31.3264 35.1234C32.2304 36.3789 33.2614 37.0006 34.2505 37.0006H45.7505C46.9931 37.0006 48.0005 38.008 48.0005 39.2506C48.0005 40.4933 46.9931 41.5006 45.7505 41.5006H34.2505C31.2396 41.5006 29.0206 39.6223 27.6745 37.7528C26.3422 35.9024 25.5005 33.5774 25.5005 31.7506V26.7506C25.5005 25.508 26.5078 24.5006 27.7505 24.5006Z" fill="#282828"/>
<path fill-rule="evenodd" clip-rule="evenodd" d="M63.7505 24.5006C62.5078 24.5006 61.5005 25.508 61.5005 26.7506V31.7506C61.5005 32.4238 61.0922 33.8488 60.1745 35.1234C59.2706 36.3789 58.2396 37.0006 57.2505 37.0006H45.7505C44.5078 37.0006 43.5005 38.008 43.5005 39.2506C43.5005 40.4933 44.5078 41.5006 45.7505 41.5006H57.2505C60.2614 41.5006 62.4804 39.6223 63.8264 37.7528C65.1587 35.9024 66.0005 33.5774 66.0005 31.7506V26.7506C66.0005 25.508 64.9931 24.5006 63.7505 24.5006Z" fill="#282828"/>
</svg>
