<svg width="130" height="40" viewBox="0 0 130 40" fill="none" xmlns="http://www.w3.org/2000/svg">
<rect width="130" height="40" rx="10" fill="url(#paint0_linear)"/>
<g filter="url(#filter0_di)">
<path d="M19.5508 25.5713V24.4033L20.5093 24.2065V23.7876H20.4648C19.6862 23.7876 19.0007 23.6543 18.4082 23.3877C17.82 23.1211 17.3608 22.7381 17.0308 22.2388C16.7007 21.7394 16.5356 21.1427 16.5356 20.4487C16.5356 19.742 16.7007 19.1305 17.0308 18.6143C17.3651 18.098 17.8263 17.6981 18.4146 17.4146C19.0028 17.131 19.6862 16.9893 20.4648 16.9893H20.5093V16.5513L19.5508 16.3545V15.1865H23.6895V16.3545L22.731 16.5513V16.9893H22.75C23.5286 16.9893 24.2121 17.131 24.8003 17.4146C25.3885 17.6938 25.8477 18.0916 26.1777 18.6079C26.512 19.12 26.6792 19.7293 26.6792 20.436C26.6792 21.13 26.512 21.7288 26.1777 22.2324C25.8477 22.7318 25.3864 23.1169 24.7939 23.3877C24.2057 23.6543 23.5244 23.7876 22.75 23.7876H22.731V24.2065L23.6895 24.4033V25.5713H19.5508ZM22.731 22.3276H22.7627C23.279 22.3276 23.6979 22.1732 24.0195 21.8643C24.3454 21.5511 24.5083 21.075 24.5083 20.436C24.5083 19.7674 24.3454 19.2702 24.0195 18.9443C23.6979 18.6143 23.279 18.4492 22.7627 18.4492L22.731 18.4746V22.3276ZM20.4648 22.3276H20.5093V18.4746H20.4648C19.9528 18.4746 19.5317 18.6396 19.2017 18.9697C18.8758 19.2956 18.7129 19.7886 18.7129 20.4487C18.7129 21.0877 18.8758 21.5617 19.2017 21.8706C19.5317 22.1753 19.9528 22.3276 20.4648 22.3276ZM31.624 25.1333C30.985 25.1333 30.3968 25.0169 29.8594 24.7842C29.3262 24.5472 28.8628 24.2171 28.4692 23.7939C28.0757 23.3708 27.771 22.8757 27.5552 22.3086C27.3436 21.7373 27.2378 21.1174 27.2378 20.4487V20.3027C27.2378 19.6383 27.3436 19.0226 27.5552 18.4556C27.771 17.8885 28.0736 17.3934 28.4629 16.9702C28.8564 16.547 29.3198 16.217 29.853 15.98C30.3862 15.743 30.9723 15.6245 31.6113 15.6245C32.2376 15.6245 32.8195 15.743 33.3569 15.98C33.8944 16.217 34.3641 16.547 34.7661 16.9702C35.1724 17.3934 35.4876 17.8885 35.7119 18.4556C35.9362 19.0226 36.0483 19.6383 36.0483 20.3027V20.4487C36.0483 21.1174 35.9362 21.7373 35.7119 22.3086C35.4876 22.8757 35.1745 23.3708 34.7725 23.7939C34.3704 24.2171 33.9007 24.5472 33.3633 24.7842C32.8258 25.0169 32.2461 25.1333 31.624 25.1333ZM31.624 23.4448C32.3223 23.4448 32.8639 23.1719 33.249 22.626C33.6383 22.0758 33.833 21.3501 33.833 20.4487V20.29C33.833 19.4056 33.6383 18.6904 33.249 18.1445C32.8597 17.5944 32.3138 17.3193 31.6113 17.3193C30.8708 17.3193 30.327 17.5902 29.98 18.1318C29.6372 18.6735 29.4658 19.3929 29.4658 20.29V20.4487C29.4658 21.3543 29.6414 22.0801 29.9927 22.626C30.3439 23.1719 30.8877 23.4448 31.624 23.4448ZM38.1621 25V23.6987L39.127 23.4956V17.4844H37.6987L37.6416 18.481H35.9595V15.7578H44.5479V18.481H42.8467L42.7959 17.4844H41.355V23.4956L42.3198 23.6987V25H38.1621ZM49.2324 25.1333C48.5934 25.1333 48.0052 25.0169 47.4678 24.7842C46.9346 24.5472 46.4712 24.2171 46.0776 23.7939C45.6841 23.3708 45.3794 22.8757 45.1636 22.3086C44.952 21.7373 44.8462 21.1174 44.8462 20.4487V20.3027C44.8462 19.6383 44.952 19.0226 45.1636 18.4556C45.3794 17.8885 45.682 17.3934 46.0713 16.9702C46.4648 16.547 46.9282 16.217 47.4614 15.98C47.9946 15.743 48.5807 15.6245 49.2197 15.6245C49.846 15.6245 50.4279 15.743 50.9653 15.98C51.5028 16.217 51.9725 16.547 52.3745 16.9702C52.7808 17.3934 53.096 17.8885 53.3203 18.4556C53.5446 19.0226 53.6567 19.6383 53.6567 20.3027V20.4487C53.6567 21.1174 53.5446 21.7373 53.3203 22.3086C53.096 22.8757 52.7829 23.3708 52.3809 23.7939C51.9788 24.2171 51.5091 24.5472 50.9717 24.7842C50.4342 25.0169 49.8545 25.1333 49.2324 25.1333ZM49.2324 23.4448C49.9307 23.4448 50.4723 23.1719 50.8574 22.626C51.2467 22.0758 51.4414 21.3501 51.4414 20.4487V20.29C51.4414 19.4056 51.2467 18.6904 50.8574 18.1445C50.4681 17.5944 49.9222 17.3193 49.2197 17.3193C48.4792 17.3193 47.9354 17.5902 47.5884 18.1318C47.2456 18.6735 47.0742 19.3929 47.0742 20.29V20.4487C47.0742 21.3543 47.2498 22.0801 47.6011 22.626C47.9523 23.1719 48.4961 23.4448 49.2324 23.4448ZM57.0718 25V23.6987L58.0303 23.4956V17.2686L57.0718 17.0654V15.7578H61.2168V17.0654L60.2583 17.2686V19.6045H63.6226V17.2686L62.6641 17.0654V15.7578H66.8027V17.0654L65.8442 17.2686V23.4956L66.8027 23.6987V25H62.6641V23.6987L63.6226 23.4956V21.312H60.2583V23.4956L61.2168 23.6987V25H57.0718ZM67.3169 25V23.6987L68.2754 23.4956V17.2686L67.3169 17.0654V15.7578H74.6992V18.4238H73.0171L72.9663 17.4717H70.5034V19.3696H73.4551V21.0771H70.5034V23.2798H73.0869L73.1377 22.2832H74.8008V25H67.3169ZM75.7085 27.2661L75.5942 23.3052H76.2544C76.4787 23.1528 76.6797 22.9328 76.8574 22.645C77.0352 22.3573 77.1812 21.9658 77.2954 21.4707C77.4139 20.9756 77.4901 20.3408 77.5239 19.5664L77.708 17.2495L76.8511 17.0654V15.7578H85.0586V17.0654L84.1064 17.2686V23.3052H85.0903L84.8872 27.2788H82.8623V25H77.8096V27.2661H75.7085ZM78.7998 23.3052H81.8784V17.459H79.9106L79.7583 19.5664C79.7202 20.4593 79.6187 21.1978 79.4536 21.7817C79.2886 22.3657 79.0706 22.8735 78.7998 23.3052ZM85.6489 25V23.6987L86.6074 23.4956V17.2686L85.6489 17.0654V15.7578H93.0312V18.4238H91.3491L91.2983 17.4717H88.8354V19.3696H91.7871V21.0771H88.8354V23.2798H91.4189L91.4697 22.2832H93.1328V25H85.6489ZM93.9771 25V23.3052H94.2246C94.6097 23.2544 94.9017 23.1296 95.1006 22.9307C95.2995 22.7275 95.4307 22.3869 95.4941 21.9087C95.5618 21.4305 95.5915 20.7534 95.583 19.8774L95.5386 17.2686L94.5801 17.0654V15.7578H103.175V17.0654L102.216 17.2686V23.4956L103.175 23.6987V25H99.0361V23.6987L99.9946 23.4956V17.459H97.7603L97.811 19.8774C97.8237 21.0962 97.7052 22.0822 97.4556 22.8354C97.2101 23.5887 96.8398 24.1388 96.3447 24.4858C95.8538 24.8286 95.2445 25 94.5166 25H93.9771ZM103.867 25V23.6987L104.832 23.4956V17.2686L103.867 17.0654V15.7578H108.012V17.0654L107.047 17.2686V20.8931L107.085 20.9058L110.367 17.7383V17.2686L109.415 17.0654V15.7578H113.56V17.0654L112.607 17.2686V23.4956L113.56 23.6987V25H109.415V23.6987L110.367 23.4956V19.9282L110.329 19.9155L107.047 23.0894V23.4956L108.012 23.6987V25H103.867Z" fill="#5C3F2D"/>
</g>
<defs>
<filter id="filter0_di" x="16.5356" y="15.1865" width="98.0239" height="13.0923" filterUnits="userSpaceOnUse" color-interpolation-filters="sRGB">
<feFlood flood-opacity="0" result="background-imageImageFix"/>
<feColorMatrix in="SourceAlpha" type="matrix" values="0 0 0 0 0 0 0 0 0 0 0 0 0 0 0 0 0 0 127 0"/>
<feOffset dx="1" dy="1"/>
<feColorMatrix type="matrix" values="0 0 0 0 0.920278 0 0 0 0 0.834256 0 0 0 0 0.613056 0 0 0 1 0"/>
<feBlend mode="normal" in2="background-imageImageFix" result="effect1_dropShadow"/>
<feBlend mode="normal" in="SourceGraphic" in2="effect1_dropShadow" result="shape"/>
<feColorMatrix in="SourceAlpha" type="matrix" values="0 0 0 0 0 0 0 0 0 0 0 0 0 0 0 0 0 0 127 0" result="hardAlpha"/>
<feOffset dx="1" dy="1"/>
<feComposite in2="hardAlpha" operator="arithmetic" k2="-1" k3="1"/>
<feColorMatrix type="matrix" values="0 0 0 0 0.244531 0 0 0 0 0.171531 0 0 0 0 0.130469 0 0 0 1 0"/>
<feBlend mode="normal" in2="shape" result="effect2_innerShadow"/>
</filter>
<linearGradient id="paint0_linear" x1="65" y1="40" x2="65" y2="-7.50583e-07" gradientUnits="userSpaceOnUse">
<stop stop-color="#DBA73E"/>
<stop offset="0.0833333" stop-color="#D89D3A"/>
<stop offset="0.192708" stop-color="#AE7036"/>
<stop offset="0.369792" stop-color="#F4F3B8"/>
<stop offset="0.515625" stop-color="#F7ED9A"/>
<stop offset="0.578125" stop-color="#D5B767"/>
<stop offset="0.723958" stop-color="#C29863"/>
<stop offset="0.770833" stop-color="#E3CE7C"/>
<stop offset="0.848958" stop-color="#D0AB5B"/>
<stop offset="1" stop-color="#E0C77D"/>
</linearGradient>
</defs>
</svg>
