<svg width="144" height="40" viewBox="0 0 144 40" fill="none" xmlns="http://www.w3.org/2000/svg">
<rect width="144" height="40" rx="10" fill="url(#paint0_linear)"/>
<g filter="url(#filter0_di)">
<path d="M17.0166 25V23.6987L17.9814 23.4956V17.4844H16.5532L16.4961 18.481H14.814V15.7578H23.4023V18.481H21.7012L21.6504 17.4844H20.2095V23.4956L21.1743 23.6987V25H17.0166ZM28.0869 25.1333C27.4479 25.1333 26.8597 25.0169 26.3223 24.7842C25.7891 24.5472 25.3257 24.2171 24.9321 23.7939C24.5386 23.3708 24.2339 22.8757 24.0181 22.3086C23.8065 21.7373 23.7007 21.1174 23.7007 20.4487V20.3027C23.7007 19.6383 23.8065 19.0226 24.0181 18.4556C24.2339 17.8885 24.5365 17.3934 24.9258 16.9702C25.3193 16.547 25.7827 16.217 26.3159 15.98C26.8491 15.743 27.4352 15.6245 28.0742 15.6245C28.7005 15.6245 29.2824 15.743 29.8198 15.98C30.3573 16.217 30.827 16.547 31.229 16.9702C31.6353 17.3934 31.9505 17.8885 32.1748 18.4556C32.3991 19.0226 32.5112 19.6383 32.5112 20.3027V20.4487C32.5112 21.1174 32.3991 21.7373 32.1748 22.3086C31.9505 22.8757 31.6374 23.3708 31.2354 23.7939C30.8333 24.2171 30.3636 24.5472 29.8262 24.7842C29.2887 25.0169 28.709 25.1333 28.0869 25.1333ZM28.0869 23.4448C28.7852 23.4448 29.3268 23.1719 29.7119 22.626C30.1012 22.0758 30.2959 21.3501 30.2959 20.4487V20.29C30.2959 19.4056 30.1012 18.6904 29.7119 18.1445C29.3226 17.5944 28.7767 17.3193 28.0742 17.3193C27.3337 17.3193 26.7899 17.5902 26.4429 18.1318C26.1001 18.6735 25.9287 19.3929 25.9287 20.29V20.4487C25.9287 21.3543 26.1043 22.0801 26.4556 22.626C26.8068 23.1719 27.3506 23.4448 28.0869 23.4448ZM32.8794 25V23.6987L33.8315 23.4956V17.2686L32.8794 17.0654V15.7578H42.5596V17.0654L41.6074 17.2686V23.4956L42.5596 23.6987V25H38.4272V23.6987L39.3794 23.4956V17.459H36.0596V23.4956L37.0181 23.6987V25H32.8794ZM46.3555 25V23.5718L49.3325 20.436C49.7303 19.9832 50.0096 19.6024 50.1704 19.2935C50.3312 18.9845 50.4116 18.6947 50.4116 18.4238C50.4116 18.1234 50.3312 17.8695 50.1704 17.6621C50.0096 17.4505 49.7684 17.3447 49.4468 17.3447C49.0955 17.3447 48.8353 17.4696 48.666 17.7192C48.4967 17.9647 48.4121 18.2969 48.4121 18.7158H46.2349L46.2222 18.6777C46.2095 18.1064 46.3322 17.5902 46.5903 17.1289C46.8527 16.6676 47.2293 16.3016 47.7202 16.0308C48.2111 15.7599 48.7887 15.6245 49.4531 15.6245C50.4518 15.6245 51.2326 15.8805 51.7954 16.3926C52.3625 16.9004 52.646 17.5711 52.646 18.4048C52.646 18.7856 52.5804 19.1369 52.4492 19.4585C52.3223 19.7759 52.1107 20.1165 51.8145 20.4805C51.5225 20.8444 51.131 21.2845 50.6401 21.8008L49.2437 23.2798L49.2563 23.3115H51.0908L51.186 22.5435H52.8555V25H46.3555ZM56.9561 25.1333C55.9531 25.1333 55.1597 24.8159 54.5757 24.1812C53.9917 23.5464 53.6997 22.6048 53.6997 21.3564V19.4077C53.6997 18.1636 53.9917 17.222 54.5757 16.583C55.1597 15.944 55.9489 15.6245 56.9434 15.6245C57.9294 15.6245 58.7144 15.944 59.2983 16.583C59.8866 17.222 60.1807 18.1636 60.1807 19.4077V21.3564C60.1807 22.6048 59.8887 23.5464 59.3047 24.1812C58.7249 24.8159 57.9421 25.1333 56.9561 25.1333ZM56.9561 23.4385C57.2819 23.4385 57.5316 23.2904 57.7051 22.9941C57.8786 22.6937 57.9653 22.1901 57.9653 21.4834V19.2681C57.9653 18.5741 57.8765 18.0768 57.6987 17.7764C57.521 17.4759 57.2692 17.3257 56.9434 17.3257C56.6048 17.3257 56.3488 17.4759 56.1753 17.7764C56.0018 18.0726 55.915 18.5698 55.915 19.2681V21.4834C55.915 22.1943 56.0018 22.6979 56.1753 22.9941C56.3488 23.2904 56.609 23.4385 56.9561 23.4385ZM64.3955 25.1333C63.3926 25.1333 62.5991 24.8159 62.0151 24.1812C61.4312 23.5464 61.1392 22.6048 61.1392 21.3564V19.4077C61.1392 18.1636 61.4312 17.222 62.0151 16.583C62.5991 15.944 63.3883 15.6245 64.3828 15.6245C65.3688 15.6245 66.1538 15.944 66.7378 16.583C67.326 17.222 67.6201 18.1636 67.6201 19.4077V21.3564C67.6201 22.6048 67.3281 23.5464 66.7441 24.1812C66.1644 24.8159 65.3815 25.1333 64.3955 25.1333ZM64.3955 23.4385C64.7214 23.4385 64.971 23.2904 65.1445 22.9941C65.318 22.6937 65.4048 22.1901 65.4048 21.4834V19.2681C65.4048 18.5741 65.3159 18.0768 65.1382 17.7764C64.9604 17.4759 64.7087 17.3257 64.3828 17.3257C64.0443 17.3257 63.7882 17.4759 63.6147 17.7764C63.4412 18.0726 63.3545 18.5698 63.3545 19.2681V21.4834C63.3545 22.1943 63.4412 22.6979 63.6147 22.9941C63.7882 23.2904 64.0485 23.4385 64.3955 23.4385ZM71.4224 25V23.6987L72.3745 23.4956V17.2686L71.4224 17.0654V15.7578H75.7832L78.0176 21.8452H78.0557L80.2266 15.7578H84.5366V17.0654L83.5781 17.2686V23.4956L84.5366 23.6987V25H80.3979V23.6987L81.3945 23.4956V22.2896L81.4453 17.9414L81.4072 17.9351L78.792 25H77.04L74.3867 18.0176L74.3423 18.0239L74.4946 21.9849V23.4956L75.5674 23.6987V25H71.4224ZM84.9175 25V23.6987L85.876 23.4956V17.2686L84.9175 17.0654V15.7578H92.2998V18.4238H90.6177L90.5669 17.4717H88.104V19.3696H91.0557V21.0771H88.104V23.2798H90.6875L90.7383 22.2832H92.4014V25H84.9175ZM97.7715 25.1333C96.8913 25.1333 96.1063 24.9556 95.4165 24.6001C94.7267 24.2446 94.1851 23.7305 93.7915 23.0576C93.3979 22.3805 93.2012 21.5596 93.2012 20.5947V20.1694C93.2012 19.2808 93.381 18.4958 93.7407 17.8145C94.1047 17.1289 94.6209 16.5936 95.2896 16.2085C95.9624 15.8192 96.7601 15.6245 97.6826 15.6245C98.3258 15.6245 98.9373 15.7113 99.5171 15.8848C100.101 16.054 100.643 16.346 101.142 16.7607V19.1411H99.5234L99.3013 17.7764C99.0854 17.6283 98.8527 17.5119 98.603 17.4272C98.3534 17.3426 98.0719 17.3003 97.7588 17.3003C97.0563 17.3003 96.4914 17.55 96.064 18.0493C95.6366 18.5444 95.4229 19.2469 95.4229 20.1567V20.5947C95.4229 21.1618 95.5223 21.6611 95.7212 22.0928C95.9201 22.5202 96.1973 22.8545 96.5527 23.0957C96.9124 23.3369 97.3271 23.4575 97.7969 23.4575C98.0465 23.4575 98.3005 23.4321 98.5586 23.3813C98.8167 23.3263 99.0664 23.2544 99.3076 23.1655L99.5298 21.8579H101.155V24.1875C100.787 24.4414 100.317 24.6636 99.7456 24.854C99.1743 25.0402 98.5163 25.1333 97.7715 25.1333ZM110.061 23.6987V25H105.922V23.6987L106.887 23.5083V21.6167H106.074L105.535 23.2798C105.293 23.8426 104.985 24.2806 104.608 24.5938C104.231 24.9069 103.772 25.0635 103.23 25.0635C102.993 25.0635 102.761 25.0339 102.532 24.9746C102.308 24.9111 102.111 24.8265 101.942 24.7207L102.221 23.0068C102.386 23.0618 102.543 23.0894 102.691 23.0894C102.877 23.0894 103.053 23.0365 103.218 22.9307C103.383 22.8249 103.563 22.6027 103.757 22.2642L104.106 21.2104L104.119 21.1851C103.493 20.9269 103.029 20.5968 102.729 20.1948C102.429 19.7928 102.278 19.2723 102.278 18.6333C102.278 17.6981 102.585 16.985 103.199 16.4941C103.812 16.0033 104.665 15.7578 105.757 15.7578H110.061V17.0654L109.108 17.2686V23.4956L110.061 23.6987ZM105.757 17.459C104.919 17.459 104.5 17.8927 104.5 18.7603C104.5 19.6151 104.919 20.0425 105.757 20.0425H106.887V17.459H105.757ZM118.478 27.228V25H110.575V23.6987L111.527 23.4956V17.2686L110.575 17.0654V15.7578H114.707V17.0654L113.755 17.2686V23.3052H117.062V17.2686L116.11 17.0654V15.7578H120.255V17.0654L119.303 17.2686V23.3115H120.648L120.547 27.228H118.478ZM119.899 25V23.6987L120.547 23.6035L123.302 15.7578H125.714L128.475 23.6035L129.123 23.6987V25H125.669V23.6987L126.272 23.5845L125.993 22.5815H123.022L122.756 23.5845L123.359 23.6987V25H119.899ZM123.492 21.02H125.517L124.616 18.2207L124.514 17.897H124.476L124.368 18.2524L123.492 21.02Z" fill="#4B4B4B"/>
</g>
<defs>
<filter id="filter0_di" x="14.814" y="15.6245" width="115.309" height="12.6035" filterUnits="userSpaceOnUse" color-interpolation-filters="sRGB">
<feFlood flood-opacity="0" result="BackgroundImageFix"/>
<feColorMatrix in="SourceAlpha" type="matrix" values="0 0 0 0 0 0 0 0 0 0 0 0 0 0 0 0 0 0 127 0"/>
<feOffset dx="1" dy="1"/>
<feColorMatrix type="matrix" values="0 0 0 0 0.908333 0 0 0 0 0.908333 0 0 0 0 0.908333 0 0 0 1 0"/>
<feBlend mode="normal" in2="BackgroundImageFix" result="effect1_dropShadow"/>
<feBlend mode="normal" in="SourceGraphic" in2="effect1_dropShadow" result="shape"/>
<feColorMatrix in="SourceAlpha" type="matrix" values="0 0 0 0 0 0 0 0 0 0 0 0 0 0 0 0 0 0 127 0" result="hardAlpha"/>
<feOffset dx="1" dy="1"/>
<feComposite in2="hardAlpha" operator="arithmetic" k2="-1" k3="1"/>
<feColorMatrix type="matrix" values="0 0 0 0 0.108333 0 0 0 0 0.108333 0 0 0 0 0.108333 0 0 0 1 0"/>
<feBlend mode="normal" in2="shape" result="effect2_innerShadow"/>
</filter>
<linearGradient id="paint0_linear" x1="72.0059" y1="39.6068" x2="72.0059" y2="0.391623" gradientUnits="userSpaceOnUse">
<stop stop-color="#CDCDCD"/>
<stop offset="0.161458" stop-color="#9A9A9A"/>
<stop offset="0.239583" stop-color="#CCCCCC"/>
<stop offset="0.421875" stop-color="#D6D6D6"/>
<stop offset="0.5" stop-color="#C9C9C9"/>
<stop offset="0.598958" stop-color="#9E9E9E"/>
<stop offset="0.776042" stop-color="#C5C5C5"/>
<stop offset="0.85" stop-color="#B3B3B3"/>
<stop offset="1" stop-color="#DEDEDE"/>
</linearGradient>
</defs>
</svg>
