<svg width="182" height="40" viewBox="0 0 182 40" fill="none" xmlns="http://www.w3.org/2000/svg">
<rect width="182" height="40" rx="10" fill="url(#paint0_linear)"/>
<g filter="url(#filter0_di)">
<path d="M16.4912 25V23.6987L17.3101 23.5337L19.7666 20.4932L17.418 17.2368L16.707 17.0654V15.7578H20.6997V17.0654L19.811 17.1479L21.1187 18.9824L22.4771 17.1479L21.6328 17.0654V15.7578H25.5303V17.0654L24.7305 17.2368L22.4517 20.2266L25.0288 23.5273L25.9429 23.6987V25H21.8296V23.6987L22.5659 23.6226L21.144 21.6802L19.665 23.6226L20.395 23.6987V25H16.4912ZM28.9326 25.1333C28.8268 25.1333 28.7083 25.1312 28.5771 25.127C28.4502 25.1227 28.3444 25.1185 28.2598 25.1143L28.2153 23.4131C28.2619 23.4173 28.3338 23.4237 28.4312 23.4321C28.5327 23.4364 28.6089 23.4385 28.6597 23.4385C29.0151 23.4385 29.2881 23.3644 29.4785 23.2163C29.6732 23.0682 29.8107 22.8566 29.8911 22.5815L29.9609 22.3467L27.3267 17.2114L26.1968 17.0654V15.7578H30.2783V17.0654L29.6499 17.167L30.8242 19.6108L30.9004 19.7886H30.9385L31.897 17.1987L31.3638 17.0654V15.7578H35.1343V17.0654L34.125 17.1987L31.624 23.1021C31.3405 23.741 30.9956 24.2404 30.5894 24.6001C30.1831 24.9556 29.6309 25.1333 28.9326 25.1333ZM34.9248 27.2661L34.8105 23.3052H35.4707C35.695 23.1528 35.896 22.9328 36.0737 22.645C36.2515 22.3573 36.3975 21.9658 36.5117 21.4707C36.6302 20.9756 36.7064 20.3408 36.7402 19.5664L36.9243 17.2495L36.0674 17.0654V15.7578H44.2749V17.0654L43.3228 17.2686V23.3052H44.3066L44.1035 27.2788H42.0786V25H37.0259V27.2661H34.9248ZM38.0161 23.3052H41.0947V17.459H39.127L38.9746 19.5664C38.9365 20.4593 38.835 21.1978 38.6699 21.7817C38.5049 22.3657 38.2869 22.8735 38.0161 23.3052ZM49.2388 25.1333C48.5998 25.1333 48.0116 25.0169 47.4741 24.7842C46.9409 24.5472 46.4775 24.2171 46.084 23.7939C45.6904 23.3708 45.3857 22.8757 45.1699 22.3086C44.9583 21.7373 44.8525 21.1174 44.8525 20.4487V20.3027C44.8525 19.6383 44.9583 19.0226 45.1699 18.4556C45.3857 17.8885 45.6883 17.3934 46.0776 16.9702C46.4712 16.547 46.9346 16.217 47.4678 15.98C48.001 15.743 48.5871 15.6245 49.2261 15.6245C49.8524 15.6245 50.4342 15.743 50.9717 15.98C51.5091 16.217 51.9788 16.547 52.3809 16.9702C52.7871 17.3934 53.1024 17.8885 53.3267 18.4556C53.5509 19.0226 53.6631 19.6383 53.6631 20.3027V20.4487C53.6631 21.1174 53.5509 21.7373 53.3267 22.3086C53.1024 22.8757 52.7892 23.3708 52.3872 23.7939C51.9852 24.2171 51.5155 24.5472 50.978 24.7842C50.4406 25.0169 49.8608 25.1333 49.2388 25.1333ZM49.2388 23.4448C49.937 23.4448 50.4787 23.1719 50.8638 22.626C51.2531 22.0758 51.4478 21.3501 51.4478 20.4487V20.29C51.4478 19.4056 51.2531 18.6904 50.8638 18.1445C50.4744 17.5944 49.9285 17.3193 49.2261 17.3193C48.4855 17.3193 47.9417 17.5902 47.5947 18.1318C47.252 18.6735 47.0806 19.3929 47.0806 20.29V20.4487C47.0806 21.3543 47.2562 22.0801 47.6074 22.626C47.9587 23.1719 48.5024 23.4448 49.2388 23.4448ZM53.7393 25V23.6987L54.6533 23.5654L56.6846 19.8584L55.834 18.4683C55.6012 18.134 55.4023 17.9118 55.2373 17.8018C55.0765 17.6917 54.9157 17.6367 54.7549 17.6367C54.6279 17.6367 54.4925 17.6642 54.3486 17.7192L54.0186 16.0054C54.1794 15.9038 54.3698 15.8213 54.5898 15.7578C54.8099 15.6901 55.0617 15.6562 55.3452 15.6562C55.6626 15.6562 55.9313 15.7049 56.1514 15.8022C56.3757 15.8953 56.5809 16.0498 56.7671 16.2656C56.9533 16.4772 57.1501 16.7607 57.3574 17.1162L58.5444 19.2935H59.5347V17.2686L58.5698 17.0654V15.7578H62.7212V17.0654L61.7563 17.2686V19.2935H62.7402L63.8828 17.1162C64.1663 16.5788 64.4541 16.2021 64.7461 15.9863C65.0423 15.7663 65.4274 15.6562 65.9014 15.6562C66.1849 15.6562 66.4325 15.688 66.644 15.7515C66.8556 15.8149 67.0461 15.8996 67.2153 16.0054L66.9043 17.7192C66.752 17.6642 66.6165 17.6367 66.498 17.6367C66.3542 17.6367 66.1891 17.6896 66.0029 17.7954C65.821 17.897 65.6305 18.1213 65.4316 18.4683L64.6191 19.8647L66.5933 23.5654L67.5708 23.6987V25H63.6543V23.6987L63.9463 23.6353L63.9399 23.6226L62.9053 21.3691H61.7563V23.4956L62.7212 23.6987V25H58.5698V23.6987L59.5347 23.4956V21.3691H58.3921L57.3257 23.5972L57.313 23.6353L57.5796 23.6987V25H53.7393ZM67.958 25V23.6987L68.9165 23.4956V17.2686L67.958 17.0654V15.7578H75.3403V18.4238H73.6582L73.6074 17.4717H71.1445V19.3696H74.0962V21.0771H71.1445V23.2798H73.728L73.7788 22.2832H75.4419V25H67.958ZM80.812 25.1333C79.9318 25.1333 79.1468 24.9556 78.457 24.6001C77.7673 24.2446 77.2256 23.7305 76.832 23.0576C76.4385 22.3805 76.2417 21.5596 76.2417 20.5947V20.1694C76.2417 19.2808 76.4215 18.4958 76.7812 17.8145C77.1452 17.1289 77.6615 16.5936 78.3301 16.2085C79.0029 15.8192 79.8006 15.6245 80.7231 15.6245C81.3664 15.6245 81.9779 15.7113 82.5576 15.8848C83.1416 16.054 83.6833 16.346 84.1826 16.7607V19.1411H82.564L82.3418 17.7764C82.126 17.6283 81.8932 17.5119 81.6436 17.4272C81.3939 17.3426 81.1125 17.3003 80.7993 17.3003C80.0968 17.3003 79.5319 17.55 79.1045 18.0493C78.6771 18.5444 78.4634 19.2469 78.4634 20.1567V20.5947C78.4634 21.1618 78.5628 21.6611 78.7617 22.0928C78.9606 22.5202 79.2378 22.8545 79.5933 23.0957C79.953 23.3369 80.3677 23.4575 80.8374 23.4575C81.0871 23.4575 81.341 23.4321 81.5991 23.3813C81.8573 23.3263 82.1069 23.2544 82.3481 23.1655L82.5703 21.8579H84.1953V24.1875C83.8271 24.4414 83.3574 24.6636 82.7861 24.854C82.2148 25.0402 81.5568 25.1333 80.812 25.1333ZM86.6265 25V23.6987L87.5913 23.4956V17.4844H86.1631L86.106 18.481H84.4238V15.7578H93.0122V18.481H91.311L91.2603 17.4844H89.8193V23.4956L90.7842 23.6987V25H86.6265ZM93.3486 25V23.6987L94.3071 23.4956V17.2686L93.3486 17.0654V15.7578H97.5317C98.6955 15.7578 99.6032 15.9715 100.255 16.3989C100.907 16.8263 101.232 17.4632 101.232 18.3096C101.232 18.7454 101.129 19.1369 100.921 19.4839C100.714 19.8267 100.395 20.0869 99.9629 20.2646C100.517 20.3831 100.919 20.6265 101.169 20.9946C101.419 21.3586 101.543 21.7796 101.543 22.2578C101.543 23.1634 101.241 23.8468 100.636 24.3081C100.031 24.7694 99.1525 25 98.0015 25H93.3486ZM96.5352 19.5918H97.4365C98.4818 19.5918 99.0044 19.249 99.0044 18.5635C99.0044 18.1784 98.8817 17.8991 98.6362 17.7256C98.395 17.5479 98.0269 17.459 97.5317 17.459H96.5352V19.5918ZM96.5352 23.3052H98.0015C98.8859 23.3052 99.3281 22.9539 99.3281 22.2515C99.3281 21.8537 99.2308 21.5575 99.0361 21.3628C98.8457 21.1639 98.5368 21.0645 98.1094 21.0645H96.5352V23.3052ZM101.981 25V23.6987L102.94 23.4956V17.2686L101.981 17.0654V15.7578H109.364V18.4238H107.682L107.631 17.4717H105.168V19.3696H108.12V21.0771H105.168V23.2798H107.751L107.802 22.2832H109.465V25H101.981ZM110.297 25V23.6987L111.255 23.4956V17.2686L110.297 17.0654V15.7578H114.442V17.0654L113.483 17.2686V19.6045H116.848V17.2686L115.889 17.0654V15.7578H120.028V17.0654L119.069 17.2686V23.4956L120.028 23.6987V25H115.889V23.6987L116.848 23.4956V21.312H113.483V23.4956L114.442 23.6987V25H110.297ZM120.542 25V23.6987L121.5 23.4956V17.2686L120.542 17.0654V15.7578H124.687V17.0654L123.729 17.2686V19.6045H127.093V17.2686L126.134 17.0654V15.7578H130.273V17.0654L129.314 17.2686V23.4956L130.273 23.6987V25H126.134V23.6987L127.093 23.4956V21.312H123.729V23.4956L124.687 23.6987V25H120.542ZM135.313 25.1333C134.674 25.1333 134.086 25.0169 133.548 24.7842C133.015 24.5472 132.552 24.2171 132.158 23.7939C131.765 23.3708 131.46 22.8757 131.244 22.3086C131.033 21.7373 130.927 21.1174 130.927 20.4487V20.3027C130.927 19.6383 131.033 19.0226 131.244 18.4556C131.46 17.8885 131.763 17.3934 132.152 16.9702C132.545 16.547 133.009 16.217 133.542 15.98C134.075 15.743 134.661 15.6245 135.3 15.6245C135.927 15.6245 136.508 15.743 137.046 15.98C137.583 16.217 138.053 16.547 138.455 16.9702C138.861 17.3934 139.177 17.8885 139.401 18.4556C139.625 19.0226 139.737 19.6383 139.737 20.3027V20.4487C139.737 21.1174 139.625 21.7373 139.401 22.3086C139.177 22.8757 138.863 23.3708 138.461 23.7939C138.059 24.2171 137.59 24.5472 137.052 24.7842C136.515 25.0169 135.935 25.1333 135.313 25.1333ZM135.313 23.4448C136.011 23.4448 136.553 23.1719 136.938 22.626C137.327 22.0758 137.522 21.3501 137.522 20.4487V20.29C137.522 19.4056 137.327 18.6904 136.938 18.1445C136.549 17.5944 136.003 17.3193 135.3 17.3193C134.56 17.3193 134.016 17.5902 133.669 18.1318C133.326 18.6735 133.155 19.3929 133.155 20.29V20.4487C133.155 21.3543 133.33 22.0801 133.682 22.626C134.033 23.1719 134.577 23.4448 135.313 23.4448ZM144.53 25.1333C143.65 25.1333 142.865 24.9556 142.175 24.6001C141.485 24.2446 140.943 23.7305 140.55 23.0576C140.156 22.3805 139.959 21.5596 139.959 20.5947V20.1694C139.959 19.2808 140.139 18.4958 140.499 17.8145C140.863 17.1289 141.379 16.5936 142.048 16.2085C142.721 15.8192 143.518 15.6245 144.441 15.6245C145.084 15.6245 145.696 15.7113 146.275 15.8848C146.859 16.054 147.401 16.346 147.9 16.7607V19.1411H146.282L146.06 17.7764C145.844 17.6283 145.611 17.5119 145.361 17.4272C145.112 17.3426 144.83 17.3003 144.517 17.3003C143.815 17.3003 143.25 17.55 142.822 18.0493C142.395 18.5444 142.181 19.2469 142.181 20.1567V20.5947C142.181 21.1618 142.281 21.6611 142.479 22.0928C142.678 22.5202 142.956 22.8545 143.311 23.0957C143.671 23.3369 144.085 23.4575 144.555 23.4575C144.805 23.4575 145.059 23.4321 145.317 23.3813C145.575 23.3263 145.825 23.2544 146.066 23.1655L146.288 21.8579H147.913V24.1875C147.545 24.4414 147.075 24.6636 146.504 24.854C145.933 25.0402 145.275 25.1333 144.53 25.1333ZM150.344 25V23.6987L151.309 23.4956V17.4844H149.881L149.824 18.481H148.142V15.7578H156.73V18.481H155.029L154.978 17.4844H153.537V23.4956L154.502 23.6987V25H150.344ZM157.327 25V23.6987L158.292 23.4956V17.2686L157.327 17.0654V15.7578H161.478V17.0654L160.52 17.2686V18.957H161.675C162.424 18.957 163.073 19.0819 163.624 19.3315C164.178 19.577 164.607 19.9219 164.912 20.3662C165.217 20.8105 165.369 21.3332 165.369 21.9341C165.369 22.5435 165.215 23.0788 164.906 23.54C164.601 24.0013 164.172 24.361 163.617 24.6191C163.063 24.873 162.415 25 161.675 25H157.327ZM160.52 23.3052H161.675C162.128 23.3052 162.485 23.174 162.748 22.9116C163.014 22.6493 163.147 22.3192 163.147 21.9214C163.147 21.5448 163.018 21.2401 162.76 21.0073C162.502 20.7746 162.14 20.6582 161.675 20.6582H160.52V23.3052Z" fill="#4B4B4B"/>
</g>
<defs>
<filter id="filter0_di" x="16.4912" y="15.6245" width="149.878" height="12.6543" filterUnits="userSpaceOnUse" color-interpolation-filters="sRGB">
<feFlood flood-opacity="0" result="BackgroundImageFix"/>
<feColorMatrix in="SourceAlpha" type="matrix" values="0 0 0 0 0 0 0 0 0 0 0 0 0 0 0 0 0 0 127 0"/>
<feOffset dx="1" dy="1"/>
<feColorMatrix type="matrix" values="0 0 0 0 0.908333 0 0 0 0 0.908333 0 0 0 0 0.908333 0 0 0 1 0"/>
<feBlend mode="normal" in2="BackgroundImageFix" result="effect1_dropShadow"/>
<feBlend mode="normal" in="SourceGraphic" in2="effect1_dropShadow" result="shape"/>
<feColorMatrix in="SourceAlpha" type="matrix" values="0 0 0 0 0 0 0 0 0 0 0 0 0 0 0 0 0 0 127 0" result="hardAlpha"/>
<feOffset dx="1" dy="1"/>
<feComposite in2="hardAlpha" operator="arithmetic" k2="-1" k3="1"/>
<feColorMatrix type="matrix" values="0 0 0 0 0.108333 0 0 0 0 0.108333 0 0 0 0 0.108333 0 0 0 1 0"/>
<feBlend mode="normal" in2="shape" result="effect2_innerShadow"/>
</filter>
<linearGradient id="paint0_linear" x1="91.0074" y1="39.6068" x2="91.0074" y2="0.391623" gradientUnits="userSpaceOnUse">
<stop stop-color="#CDCDCD"/>
<stop offset="0.161458" stop-color="#9A9A9A"/>
<stop offset="0.239583" stop-color="#CCCCCC"/>
<stop offset="0.421875" stop-color="#D6D6D6"/>
<stop offset="0.5" stop-color="#C9C9C9"/>
<stop offset="0.598958" stop-color="#9E9E9E"/>
<stop offset="0.776042" stop-color="#C5C5C5"/>
<stop offset="0.85" stop-color="#B3B3B3"/>
<stop offset="1" stop-color="#DEDEDE"/>
</linearGradient>
</defs>
</svg>
