<svg width="144" height="40" viewBox="0 0 144 40" fill="none" xmlns="http://www.w3.org/2000/svg">
<rect width="144" height="40" rx="10" fill="url(#paint0_linear)"/>
<g filter="url(#filter0_di)">
<path d="M21.4155 25V23.6987L22.3804 23.4956V17.4844H20.9521L20.895 18.481H19.2129V15.7578H27.8013V18.481H26.1001L26.0493 17.4844H24.6084V23.4956L25.5732 23.6987V25H21.4155ZM32.4858 25.1333C31.8468 25.1333 31.2586 25.0169 30.7212 24.7842C30.188 24.5472 29.7246 24.2171 29.3311 23.7939C28.9375 23.3708 28.6328 22.8757 28.417 22.3086C28.2054 21.7373 28.0996 21.1174 28.0996 20.4487V20.3027C28.0996 19.6383 28.2054 19.0226 28.417 18.4556C28.6328 17.8885 28.9354 17.3934 29.3247 16.9702C29.7183 16.547 30.1816 16.217 30.7148 15.98C31.248 15.743 31.8341 15.6245 32.4731 15.6245C33.0994 15.6245 33.6813 15.743 34.2188 15.98C34.7562 16.217 35.2259 16.547 35.6279 16.9702C36.0342 17.3934 36.3494 17.8885 36.5737 18.4556C36.798 19.0226 36.9102 19.6383 36.9102 20.3027V20.4487C36.9102 21.1174 36.798 21.7373 36.5737 22.3086C36.3494 22.8757 36.0363 23.3708 35.6343 23.7939C35.2323 24.2171 34.7625 24.5472 34.2251 24.7842C33.6877 25.0169 33.1079 25.1333 32.4858 25.1333ZM32.4858 23.4448C33.1841 23.4448 33.7257 23.1719 34.1108 22.626C34.5002 22.0758 34.6948 21.3501 34.6948 20.4487V20.29C34.6948 19.4056 34.5002 18.6904 34.1108 18.1445C33.7215 17.5944 33.1756 17.3193 32.4731 17.3193C31.7326 17.3193 31.1888 17.5902 30.8418 18.1318C30.499 18.6735 30.3276 19.3929 30.3276 20.29V20.4487C30.3276 21.3543 30.5033 22.0801 30.8545 22.626C31.2057 23.1719 31.7495 23.4448 32.4858 23.4448ZM37.2783 25V23.6987L38.2305 23.4956V17.2686L37.2783 17.0654V15.7578H46.9585V17.0654L46.0063 17.2686V23.4956L46.9585 23.6987V25H42.8262V23.6987L43.7783 23.4956V17.459H40.4585V23.4956L41.417 23.6987V25H37.2783ZM53.9219 25.1333C53.3337 25.1333 52.7878 25.0233 52.2842 24.8032C51.7806 24.5832 51.3786 24.2743 51.0781 23.8765C50.7777 23.4744 50.6338 23.0068 50.6465 22.4736L50.6592 22.4482L52.8428 22.3022C52.8428 22.6577 52.9401 22.937 53.1348 23.1401C53.3337 23.339 53.596 23.4385 53.9219 23.4385C54.2943 23.4385 54.5566 23.3031 54.709 23.0322C54.8656 22.7614 54.9438 22.4292 54.9438 22.0356C54.9438 21.5448 54.8571 21.1554 54.6836 20.8677C54.5101 20.5799 54.2308 20.436 53.8457 20.436C53.5833 20.436 53.3675 20.4974 53.1982 20.6201C53.0332 20.7386 52.9168 20.8846 52.8491 21.0581L50.8369 20.9502L51.3701 15.7578H56.9624V18.0366H55.6929L55.5024 17.478H53.1855L52.9443 19.3188C53.1094 19.2046 53.3125 19.1115 53.5537 19.0396C53.7992 18.9634 54.0594 18.9232 54.3345 18.9189C55.2485 18.902 55.9468 19.1665 56.4292 19.7124C56.9159 20.2541 57.1592 21.0243 57.1592 22.0229C57.1592 22.5985 57.0343 23.1232 56.7847 23.5972C56.535 24.0669 56.1689 24.4414 55.6865 24.7207C55.2041 24.9958 54.6159 25.1333 53.9219 25.1333ZM61.1011 25.1333C60.0981 25.1333 59.3047 24.8159 58.7207 24.1812C58.1367 23.5464 57.8447 22.6048 57.8447 21.3564V19.4077C57.8447 18.1636 58.1367 17.222 58.7207 16.583C59.3047 15.944 60.0939 15.6245 61.0884 15.6245C62.0744 15.6245 62.8594 15.944 63.4434 16.583C64.0316 17.222 64.3257 18.1636 64.3257 19.4077V21.3564C64.3257 22.6048 64.0337 23.5464 63.4497 24.1812C62.87 24.8159 62.0871 25.1333 61.1011 25.1333ZM61.1011 23.4385C61.4269 23.4385 61.6766 23.2904 61.8501 22.9941C62.0236 22.6937 62.1104 22.1901 62.1104 21.4834V19.2681C62.1104 18.5741 62.0215 18.0768 61.8438 17.7764C61.666 17.4759 61.4142 17.3257 61.0884 17.3257C60.7498 17.3257 60.4938 17.4759 60.3203 17.7764C60.1468 18.0726 60.0601 18.5698 60.0601 19.2681V21.4834C60.0601 22.1943 60.1468 22.6979 60.3203 22.9941C60.4938 23.2904 60.7541 23.4385 61.1011 23.4385ZM68.1787 25V23.6987L69.1372 23.4956V17.2686L68.1787 17.0654V15.7578H72.3237V17.0654L71.3652 17.2686V19.6045H74.7295V17.2686L73.771 17.0654V15.7578H77.9097V17.0654L76.9512 17.2686V23.4956L77.9097 23.6987V25H73.771V23.6987L74.7295 23.4956V21.312H71.3652V23.4956L72.3237 23.6987V25H68.1787ZM78.4238 25V23.6987L79.3823 23.4956V17.2686L78.4238 17.0654V15.7578H85.8062V18.4238H84.124L84.0732 17.4717H81.6104V19.3696H84.562V21.0771H81.6104V23.2798H84.1938L84.2446 22.2832H85.9077V25H78.4238ZM86.8154 27.2661L86.7012 23.3052H87.3613C87.5856 23.1528 87.7866 22.9328 87.9644 22.645C88.1421 22.3573 88.2881 21.9658 88.4023 21.4707C88.5208 20.9756 88.597 20.3408 88.6309 19.5664L88.8149 17.2495L87.958 17.0654V15.7578H96.1655V17.0654L95.2134 17.2686V23.3052H96.1973L95.9941 27.2788H93.9692V25H88.9165V27.2661H86.8154ZM89.9067 23.3052H92.9854V17.459H91.0176L90.8652 19.5664C90.8271 20.4593 90.7256 21.1978 90.5605 21.7817C90.3955 22.3657 90.1776 22.8735 89.9067 23.3052ZM96.7559 25V23.6987L97.7144 23.4956V17.2686L96.7559 17.0654V15.7578H104.138V18.4238H102.456L102.405 17.4717H99.9424V19.3696H102.894V21.0771H99.9424V23.2798H102.526L102.577 22.2832H104.24V25H96.7559ZM105.084 25V23.3052H105.332C105.717 23.2544 106.009 23.1296 106.208 22.9307C106.406 22.7275 106.538 22.3869 106.601 21.9087C106.669 21.4305 106.698 20.7534 106.69 19.8774L106.646 17.2686L105.687 17.0654V15.7578H114.282V17.0654L113.323 17.2686V23.4956L114.282 23.6987V25H110.143V23.6987L111.102 23.4956V17.459H108.867L108.918 19.8774C108.931 21.0962 108.812 22.0822 108.562 22.8354C108.317 23.5887 107.947 24.1388 107.452 24.4858C106.961 24.8286 106.351 25 105.624 25H105.084ZM114.974 25V23.6987L115.938 23.4956V17.2686L114.974 17.0654V15.7578H119.119V17.0654L118.154 17.2686V20.8931L118.192 20.9058L121.474 17.7383V17.2686L120.521 17.0654V15.7578H124.667V17.0654L123.714 17.2686V23.4956L124.667 23.6987V25H120.521V23.6987L121.474 23.4956V19.9282L121.436 19.9155L118.154 23.0894V23.4956L119.119 23.6987V25H114.974Z" fill="#4B4B4B"/>
</g>
<defs>
<filter id="filter0_di" x="19.2129" y="15.6245" width="106.454" height="12.6543" filterUnits="userSpaceOnUse" color-interpolation-filters="sRGB">
<feFlood flood-opacity="0" result="BackgroundImageFix"/>
<feColorMatrix in="SourceAlpha" type="matrix" values="0 0 0 0 0 0 0 0 0 0 0 0 0 0 0 0 0 0 127 0"/>
<feOffset dx="1" dy="1"/>
<feColorMatrix type="matrix" values="0 0 0 0 0.908333 0 0 0 0 0.908333 0 0 0 0 0.908333 0 0 0 1 0"/>
<feBlend mode="normal" in2="BackgroundImageFix" result="effect1_dropShadow"/>
<feBlend mode="normal" in="SourceGraphic" in2="effect1_dropShadow" result="shape"/>
<feColorMatrix in="SourceAlpha" type="matrix" values="0 0 0 0 0 0 0 0 0 0 0 0 0 0 0 0 0 0 127 0" result="hardAlpha"/>
<feOffset dx="1" dy="1"/>
<feComposite in2="hardAlpha" operator="arithmetic" k2="-1" k3="1"/>
<feColorMatrix type="matrix" values="0 0 0 0 0.108333 0 0 0 0 0.108333 0 0 0 0 0.108333 0 0 0 1 0"/>
<feBlend mode="normal" in2="shape" result="effect2_innerShadow"/>
</filter>
<linearGradient id="paint0_linear" x1="72.0059" y1="39.6068" x2="72.0059" y2="0.391623" gradientUnits="userSpaceOnUse">
<stop stop-color="#CDCDCD"/>
<stop offset="0.161458" stop-color="#9A9A9A"/>
<stop offset="0.239583" stop-color="#CCCCCC"/>
<stop offset="0.421875" stop-color="#D6D6D6"/>
<stop offset="0.5" stop-color="#C9C9C9"/>
<stop offset="0.598958" stop-color="#9E9E9E"/>
<stop offset="0.776042" stop-color="#C5C5C5"/>
<stop offset="0.85" stop-color="#B3B3B3"/>
<stop offset="1" stop-color="#DEDEDE"/>
</linearGradient>
</defs>
</svg>
