<svg width="84" height="84" viewBox="0 0 84 84" fill="none" xmlns="http://www.w3.org/2000/svg">
<path fill-rule="evenodd" clip-rule="evenodd" d="M41.9971 0C44.7374 0.0117359 46.9907 2.64645 49.6724 3.18044C52.354 3.71443 55.5462 2.15941 58.0694 3.19804C60.5927 4.26015 61.6724 7.55795 63.9433 9.07188C66.2142 10.5917 69.7584 10.3804 71.6949 12.2993C73.6254 14.2474 73.3555 17.7037 74.8694 19.9746C76.3892 22.2455 79.7399 23.4073 80.7961 25.9247C81.8347 28.4597 80.2621 31.5521 80.7961 34.2337C81.3301 36.9154 83.9824 39.2685 83.9941 41.9971C83.9824 44.7374 81.3477 46.9907 80.8137 49.6724C80.2797 52.354 81.8289 55.5462 80.7961 58.0694C79.7399 60.5927 76.4362 61.6724 74.9223 63.9433C73.4025 66.2142 73.6137 69.7584 71.6949 71.6949C69.7467 73.6254 66.2905 73.3555 64.0196 74.8694C61.7487 76.3892 60.5868 79.7399 58.0694 80.7961C55.5345 81.8347 52.4421 80.2621 49.7604 80.7902C47.0846 81.3242 44.7257 83.9765 41.9912 83.9883C39.2509 83.9765 36.9976 81.3418 34.3159 80.8078C31.6401 80.2738 28.4421 81.823 25.9188 80.7902C23.3956 79.7281 22.3159 76.4303 20.045 74.9164C17.7741 73.3966 14.2298 73.6078 12.2934 71.689C10.3628 69.7467 10.6328 66.2846 9.11883 64.0137C7.59902 61.7428 4.24841 60.5809 3.19218 58.0636C2.15355 55.5286 3.72616 52.4362 3.19218 49.7545C2.66406 47.0846 0.0117359 44.7315 0 41.9971C0.0117359 39.2567 2.64646 37.0034 3.18044 34.3218C3.71443 31.6401 2.16528 28.4479 3.19804 25.9188C4.25428 23.3956 7.55795 22.3159 9.07188 20.045C10.5917 17.7741 10.3804 14.2298 12.2993 12.2934C14.2474 10.3628 17.7037 10.6328 19.9746 9.11883C22.2455 7.59902 23.4073 4.24841 25.9247 3.19218C28.4597 2.15355 31.5521 3.72616 34.2337 3.19218C36.9095 2.66406 39.2685 0.0117359 41.9971 0Z" fill="url(#paint0_linear)"/>
<path fill-rule="evenodd" clip-rule="evenodd" d="M42.0029 79.0064C62.3883 79.0064 79.0122 62.3824 79.0122 41.9971C79.0122 21.6118 62.3883 4.98779 42.0029 4.98779C21.6176 4.98779 4.99365 21.6176 4.99365 41.9971C4.99365 62.3824 21.6176 79.0064 42.0029 79.0064Z" stroke="#5C3F2D" stroke-width="0.8504" stroke-miterlimit="2.6131"/>
<path fill-rule="evenodd" clip-rule="evenodd" d="M30.4674 25.5167C27.2439 28.4881 25.5644 29.8547 23.5599 35.956C18.982 38.6276 16.8872 43.1507 16.1106 48C15.3883 45.7693 15 43.3623 15 40.823C15 36.1147 16.3364 31.5652 18.6569 27.5446C23.578 25.3669 25.2755 24.829 30.4674 25.5167ZM32.8602 24.1942C36.3998 21.2582 40.2102 19.3449 43.6775 19.4154C41.077 21.3111 38.2959 23.2949 36.2011 25.6314C35.2259 24.5998 33.4562 24.0267 32.8602 24.1942ZM25.438 36.0001C26.9279 35.2066 29.2755 34.4131 30.6299 34.563C32.0747 30.4983 33.6638 27.9414 35.4517 26.7423C34.332 25.6314 32.7157 25.6755 31.7315 25.6755C30.1424 25.984 23.2168 35.3477 25.438 36.0001ZM40.6165 13.1818C32.2372 14.1252 24.7969 18.904 20.1468 25.5079C22.6931 24.9789 25.9978 21.6108 31.6864 23.9473C31.9573 23.8063 31.6864 23.868 32.0024 23.7886C35.1266 19.7152 40.5443 19.2743 42.5759 18.3486C44.9958 17.7402 43.533 14.3016 43.8219 13.5698C44.7791 12.7586 40.8422 12.9967 40.6165 13.1818Z" fill="url(#paint1_linear)"/>
<path d="M34.3262 28.5254C35.0846 28.5254 35.695 28.8021 36.1572 29.3555C36.6227 29.9056 36.8555 30.6152 36.8555 31.4844C36.8555 32.3307 36.6243 33.0257 36.1621 33.5693C35.6999 34.113 35.0879 34.3848 34.3262 34.3848V35.293H32.9492V34.3848C32.4316 34.3848 31.9824 34.2643 31.6016 34.0234C31.224 33.7793 30.9294 33.4375 30.7178 32.998C30.5062 32.5553 30.4004 32.054 30.4004 31.4941C30.4004 30.625 30.6331 29.9137 31.0986 29.3604C31.5641 28.8037 32.181 28.5254 32.9492 28.5254V27.5977H34.3262V28.5254ZM32.876 29.751C32.5277 29.751 32.2526 29.9056 32.0508 30.2148C31.8522 30.5241 31.7529 30.9505 31.7529 31.4941C31.7529 32.002 31.8522 32.4056 32.0508 32.7051C32.2526 33.0046 32.5309 33.1543 32.8857 33.1543H32.9492V29.751H32.876ZM34.3262 29.751V33.1543H34.3994C34.738 33.1543 35.0065 33.0046 35.2051 32.7051C35.4036 32.4023 35.5029 31.9954 35.5029 31.4844C35.5029 30.9473 35.4036 30.5241 35.2051 30.2148C35.0098 29.9056 34.7363 29.751 34.3848 29.751H34.3262ZM42.8125 32.085C42.8125 33.0387 42.5863 33.7793 42.1338 34.3066C41.6846 34.834 41.0596 35.0977 40.2588 35.0977C39.4613 35.0977 38.8346 34.8372 38.3789 34.3164C37.9232 33.7923 37.6921 33.0599 37.6855 32.1191V30.9033C37.6855 29.9268 37.9118 29.165 38.3643 28.6182C38.8167 28.068 39.445 27.793 40.249 27.793C41.04 27.793 41.6634 28.0632 42.1191 28.6035C42.5749 29.1406 42.806 29.8958 42.8125 30.8691V32.085ZM41.3721 30.8936C41.3721 30.2523 41.2809 29.7754 41.0986 29.4629C40.9163 29.1504 40.6331 28.9941 40.249 28.9941C39.8682 28.9941 39.5866 29.1455 39.4043 29.4482C39.222 29.7477 39.1276 30.2051 39.1211 30.8203V32.085C39.1211 32.7067 39.2139 33.1657 39.3994 33.4619C39.585 33.7549 39.8714 33.9014 40.2588 33.9014C40.6331 33.9014 40.9115 33.7581 41.0938 33.4717C41.276 33.182 41.3688 32.7344 41.3721 32.1289V30.8936ZM48.0273 29.0869H46.2695V35H44.8291V29.0869H43.1006V27.8906H48.0273V29.0869ZM53.7207 32.085C53.7207 33.0387 53.4945 33.7793 53.042 34.3066C52.5928 34.834 51.9678 35.0977 51.167 35.0977C50.3695 35.0977 49.7428 34.8372 49.2871 34.3164C48.8314 33.7923 48.6003 33.0599 48.5938 32.1191V30.9033C48.5938 29.9268 48.82 29.165 49.2725 28.6182C49.7249 28.068 50.3532 27.793 51.1572 27.793C51.9482 27.793 52.5716 28.0632 53.0273 28.6035C53.4831 29.1406 53.7142 29.8958 53.7207 30.8691V32.085ZM52.2803 30.8936C52.2803 30.2523 52.1891 29.7754 52.0068 29.4629C51.8245 29.1504 51.5413 28.9941 51.1572 28.9941C50.7764 28.9941 50.4948 29.1455 50.3125 29.4482C50.1302 29.7477 50.0358 30.2051 50.0293 30.8203V32.085C50.0293 32.7067 50.1221 33.1657 50.3076 33.4619C50.4932 33.7549 50.7796 33.9014 51.167 33.9014C51.5413 33.9014 51.8197 33.7581 52.002 33.4717C52.1842 33.182 52.277 32.7344 52.2803 32.1289V30.8936Z" fill="#5C3F2D"/>
<g filter="url(#filter0_di)">
<path d="M25.3809 53.6147L25.249 49.0444H26.0107C26.2695 48.8687 26.5015 48.6147 26.7065 48.2827C26.9116 47.9507 27.0801 47.499 27.2119 46.9277C27.3486 46.3564 27.4365 45.624 27.4756 44.7305L27.688 42.0571L26.6992 41.8447V40.3359H36.1694V41.8447L35.0708 42.0791V49.0444H36.2061L35.9717 53.6294H33.6353V51H27.8052V53.6147H25.3809ZM28.9478 49.0444H32.5V42.2988H30.2295L30.0537 44.7305C30.0098 45.7607 29.8926 46.6128 29.7021 47.2866C29.5117 47.9604 29.2603 48.5464 28.9478 49.0444ZM36.8506 51V49.4985L37.9565 49.2642V42.0791L36.8506 41.8447V40.3359H41.6333V41.8447L40.5273 42.0791V44.7744H44.4092V42.0791L43.3032 41.8447V40.3359H48.0786V41.8447L46.9727 42.0791V49.2642L48.0786 49.4985V51H43.3032V49.4985L44.4092 49.2642V46.7446H40.5273V49.2642L41.6333 49.4985V51H36.8506ZM58.2739 49.4985V51H53.4985V49.4985L54.6118 49.2788V47.0962H53.6743L53.0518 49.0151C52.7734 49.6646 52.417 50.1699 51.9824 50.5312C51.5479 50.8926 51.0181 51.0732 50.3931 51.0732C50.1196 51.0732 49.8511 51.0391 49.5874 50.9707C49.3286 50.8975 49.1016 50.7998 48.9062 50.6777L49.2285 48.7002C49.4189 48.7637 49.5996 48.7954 49.7705 48.7954C49.9854 48.7954 50.188 48.7344 50.3784 48.6123C50.5688 48.4902 50.7764 48.2339 51.001 47.8433L51.4038 46.6274L51.4185 46.5981C50.6958 46.3003 50.1611 45.9194 49.8145 45.4556C49.4678 44.9917 49.2944 44.3911 49.2944 43.6538C49.2944 42.5747 49.6484 41.752 50.3564 41.1855C51.0645 40.6191 52.0483 40.3359 53.3081 40.3359H58.2739V41.8447L57.1753 42.0791V49.2642L58.2739 49.4985ZM53.3081 42.2988C52.3413 42.2988 51.8579 42.7993 51.8579 43.8003C51.8579 44.7866 52.3413 45.2798 53.3081 45.2798H54.6118V42.2988H53.3081Z" fill="#5C3F2D"/>
</g>
<path fill-rule="evenodd" clip-rule="evenodd" d="M41.6228 65L42.4836 66.5656L44.2457 66.9065L43.0209 68.2121L43.2404 69.9915L41.6228 69.2347L39.9994 69.9915L40.2248 68.2179L39 66.9065L40.7563 66.5714L41.6228 65Z" fill="#5C3F2D"/>
<path fill-rule="evenodd" clip-rule="evenodd" d="M41.6228 14L42.4836 15.5656L44.2457 15.9065L43.0209 17.2121L43.2404 18.9915L41.6228 18.2347L39.9994 18.9915L40.2248 17.2179L39 15.9065L40.7563 15.5714L41.6228 14Z" fill="#5C3F2D"/>
<defs>
<filter id="filter0_di" x="25.249" y="40.3359" width="34.0249" height="14.2935" filterUnits="userSpaceOnUse" color-interpolation-filters="sRGB">
<feFlood flood-opacity="0" result="BackgroundImageFix"/>
<feColorMatrix in="SourceAlpha" type="matrix" values="0 0 0 0 0 0 0 0 0 0 0 0 0 0 0 0 0 0 127 0"/>
<feOffset dx="1" dy="1"/>
<feColorMatrix type="matrix" values="0 0 0 0 0.920278 0 0 0 0 0.834256 0 0 0 0 0.613056 0 0 0 1 0"/>
<feBlend mode="normal" in2="BackgroundImageFix" result="effect1_dropShadow"/>
<feBlend mode="normal" in="SourceGraphic" in2="effect1_dropShadow" result="shape"/>
<feColorMatrix in="SourceAlpha" type="matrix" values="0 0 0 0 0 0 0 0 0 0 0 0 0 0 0 0 0 0 127 0" result="hardAlpha"/>
<feOffset dx="1" dy="1"/>
<feComposite in2="hardAlpha" operator="arithmetic" k2="-1" k3="1"/>
<feColorMatrix type="matrix" values="0 0 0 0 0.244531 0 0 0 0 0.171531 0 0 0 0 0.130469 0 0 0 1 0"/>
<feBlend mode="normal" in2="shape" result="effect2_innerShadow"/>
</filter>
<linearGradient id="paint0_linear" x1="40.6959" y1="79.3359" x2="43.3035" y2="4.66427" gradientUnits="userSpaceOnUse">
<stop stop-color="#DBA73E"/>
<stop offset="0.16" stop-color="#D89D3A"/>
<stop offset="0.3" stop-color="#A46B28"/>
<stop offset="0.49" stop-color="#8E5723"/>
<stop offset="0.54" stop-color="#F4F3B8"/>
<stop offset="0.56" stop-color="#F7ED9A"/>
<stop offset="0.69" stop-color="#D5B767"/>
<stop offset="0.75" stop-color="#A76F29"/>
<stop offset="0.85" stop-color="#D0AB5B"/>
<stop offset="1" stop-color="#E0C77D"/>
</linearGradient>
<linearGradient id="paint1_linear" x1="19.9" y1="41.0914" x2="46" y2="-1.68402" gradientUnits="userSpaceOnUse">
<stop stop-color="#F1ECD7"/>
<stop offset="0.21" stop-color="#F4F0E0"/>
<stop offset="1" stop-color="white"/>
</linearGradient>
</defs>
</svg>
