<svg width="102" height="40" viewBox="0 0 102 40" fill="none" xmlns="http://www.w3.org/2000/svg">
<rect width="102" height="40" rx="10" fill="url(#paint0_linear)"/>
<g filter="url(#filter0_di)">
<path d="M19.5347 25.5713V24.4033L20.4932 24.2065V23.7876H20.4487C19.6701 23.7876 18.9845 23.6543 18.3921 23.3877C17.8039 23.1211 17.3447 22.7381 17.0146 22.2388C16.6846 21.7394 16.5195 21.1427 16.5195 20.4487C16.5195 19.742 16.6846 19.1305 17.0146 18.6143C17.349 18.098 17.8102 17.6981 18.3984 17.4146C18.9867 17.131 19.6701 16.9893 20.4487 16.9893H20.4932V16.5513L19.5347 16.3545V15.1865H23.6733V16.3545L22.7148 16.5513V16.9893H22.7339C23.5125 16.9893 24.196 17.131 24.7842 17.4146C25.3724 17.6938 25.8315 18.0916 26.1616 18.6079C26.4959 19.12 26.6631 19.7293 26.6631 20.436C26.6631 21.13 26.4959 21.7288 26.1616 22.2324C25.8315 22.7318 25.3703 23.1169 24.7778 23.3877C24.1896 23.6543 23.5083 23.7876 22.7339 23.7876H22.7148V24.2065L23.6733 24.4033V25.5713H19.5347ZM22.7148 22.3276H22.7466C23.2629 22.3276 23.6818 22.1732 24.0034 21.8643C24.3293 21.5511 24.4922 21.075 24.4922 20.436C24.4922 19.7674 24.3293 19.2702 24.0034 18.9443C23.6818 18.6143 23.2629 18.4492 22.7466 18.4492L22.7148 18.4746V22.3276ZM20.4487 22.3276H20.4932V18.4746H20.4487C19.9367 18.4746 19.5156 18.6396 19.1855 18.9697C18.8597 19.2956 18.6968 19.7886 18.6968 20.4487C18.6968 21.0877 18.8597 21.5617 19.1855 21.8706C19.5156 22.1753 19.9367 22.3276 20.4487 22.3276ZM31.6079 25.1333C30.9689 25.1333 30.3807 25.0169 29.8433 24.7842C29.3101 24.5472 28.8467 24.2171 28.4531 23.7939C28.0596 23.3708 27.7549 22.8757 27.5391 22.3086C27.3275 21.7373 27.2217 21.1174 27.2217 20.4487V20.3027C27.2217 19.6383 27.3275 19.0226 27.5391 18.4556C27.7549 17.8885 28.0575 17.3934 28.4468 16.9702C28.8403 16.547 29.3037 16.217 29.8369 15.98C30.3701 15.743 30.9562 15.6245 31.5952 15.6245C32.2215 15.6245 32.8034 15.743 33.3408 15.98C33.8783 16.217 34.348 16.547 34.75 16.9702C35.1562 17.3934 35.4715 17.8885 35.6958 18.4556C35.9201 19.0226 36.0322 19.6383 36.0322 20.3027V20.4487C36.0322 21.1174 35.9201 21.7373 35.6958 22.3086C35.4715 22.8757 35.1584 23.3708 34.7563 23.7939C34.3543 24.2171 33.8846 24.5472 33.3472 24.7842C32.8097 25.0169 32.23 25.1333 31.6079 25.1333ZM31.6079 23.4448C32.3062 23.4448 32.8478 23.1719 33.2329 22.626C33.6222 22.0758 33.8169 21.3501 33.8169 20.4487V20.29C33.8169 19.4056 33.6222 18.6904 33.2329 18.1445C32.8436 17.5944 32.2977 17.3193 31.5952 17.3193C30.8547 17.3193 30.3109 17.5902 29.9639 18.1318C29.6211 18.6735 29.4497 19.3929 29.4497 20.29V20.4487C29.4497 21.3543 29.6253 22.0801 29.9766 22.626C30.3278 23.1719 30.8716 23.4448 31.6079 23.4448ZM38.146 25V23.6987L39.1108 23.4956V17.4844H37.6826L37.6255 18.481H35.9434V15.7578H44.5317V18.481H42.8306L42.7798 17.4844H41.3389V23.4956L42.3037 23.6987V25H38.146ZM49.2163 25.1333C48.5773 25.1333 47.9891 25.0169 47.4517 24.7842C46.9185 24.5472 46.4551 24.2171 46.0615 23.7939C45.668 23.3708 45.3633 22.8757 45.1475 22.3086C44.9359 21.7373 44.8301 21.1174 44.8301 20.4487V20.3027C44.8301 19.6383 44.9359 19.0226 45.1475 18.4556C45.3633 17.8885 45.6659 17.3934 46.0552 16.9702C46.4487 16.547 46.9121 16.217 47.4453 15.98C47.9785 15.743 48.5646 15.6245 49.2036 15.6245C49.8299 15.6245 50.4118 15.743 50.9492 15.98C51.4867 16.217 51.9564 16.547 52.3584 16.9702C52.7646 17.3934 53.0799 17.8885 53.3042 18.4556C53.5285 19.0226 53.6406 19.6383 53.6406 20.3027V20.4487C53.6406 21.1174 53.5285 21.7373 53.3042 22.3086C53.0799 22.8757 52.7668 23.3708 52.3647 23.7939C51.9627 24.2171 51.493 24.5472 50.9556 24.7842C50.4181 25.0169 49.8384 25.1333 49.2163 25.1333ZM49.2163 23.4448C49.9146 23.4448 50.4562 23.1719 50.8413 22.626C51.2306 22.0758 51.4253 21.3501 51.4253 20.4487V20.29C51.4253 19.4056 51.2306 18.6904 50.8413 18.1445C50.452 17.5944 49.9061 17.3193 49.2036 17.3193C48.4631 17.3193 47.9193 17.5902 47.5723 18.1318C47.2295 18.6735 47.0581 19.3929 47.0581 20.29V20.4487C47.0581 21.3543 47.2337 22.0801 47.585 22.626C47.9362 23.1719 48.48 23.4448 49.2163 23.4448ZM57.1318 27.2661L57.0176 23.3052H57.6777C57.902 23.1528 58.103 22.9328 58.2808 22.645C58.4585 22.3573 58.6045 21.9658 58.7188 21.4707C58.8372 20.9756 58.9134 20.3408 58.9473 19.5664L59.1313 17.2495L58.2744 17.0654V15.7578H66.4819V17.0654L65.5298 17.2686V23.3052H66.5137L66.3105 27.2788H64.2856V25H59.2329V27.2661H57.1318ZM60.2231 23.3052H63.3018V17.459H61.334L61.1816 19.5664C61.1436 20.4593 61.042 21.1978 60.877 21.7817C60.7119 22.3657 60.494 22.8735 60.2231 23.3052ZM67.0723 25V23.6987L68.0308 23.4956V17.2686L67.0723 17.0654V15.7578H71.2173V17.0654L70.2588 17.2686V19.6045H73.623V17.2686L72.6646 17.0654V15.7578H76.8032V17.0654L75.8447 17.2686V23.4956L76.8032 23.6987V25H72.6646V23.6987L73.623 23.4956V21.312H70.2588V23.4956L71.2173 23.6987V25H67.0723ZM85.6392 23.6987V25H81.5005V23.6987L82.4653 23.5083V21.6167H81.6528L81.1133 23.2798C80.8721 23.8426 80.5632 24.2806 80.1865 24.5938C79.8099 24.9069 79.3507 25.0635 78.8091 25.0635C78.5721 25.0635 78.3394 25.0339 78.1108 24.9746C77.8866 24.9111 77.6898 24.8265 77.5205 24.7207L77.7998 23.0068C77.9648 23.0618 78.1214 23.0894 78.2695 23.0894C78.4557 23.0894 78.6313 23.0365 78.7964 22.9307C78.9614 22.8249 79.1413 22.6027 79.3359 22.2642L79.6851 21.2104L79.6978 21.1851C79.0715 20.9269 78.6081 20.5968 78.3076 20.1948C78.0072 19.7928 77.8569 19.2723 77.8569 18.6333C77.8569 17.6981 78.1637 16.985 78.7773 16.4941C79.391 16.0033 80.2437 15.7578 81.3354 15.7578H85.6392V17.0654L84.687 17.2686V23.4956L85.6392 23.6987ZM81.3354 17.459C80.4976 17.459 80.0786 17.8927 80.0786 18.7603C80.0786 19.6151 80.4976 20.0425 81.3354 20.0425H82.4653V17.459H81.3354Z" fill="#5C3F2D"/>
</g>
<defs>
<filter id="filter0_di" x="16.5195" y="15.1865" width="70.1196" height="13.0923" filterUnits="userSpaceOnUse" color-interpolation-filters="sRGB">
<feFlood flood-opacity="0" result="background-imageImageFix"/>
<feColorMatrix in="SourceAlpha" type="matrix" values="0 0 0 0 0 0 0 0 0 0 0 0 0 0 0 0 0 0 127 0"/>
<feOffset dx="1" dy="1"/>
<feColorMatrix type="matrix" values="0 0 0 0 0.920278 0 0 0 0 0.834256 0 0 0 0 0.613056 0 0 0 1 0"/>
<feBlend mode="normal" in2="background-imageImageFix" result="effect1_dropShadow"/>
<feBlend mode="normal" in="SourceGraphic" in2="effect1_dropShadow" result="shape"/>
<feColorMatrix in="SourceAlpha" type="matrix" values="0 0 0 0 0 0 0 0 0 0 0 0 0 0 0 0 0 0 127 0" result="hardAlpha"/>
<feOffset dx="1" dy="1"/>
<feComposite in2="hardAlpha" operator="arithmetic" k2="-1" k3="1"/>
<feColorMatrix type="matrix" values="0 0 0 0 0.244531 0 0 0 0 0.171531 0 0 0 0 0.130469 0 0 0 1 0"/>
<feBlend mode="normal" in2="shape" result="effect2_innerShadow"/>
</filter>
<linearGradient id="paint0_linear" x1="51" y1="40" x2="51" y2="-7.50583e-07" gradientUnits="userSpaceOnUse">
<stop stop-color="#DBA73E"/>
<stop offset="0.0833333" stop-color="#D89D3A"/>
<stop offset="0.192708" stop-color="#AE7036"/>
<stop offset="0.369792" stop-color="#F4F3B8"/>
<stop offset="0.515625" stop-color="#F7ED9A"/>
<stop offset="0.578125" stop-color="#D5B767"/>
<stop offset="0.723958" stop-color="#C29863"/>
<stop offset="0.770833" stop-color="#E3CE7C"/>
<stop offset="0.848958" stop-color="#D0AB5B"/>
<stop offset="1" stop-color="#E0C77D"/>
</linearGradient>
</defs>
</svg>
