<svg width="23" height="23" viewBox="0 0 23 23" fill="none" xmlns="http://www.w3.org/2000/svg">
<path d="M6.57607 14.9064H5V8.09358H6.57607V14.9064Z" fill="#BCBCBC"/>
<path d="M11.0566 13.0956C11.0566 12.8554 10.9741 12.6682 10.8089 12.5341C10.6468 12.4 10.3601 12.2611 9.94886 12.1176C9.53758 11.9742 9.20135 11.8353 8.94017 11.7012C8.0906 11.2676 7.66581 10.6718 7.66581 9.91377C7.66581 9.53632 7.77088 9.2041 7.98102 8.91711C8.19417 8.62701 8.49437 8.40241 8.88163 8.24332C9.2689 8.08111 9.70419 8 10.1875 8C10.6588 8 11.0806 8.08734 11.4529 8.26203C11.8281 8.43672 12.1193 8.68627 12.3265 9.0107C12.5336 9.332 12.6372 9.70009 12.6372 10.115H11.0611C11.0611 9.83734 10.9786 9.6221 10.8134 9.46925C10.6513 9.3164 10.4307 9.23997 10.1515 9.23997C9.8693 9.23997 9.64565 9.30548 9.48054 9.4365C9.31843 9.56439 9.23738 9.72816 9.23738 9.92781C9.23738 10.1025 9.32744 10.2616 9.50756 10.4051C9.68768 10.5455 10.0044 10.6921 10.4577 10.8449C10.911 10.9947 11.2833 11.1569 11.5745 11.3316C12.2829 11.7558 12.6372 12.3407 12.6372 13.0862C12.6372 13.682 12.421 14.15 11.9887 14.49C11.5564 14.83 10.9635 15 10.21 15C9.67867 15 9.19685 14.9017 8.76455 14.7052C8.33526 14.5056 8.01104 14.2342 7.79189 13.891C7.57575 13.5448 7.46767 13.1471 7.46767 12.6979H9.05275C9.05275 13.0628 9.14281 13.3327 9.32293 13.5074C9.50606 13.6789 9.80176 13.7647 10.21 13.7647C10.4712 13.7647 10.6769 13.707 10.827 13.5916C10.9801 13.473 11.0566 13.3077 11.0566 13.0956Z" fill="#BCBCBC"/>
<path d="M19 11.6404C19 12.3048 18.8814 12.8928 18.6443 13.4044C18.4071 13.916 18.0694 14.3106 17.6311 14.5882C17.1958 14.8627 16.6989 15 16.1406 15C15.5822 15 15.0868 14.8674 14.6546 14.6023C14.2223 14.334 13.8845 13.9519 13.6414 13.4559C13.4012 12.9599 13.2751 12.3906 13.2631 11.748V11.3643C13.2631 10.6967 13.3802 10.1087 13.6143 9.60027C13.8515 9.08868 14.1892 8.69407 14.6275 8.41644C15.0688 8.13881 15.5702 8 16.1316 8C16.6869 8 17.1823 8.13725 17.6176 8.41176C18.0529 8.68627 18.3906 9.07776 18.6307 9.58623C18.8739 10.0916 18.997 10.6718 19 11.3269V11.6404ZM17.3924 11.3549C17.3924 10.678 17.2828 10.1649 17.0637 9.81551C16.8475 9.46301 16.5368 9.28676 16.1316 9.28676C15.339 9.28676 14.9202 9.90441 14.8752 11.1397L14.8707 11.6404C14.8707 12.3079 14.9773 12.8211 15.1904 13.1798C15.4036 13.5385 15.7203 13.7179 16.1406 13.7179C16.5398 13.7179 16.8475 13.5417 17.0637 13.1892C17.2798 12.8367 17.3894 12.3298 17.3924 11.6684V11.3549Z" fill="#BCBCBC"/>
<rect x="1" y="5" width="21" height="13" rx="4" stroke="#BCBCBC" stroke-width="2"/>
</svg>
