<svg width="39" height="31" viewBox="0 0 39 31" fill="none" xmlns="http://www.w3.org/2000/svg">
<path fill-rule="evenodd" clip-rule="evenodd" d="M19.0558 17.0208C17.9319 17.0208 17.0208 17.9319 17.0208 19.0559C17.0208 20.1798 17.9319 21.0909 19.0558 21.0909C20.1797 21.0909 21.0909 20.1798 21.0909 19.0559C21.0909 17.9319 20.1797 17.0208 19.0558 17.0208ZM13.6907 19.0559C13.6907 16.0928 16.0927 13.6907 19.0558 13.6907C22.0189 13.6907 24.4209 16.0928 24.4209 19.0559C24.4209 22.019 22.0189 24.421 19.0558 24.421C16.0927 24.421 13.6907 22.019 13.6907 19.0559Z" fill="white"/>
<path fill-rule="evenodd" clip-rule="evenodd" d="M19.0559 11.1006C15.8679 11.1006 13.1144 12.9759 11.8449 15.6909C11.4554 16.5239 10.4643 16.8835 9.63132 16.4939C8.79831 16.1044 8.43877 15.1134 8.82828 14.2804C10.6249 10.4381 14.5272 7.77047 19.0559 7.77047C23.5847 7.77047 27.487 10.4381 29.2836 14.2804C29.6731 15.1134 29.3136 16.1044 28.4806 16.4939C27.6476 16.8835 26.6565 16.5239 26.267 15.6909C24.9975 12.9759 22.244 11.1006 19.0559 11.1006Z" fill="white"/>
<path fill-rule="evenodd" clip-rule="evenodd" d="M0.176148 10.1711C0.587395 9.34858 1.58754 9.0152 2.41003 9.42645L6.11013 11.2765C6.93262 11.6877 7.266 12.6879 6.85475 13.5104C6.44351 14.3329 5.44336 14.6663 4.62087 14.255L0.920777 12.405C0.0982823 11.9937 -0.235099 10.9936 0.176148 10.1711Z" fill="white"/>
<path fill-rule="evenodd" clip-rule="evenodd" d="M37.9354 10.541C37.5242 9.71848 36.524 9.3851 35.7015 9.79635L32.0014 11.6464C31.179 12.0576 30.8456 13.0578 31.2568 13.8803C31.6681 14.7028 32.6682 15.0362 33.4907 14.6249L37.1908 12.7749C38.0133 12.3636 38.3467 11.3635 37.9354 10.541Z" fill="white"/>
<path fill-rule="evenodd" clip-rule="evenodd" d="M10.5966 0.149651C11.4337 -0.230873 12.4208 0.139298 12.8014 0.976449L14.6514 5.04655C15.0319 5.8837 14.6618 6.87082 13.8246 7.25135C12.9875 7.63187 12.0003 7.2617 11.6198 6.42455L9.76977 2.35445C9.38924 1.5173 9.75941 0.530174 10.5966 0.149651Z" fill="white"/>
<path fill-rule="evenodd" clip-rule="evenodd" d="M27.515 0.519547C26.6779 0.139023 25.6907 0.509194 25.3102 1.34635L23.4602 5.41645C23.0796 6.2536 23.4498 7.24072 24.287 7.62124C25.1241 8.00176 26.1112 7.63159 26.4918 6.79444L28.3418 2.72434C28.7223 1.88719 28.3522 0.90007 27.515 0.519547Z" fill="white"/>
<path fill-rule="evenodd" clip-rule="evenodd" d="M5.73535 18.1307C6.65493 18.1307 7.40039 18.8762 7.40039 19.7957V23.4958C7.40039 23.994 7.7025 25.0486 8.38162 25.9918C9.05056 26.9209 9.81352 27.3809 10.5455 27.3809H19.0557C19.9753 27.3809 20.7207 28.1264 20.7207 29.046C20.7207 29.9656 19.9753 30.711 19.0557 30.711H10.5455C8.31735 30.711 6.67525 29.321 5.67915 27.9376C4.69323 26.5682 4.07031 24.8477 4.07031 23.4958V19.7957C4.07031 18.8762 4.81578 18.1307 5.73535 18.1307Z" fill="white"/>
<path fill-rule="evenodd" clip-rule="evenodd" d="M32.3762 18.1307C31.4566 18.1307 30.7112 18.8762 30.7112 19.7957V23.4958C30.7112 23.994 30.4091 25.0486 29.7299 25.9918C29.061 26.9209 28.298 27.3809 27.5661 27.3809H19.0559C18.1363 27.3809 17.3909 28.1264 17.3909 29.046C17.3909 29.9656 18.1363 30.711 19.0559 30.711H27.5661C29.7942 30.711 31.4363 29.321 32.4324 27.9376C33.4183 26.5682 34.0413 24.8477 34.0413 23.4958V19.7957C34.0413 18.8762 33.2958 18.1307 32.3762 18.1307Z" fill="white"/>
</svg>
