<svg width="19" height="7" viewBox="0 0 19 7" fill="none" xmlns="http://www.w3.org/2000/svg">
<path d="M1.70869 4.59492V6.90642H0V0.0935829H2.82834C3.37031 0.0935829 3.849 0.190285 4.26441 0.38369C4.68306 0.573975 5.00598 0.846925 5.23315 1.20254C5.46357 1.55504 5.57879 1.95588 5.57879 2.40508C5.57879 3.06952 5.33051 3.60138 4.83397 4.00067C4.34068 4.39684 3.6624 4.59492 2.79913 4.59492H1.70869ZM1.70869 3.32687H2.82834C3.15936 3.32687 3.41088 3.24733 3.58289 3.08824C3.75813 2.92914 3.84576 2.70455 3.84576 2.41444C3.84576 2.09626 3.75651 1.84202 3.57802 1.65174C3.39952 1.46145 3.15612 1.36475 2.84781 1.36163H1.70869V3.32687Z" fill="white"/>
<path d="M9.12759 4.50134H8.20266V6.90642H6.49398V0.0935829H9.28337C10.1239 0.0935829 10.7811 0.27295 11.2549 0.631684C11.7288 0.990419 11.9657 1.49733 11.9657 2.15241C11.9657 2.62656 11.8651 3.01961 11.6638 3.33155C11.4659 3.64349 11.1543 3.89617 10.7292 4.08957L12.2091 6.83623V6.90642H10.3787L9.12759 4.50134ZM8.20266 3.23329H9.28337C9.60791 3.23329 9.85131 3.15218 10.0136 2.98997C10.1791 2.82464 10.2618 2.59537 10.2618 2.30214C10.2618 2.00891 10.1791 1.77963 10.0136 1.6143C9.84807 1.44586 9.60466 1.36163 9.28337 1.36163H8.20266V3.23329Z" fill="white"/>
<path d="M19 3.64037C19 4.30481 18.8718 4.89283 18.6154 5.40441C18.359 5.916 17.9939 6.31061 17.5201 6.58824C17.0495 6.86275 16.5124 7 15.9088 7C15.3052 7 14.7697 6.86742 14.3023 6.60227C13.835 6.334 13.4699 5.95187 13.207 5.45588C12.9474 4.95989 12.8111 4.3906 12.7981 3.74799V3.3643C12.7981 2.69675 12.9247 2.10873 13.1778 1.60027C13.4342 1.08868 13.7993 0.694073 14.2731 0.416444C14.7502 0.138815 15.2922 0 15.8991 0C16.4994 0 17.0349 0.137255 17.5055 0.411765C17.9761 0.686275 18.3412 1.07776 18.6008 1.58623C18.8637 2.09158 18.9968 2.67179 19 3.32687V3.64037ZM17.2621 3.35495C17.2621 2.67803 17.1437 2.16488 16.9067 1.81551C16.6731 1.46301 16.3372 1.28676 15.8991 1.28676C15.0423 1.28676 14.5895 1.90441 14.5409 3.13971L14.536 3.64037C14.536 4.30793 14.6512 4.82108 14.8816 5.17981C15.1121 5.53855 15.4544 5.71791 15.9088 5.71791C16.3404 5.71791 16.6731 5.54167 16.9067 5.18917C17.1404 4.83668 17.2589 4.32977 17.2621 3.66845V3.35495Z" fill="white"/>
</svg>
