<svg width="23" height="23" viewBox="0 0 23 23" fill="none" xmlns="http://www.w3.org/2000/svg">
<path d="M18.9355 8.26562L19.9688 7.27734C20.1934 7.05273 20.1934 6.73828 19.9688 6.51367L19.2051 5.75C18.9805 5.52539 18.666 5.52539 18.4414 5.75L17.498 6.69336C16.1055 5.43555 14.3535 4.62695 12.4219 4.40234V2.15625H13.6797C13.9492 2.15625 14.2188 1.93164 14.2188 1.61719V0.539062C14.2188 0.269531 13.9492 0 13.6797 0H9.00781C8.69336 0 8.46875 0.269531 8.46875 0.539062V1.61719C8.46875 1.93164 8.69336 2.15625 9.00781 2.15625H10.2656V4.40234C5.59375 4.94141 2 8.89453 2 13.6562C2 18.8223 6.17773 23 11.3438 23C16.4648 23 20.6875 18.8223 20.6875 13.6562C20.6875 11.6797 20.0137 9.79297 18.9355 8.26562ZM11.3438 20.8438C7.3457 20.8438 4.15625 17.6543 4.15625 13.6562C4.15625 9.70312 7.3457 6.46875 11.3438 6.46875C15.2969 6.46875 18.5312 9.70312 18.5312 13.6562C18.5312 17.6543 15.2969 20.8438 11.3438 20.8438ZM11.8828 15.8125C12.1523 15.8125 12.4219 15.5879 12.4219 15.2734V9.16406C12.4219 8.89453 12.1523 8.625 11.8828 8.625H10.8047C10.4902 8.625 10.2656 8.89453 10.2656 9.16406V15.2734C10.2656 15.5879 10.4902 15.8125 10.8047 15.8125H11.8828Z" fill="#BCBCBC"/>
</svg>
