<svg width="52" height="42" viewBox="0 0 52 42" fill="none" xmlns="http://www.w3.org/2000/svg">
<path fill-rule="evenodd" clip-rule="evenodd" d="M26 23.25C24.4812 23.25 23.25 24.4812 23.25 26C23.25 27.5188 24.4812 28.75 26 28.75C27.5188 28.75 28.75 27.5188 28.75 26C28.75 24.4812 27.5188 23.25 26 23.25ZM18.75 26C18.75 21.9959 21.9959 18.75 26 18.75C30.0041 18.75 33.25 21.9959 33.25 26C33.25 30.0041 30.0041 33.25 26 33.25C21.9959 33.25 18.75 30.0041 18.75 26Z" fill="white"/>
<path fill-rule="evenodd" clip-rule="evenodd" d="M26.0001 15.25C21.692 15.25 17.9712 17.7842 16.2556 21.453C15.7293 22.5787 14.3901 23.0645 13.2644 22.5382C12.1388 22.0118 11.6529 20.6726 12.1793 19.547C14.6071 14.3548 19.8803 10.75 26.0001 10.75C32.1199 10.75 37.3931 14.3548 39.8209 19.547C40.3473 20.6726 39.8614 22.0118 38.7358 22.5382C37.6101 23.0645 36.2709 22.5787 35.7445 21.453C34.029 17.7842 30.3082 15.25 26.0001 15.25Z" fill="white"/>
<path fill-rule="evenodd" clip-rule="evenodd" d="M0.487543 13.9938C1.04327 12.8823 2.39478 12.4318 3.50624 12.9875L8.50624 15.4875C9.61769 16.0433 10.0682 17.3948 9.51247 18.5062C8.95674 19.6177 7.60523 20.0682 6.49377 19.5125L1.49377 17.0125C0.382322 16.4567 -0.0681824 15.1052 0.487543 13.9938Z" fill="white"/>
<path fill-rule="evenodd" clip-rule="evenodd" d="M51.5125 14.4938C50.9567 13.3823 49.6052 12.9318 48.4938 13.4875L43.4938 15.9875C42.3823 16.5433 41.9318 17.8948 42.4875 19.0062C43.0433 20.1177 44.3948 20.5682 45.5062 20.0125L50.5062 17.5125C51.6177 16.9567 52.0682 15.6052 51.5125 14.4938Z" fill="white"/>
<path fill-rule="evenodd" clip-rule="evenodd" d="M14.569 0.451677C15.7003 -0.0625316 17.0342 0.437686 17.5484 1.56894L20.0484 7.06894C20.5626 8.2002 20.0624 9.53412 18.9311 10.0483C17.7999 10.5625 16.4659 10.0623 15.9517 8.93106L13.4517 3.43106C12.9375 2.2998 13.4377 0.965885 14.569 0.451677Z" fill="white"/>
<path fill-rule="evenodd" clip-rule="evenodd" d="M37.4311 0.951677C36.2999 0.437468 34.9659 0.937686 34.4517 2.06894L31.9517 7.56894C31.4375 8.7002 31.9377 10.0341 33.069 10.5483C34.2003 11.0625 35.5342 10.5623 36.0484 9.43106L38.5484 3.93106C39.0626 2.7998 38.5624 1.46589 37.4311 0.951677Z" fill="white"/>
<path fill-rule="evenodd" clip-rule="evenodd" d="M8 24.75C9.24264 24.75 10.25 25.7574 10.25 27V32C10.25 32.6732 10.6582 34.0982 11.576 35.3728C12.4799 36.6283 13.5109 37.25 14.5 37.25H26C27.2426 37.25 28.25 38.2574 28.25 39.5C28.25 40.7426 27.2426 41.75 26 41.75H14.5C11.4891 41.75 9.2701 39.8717 7.92405 38.0022C6.59176 36.1518 5.75 33.8268 5.75 32V27C5.75 25.7574 6.75736 24.75 8 24.75Z" fill="white"/>
<path fill-rule="evenodd" clip-rule="evenodd" d="M44 24.75C42.7574 24.75 41.75 25.7574 41.75 27V32C41.75 32.6732 41.3418 34.0982 40.424 35.3728C39.5201 36.6283 38.4891 37.25 37.5 37.25H26C24.7574 37.25 23.75 38.2574 23.75 39.5C23.75 40.7426 24.7574 41.75 26 41.75H37.5C40.5109 41.75 42.7299 39.8717 44.076 38.0022C45.4082 36.1518 46.25 33.8268 46.25 32V27C46.25 25.7574 45.2426 24.75 44 24.75Z" fill="white"/>
</svg>
