<svg width="107" height="58" viewBox="0 0 107 58" fill="none" xmlns="http://www.w3.org/2000/svg">
<path d="M6.48 0.999996H26.08C27.3067 0.999996 28.08 1.24 28.4 1.72C28.72 2.14666 28.88 2.84 28.88 3.8V7.8C28.88 8.76 28.7733 9.4 28.56 9.72C28.1333 10.3067 27.3067 10.6 26.08 10.6H15.68C15.1467 10.6 14.88 10.8667 14.88 11.4V17.08C14.88 17.7733 15.2 18.12 15.84 18.12L17.52 17.88C17.8933 17.7733 18.2933 17.72 18.72 17.72C19.2 17.72 19.5733 17.72 19.84 17.72C23.7867 17.72 26.8267 19.08 28.96 21.8C31.1467 24.52 32.24 28.2267 32.24 32.92V41C32.24 46.6533 30.8 50.84 27.92 53.56C25.0933 56.28 21.0933 57.64 15.92 57.64C9.52 57.64 5.06667 55.5333 2.56 51.32C1.12 48.8667 0.4 45.8533 0.4 42.28V40.44C0.4 39.48 0.506667 38.84 0.72 38.52C1.14667 37.9333 1.97333 37.64 3.2 37.64H8.8C10.0267 37.64 10.8 37.88 11.12 38.36C11.44 38.7867 11.6 39.48 11.6 40.44V42.84C11.6 44.6 11.8933 45.9067 12.48 46.76C13.12 47.6133 14.2133 48.04 15.76 48.04C17.2 48.04 18.32 47.5333 19.12 46.52C19.9733 45.4533 20.4 43.7467 20.4 41.4V34.92C20.4 32.0933 19.7333 29.9867 18.4 28.6C17.3333 27.48 16 26.92 14.4 26.92C13.3867 26.92 11.7067 27.1867 9.36 27.72C7.97333 28.04 6.8 28.2 5.84 28.2C4.93333 28.2 4.34667 27.9333 4.08 27.4C3.81333 26.8667 3.68 26.3067 3.68 25.72V3.8C3.68 2.84 3.78667 2.2 4 1.88C4.42667 1.29333 5.25333 0.999996 6.48 0.999996ZM37.3606 40.76V17.24C37.3606 11.8533 38.934 7.64 42.0806 4.6C45.014 1.77333 48.7206 0.36 53.2006 0.36C57.734 0.36 61.4406 1.74667 64.3206 4.52C67.4673 7.56 69.0406 11.8 69.0406 17.24V40.76C69.0406 46.1467 67.4673 50.36 64.3206 53.4C61.3873 56.2267 57.6806 57.64 53.2006 57.64C48.6673 57.64 44.9606 56.2533 42.0806 53.48C38.934 50.44 37.3606 46.2 37.3606 40.76ZM49.2006 15.64V42.36C49.2006 44.2267 49.6006 45.5867 50.4006 46.44C51.2006 47.2933 52.134 47.72 53.2006 47.72C54.854 47.72 56.0006 46.9733 56.6406 45.48C57.014 44.6267 57.2006 43.5867 57.2006 42.36V15.64C57.2006 14.2533 57.014 13.16 56.6406 12.36C56.0006 10.9733 54.854 10.28 53.2006 10.28C52.0806 10.28 51.2006 10.6 50.5606 11.24C49.654 12.1467 49.2006 13.6133 49.2006 15.64ZM74.47 40.76V17.24C74.47 11.8533 76.0433 7.64 79.19 4.6C82.1233 1.77333 85.83 0.36 90.31 0.36C94.8433 0.36 98.55 1.74667 101.43 4.52C104.577 7.56 106.15 11.8 106.15 17.24V40.76C106.15 46.1467 104.577 50.36 101.43 53.4C98.4967 56.2267 94.79 57.64 90.31 57.64C85.7767 57.64 82.07 56.2533 79.19 53.48C76.0433 50.44 74.47 46.2 74.47 40.76ZM86.31 15.64V42.36C86.31 44.2267 86.71 45.5867 87.51 46.44C88.31 47.2933 89.2433 47.72 90.31 47.72C91.9633 47.72 93.11 46.9733 93.75 45.48C94.1233 44.6267 94.31 43.5867 94.31 42.36V15.64C94.31 14.2533 94.1233 13.16 93.75 12.36C93.11 10.9733 91.9633 10.28 90.31 10.28C89.19 10.28 88.31 10.6 87.67 11.24C86.7633 12.1467 86.31 13.6133 86.31 15.64Z" fill="black"/>
</svg>
