<svg width="84" height="84" viewBox="0 0 84 84" fill="none" xmlns="http://www.w3.org/2000/svg">
<g clip-path="url(#clip0)">
<path fill-rule="evenodd" clip-rule="evenodd" d="M15.9225 66.0384C22.5432 73.2194 31.4805 77.0381 40.5622 77.4078C49.6439 77.7776 58.8642 74.6983 66.0395 68.0777C73.2205 61.4571 77.0392 52.5198 77.4089 43.4381C77.7787 34.3564 74.6994 25.136 68.0788 17.9608C61.4582 10.7798 52.5209 6.96106 43.4392 6.59132C34.3575 6.22158 25.1429 9.30081 17.9619 15.9214C10.7809 22.5363 6.96216 31.4793 6.59242 40.5553C6.22268 49.637 9.30191 58.8573 15.9225 66.0384ZM40.2906 83.9649C29.5336 83.5258 18.944 78.9965 11.0928 70.4868C3.24744 61.9712 -0.403732 51.0466 0.0353324 40.2895C0.474397 29.5324 5.0037 18.9371 13.5135 11.0917C22.0232 3.24634 32.9536 -0.404831 43.7107 0.0342337C54.4678 0.473298 65.0631 5.0026 72.9085 13.5124C80.7539 22.0221 84.4051 32.9525 83.966 43.7096C83.527 54.4667 78.9977 65.062 70.4879 72.9074C61.9723 80.747 51.0477 84.3982 40.2906 83.9649Z" fill="url(#paint0_linear)"/>
<path fill-rule="evenodd" clip-rule="evenodd" d="M44.9936 82.9602C45.0051 83.1162 44.8838 83.2491 44.7278 83.2607C44.5718 83.2722 44.439 83.1509 44.4274 82.9949L44.3234 81.3773C44.5141 81.3657 44.7047 81.3542 44.8896 81.3426L44.9936 82.9602ZM42.2841 81.4408V83.0642C42.2841 83.2202 42.157 83.3473 42.001 83.3473C41.845 83.3473 41.7179 83.2202 41.7179 83.0642V81.4408C41.8103 81.4408 41.9086 81.4466 42.001 81.4466C42.0934 81.4466 42.1916 81.4408 42.2841 81.4408ZM39.7652 81.3773L39.6612 82.9949C39.6497 83.1509 39.5168 83.2722 39.3608 83.2607C39.2048 83.2491 39.0835 83.1162 39.0951 82.9602L39.1991 81.3426C39.3897 81.3542 39.5804 81.3715 39.7652 81.3773ZM37.0904 81.1404L36.8766 82.7465C36.8535 82.9025 36.7149 83.0122 36.5589 82.9891C36.4029 82.9718 36.2931 82.8274 36.3163 82.6714L36.53 81.0653C36.7149 81.0884 36.9055 81.1173 37.0904 81.1404ZM34.6062 80.7476L34.2943 82.3305C34.2654 82.4865 34.1152 82.5847 33.9592 82.5558C33.8032 82.527 33.705 82.3768 33.7339 82.2208L34.0458 80.6378C34.2307 80.6783 34.4156 80.7129 34.6062 80.7476ZM32.0643 80.1814L31.6483 81.7355C31.6079 81.8857 31.4519 81.9781 31.3017 81.9377C31.1515 81.8972 31.059 81.7413 31.0995 81.591L31.5154 80.0312C31.7003 80.0832 31.8794 80.1352 32.0643 80.1814ZM29.6494 79.4708L29.1352 80.996C29.0832 81.1462 28.9273 81.2213 28.7771 81.1751C28.6268 81.1231 28.546 80.9671 28.598 80.8169L29.1121 79.286C29.2912 79.3495 29.4703 79.4073 29.6494 79.4708ZM27.1248 78.5407L26.5066 80.0312C26.4489 80.1756 26.2813 80.245 26.1369 80.1872C25.9925 80.1294 25.9231 79.9619 25.9809 79.8175L26.5991 78.327C26.7724 78.3963 26.9515 78.4714 27.1248 78.5407ZM24.8255 77.5182L24.1149 78.9624C24.0456 79.1011 23.8722 79.1589 23.7336 79.0895C23.5949 79.0202 23.5372 78.8469 23.6065 78.7083L24.3229 77.2582C24.4846 77.3506 24.6522 77.4315 24.8255 77.5182ZM22.5204 76.3049L21.7116 77.703C21.6307 77.8359 21.4574 77.8879 21.3245 77.807C21.1859 77.7261 21.1396 77.5528 21.2205 77.4199L22.0293 76.0161C22.1969 76.1143 22.3586 76.2125 22.5204 76.3049ZM20.3771 74.9878L19.4816 76.3338C19.3949 76.4667 19.2158 76.5014 19.0887 76.4147C18.9559 76.3281 18.9212 76.149 19.0079 76.0219L19.9033 74.6758C20.0593 74.7798 20.2153 74.8838 20.3771 74.9878ZM18.1817 73.4395L17.1938 74.7278C17.0956 74.8491 16.9223 74.8722 16.7952 74.7798C16.6739 74.6816 16.6508 74.5083 16.7432 74.3812L17.7311 73.0986C17.8813 73.2084 18.0315 73.3239 18.1817 73.4395ZM16.2233 71.8565L15.1545 73.0755C15.0505 73.1911 14.8714 73.2026 14.7559 73.1044C14.6403 73.0004 14.6288 72.8213 14.727 72.7058L15.7958 71.4868C15.9402 71.6023 16.0788 71.7294 16.2233 71.8565ZM14.311 70.0887L13.1614 71.2384C13.0516 71.3481 12.8725 71.3481 12.757 71.2384C12.6472 71.1286 12.6472 70.9495 12.757 70.834L13.9066 69.6843C14.0453 69.823 14.1782 69.9558 14.311 70.0887ZM12.5779 68.2631L11.3589 69.3377C11.2434 69.4417 11.0643 69.4301 10.9603 69.3088C10.8563 69.1933 10.8678 69.0142 10.9834 68.9102L12.2024 67.8414C12.3237 67.9801 12.4508 68.1245 12.5779 68.2631ZM10.8563 66.2007L9.56798 67.1886C9.44088 67.2868 9.26756 67.2579 9.16935 67.1366C9.07692 67.0095 9.10003 66.8304 9.22135 66.738L10.5097 65.7501C10.6252 65.9003 10.7407 66.0563 10.8563 66.2007ZM9.37155 64.1671L8.02547 65.0684C7.8926 65.155 7.71928 65.1204 7.63263 64.9933C7.54597 64.8604 7.58063 64.6871 7.71351 64.6004L9.05959 63.6992C9.16358 63.8552 9.26756 64.0111 9.37155 64.1671ZM7.97926 61.966L6.5754 62.7748C6.44253 62.8557 6.26344 62.8037 6.18833 62.6708C6.10745 62.538 6.15945 62.3589 6.29232 62.2838L7.6904 61.475C7.78861 61.6425 7.88682 61.8043 7.97926 61.966ZM6.77183 59.7591L5.32754 60.4755C5.18888 60.5448 5.01557 60.4871 4.94624 60.3426C4.87692 60.204 4.93469 60.0307 5.07334 59.9613L6.51763 59.245C6.60429 59.4183 6.68517 59.5916 6.77183 59.7591ZM5.6395 57.3212L4.14899 57.9336C4.00457 57.9913 3.83703 57.922 3.77926 57.7776C3.72148 57.6331 3.79081 57.4656 3.93524 57.4078L5.42575 56.7897C5.50085 56.9688 5.57018 57.1479 5.6395 57.3212ZM4.73827 54.9699L3.21309 55.4898C3.06289 55.536 2.90113 55.4609 2.85491 55.3107C2.80291 55.1605 2.88379 54.9988 3.034 54.9525L4.55917 54.4326C4.61694 54.6117 4.68049 54.7908 4.73827 54.9699ZM3.9699 52.4857L2.41007 52.9016C2.25986 52.9421 2.10388 52.8497 2.06344 52.6994C2.023 52.5492 2.11543 52.3933 2.26564 52.3528L3.82547 51.9369C3.86591 52.1217 3.91791 52.3008 3.9699 52.4857ZM3.37485 50.0362L1.79191 50.3539C1.63593 50.3828 1.48572 50.2846 1.45683 50.1286C1.42795 49.9726 1.52616 49.8224 1.68214 49.7935L3.26509 49.4758C3.29975 49.6664 3.34019 49.8513 3.37485 50.0362ZM2.92423 47.3902L1.31818 47.5982C1.1622 47.6213 1.01777 47.5116 1.00044 47.3556C0.983107 47.1996 1.09287 47.0552 1.24308 47.0378L2.84913 46.8298C2.87224 47.0147 2.89535 47.1996 2.92423 47.3902ZM2.65849 44.8829L1.04088 44.9927C0.884895 45.0043 0.75202 44.8829 0.740466 44.727C0.728912 44.571 0.850232 44.4381 1.00622 44.4265L2.62382 44.3226C2.63538 44.5074 2.64693 44.6923 2.65849 44.8829ZM2.56027 42.2832H0.93689C0.780906 42.2832 0.653809 42.1561 0.653809 42.0001C0.653809 41.8442 0.780906 41.7171 0.93689 41.7171H2.56027C2.56027 41.8095 2.5545 41.9077 2.5545 42.0001C2.5545 42.0926 2.56027 42.1908 2.56027 42.2832ZM2.61805 39.7644L1.00044 39.6604C0.844455 39.6488 0.723135 39.516 0.734689 39.36C0.746243 39.204 0.879118 39.0827 1.0351 39.0942L2.65271 39.1982C2.64115 39.3889 2.6296 39.5737 2.61805 39.7644ZM2.86069 37.0895L1.25463 36.8758C1.09865 36.8585 0.988884 36.714 1.01199 36.558C1.0351 36.4021 1.17375 36.2923 1.32974 36.3154L2.93579 36.5292C2.9069 36.714 2.88379 36.8989 2.86069 37.0895ZM3.25353 34.6054L1.67059 34.2934C1.51461 34.2645 1.41639 34.1143 1.44528 33.9583C1.47417 33.8023 1.62437 33.7041 1.78036 33.733L3.3633 34.045C3.32286 34.2298 3.2882 34.4147 3.25353 34.6054ZM3.8197 32.0634L2.25986 31.6475C2.10965 31.607 2.01722 31.451 2.05766 31.3008C2.0981 31.1506 2.25408 31.0582 2.40429 31.0986L3.96412 31.5146C3.91791 31.6937 3.86591 31.8785 3.8197 32.0634ZM4.53029 29.6486L3.00512 29.1286C2.85491 29.0766 2.77403 28.9206 2.82602 28.7704C2.87802 28.6202 3.03978 28.5393 3.18421 28.5913L4.71516 29.1055C4.65161 29.2846 4.58806 29.4695 4.53029 29.6486ZM5.46041 27.1239L3.9699 26.5058C3.82547 26.448 3.75615 26.2805 3.81392 26.136C3.87169 25.9916 4.03923 25.9223 4.18366 25.9801L5.67417 26.5982C5.60484 26.7715 5.52974 26.9506 5.46041 27.1239ZM6.48297 24.8246L5.03868 24.114C4.90003 24.0447 4.84225 23.8714 4.91158 23.7327C4.98091 23.5941 5.14844 23.5363 5.29287 23.6056L6.74294 24.3162C6.65051 24.4838 6.56385 24.6513 6.48297 24.8246ZM7.69617 22.5195L6.2981 21.7107C6.16523 21.6356 6.11323 21.4565 6.19411 21.3237C6.26921 21.1908 6.44831 21.1388 6.58118 21.2197L7.98503 22.0285C7.88682 22.1902 7.78861 22.3578 7.69617 22.5195ZM9.01337 20.3704L7.66729 19.475C7.53441 19.3883 7.49975 19.215 7.58641 19.0821C7.67307 18.9492 7.84638 18.9146 7.97926 19.0012L9.32534 19.8967C9.21557 20.0585 9.11736 20.2144 9.01337 20.3704ZM10.5617 18.1809L9.27334 17.193C9.15202 17.0948 9.12891 16.9157 9.22135 16.7944C9.31956 16.673 9.49287 16.6499 9.61997 16.7424L10.9025 17.7303C10.787 17.8805 10.6772 18.0307 10.5617 18.1809ZM12.1446 16.2224L10.9256 15.1536C10.8101 15.0497 10.7985 14.8706 10.8967 14.755C11.0007 14.6395 11.1798 14.6221 11.2953 14.7261L12.5143 15.7949C12.393 15.9393 12.2659 16.078 12.1446 16.2224ZM13.9124 14.3102L12.7627 13.1605C12.653 13.0508 12.653 12.8717 12.7627 12.7561C12.8725 12.6464 13.0516 12.6464 13.1672 12.7561L14.3168 13.9058C14.1782 14.0444 14.0453 14.1773 13.9124 14.3102ZM15.7322 12.5712L14.6577 11.3523C14.5537 11.2367 14.5652 11.0519 14.6808 10.9479C14.7963 10.8439 14.9812 10.8554 15.0794 10.971L16.1482 12.19C16.0153 12.3228 15.8766 12.4499 15.7322 12.5712ZM17.7947 10.8554L16.8068 9.56712C16.7143 9.44002 16.7374 9.26671 16.8588 9.1685C16.9859 9.07606 17.1592 9.09917 17.2574 9.22049L18.2453 10.5088C18.0951 10.6243 17.9449 10.7341 17.7947 10.8554ZM19.834 9.3707L18.9328 8.02462C18.8461 7.89174 18.8808 7.71843 19.0079 7.63177C19.1407 7.54511 19.3141 7.57978 19.4007 7.71265L20.302 9.05873C20.146 9.15694 19.99 9.26093 19.834 9.3707ZM22.0293 7.9784L21.2205 6.57455C21.1454 6.44167 21.1916 6.26836 21.3245 6.18748C21.4574 6.1066 21.6307 6.15859 21.7116 6.29147L22.5204 7.68954C22.3586 7.78776 22.1969 7.88019 22.0293 7.9784ZM24.242 6.77097L23.5256 5.3209C23.4563 5.18225 23.5141 5.00894 23.6527 4.93961C23.7914 4.87029 23.9647 4.92806 24.034 5.06671L24.7504 6.511C24.5771 6.60344 24.4095 6.68432 24.242 6.77097ZM26.6799 5.63865L26.0676 4.14814C26.0098 4.00371 26.0791 3.83617 26.2235 3.7784C26.368 3.72063 26.5355 3.78996 26.5933 3.93438L27.2114 5.42489C27.0266 5.49422 26.8533 5.56932 26.6799 5.63865ZM29.0312 4.73741L28.5113 3.20646C28.4593 3.05626 28.5402 2.89449 28.6904 2.84828C28.8406 2.79628 29.0024 2.87716 29.0486 3.02737L29.5685 4.55254C29.3894 4.61609 29.2103 4.67964 29.0312 4.73741ZM31.5154 3.96327L31.0995 2.40344C31.059 2.25323 31.1515 2.09725 31.3017 2.05681C31.4519 2.01637 31.6079 2.1088 31.6483 2.25901L32.0643 3.81884C31.8794 3.86506 31.7003 3.91705 31.5154 3.96327ZM33.965 3.374L33.6472 1.79106C33.6183 1.63507 33.7165 1.48487 33.8725 1.45598C34.0285 1.42709 34.1787 1.52531 34.2076 1.68129L34.5253 3.26423C34.3347 3.2989 34.1498 3.33356 33.965 3.374ZM36.6109 2.92338L36.4029 1.31733C36.3856 1.16134 36.4953 1.01692 36.6456 0.999584C36.8015 0.982253 36.946 1.09202 36.9633 1.24223L37.1713 2.84828C36.9864 2.87139 36.8015 2.89449 36.6109 2.92338ZM39.1182 2.65763L39.0142 1.04002C39.0026 0.884041 39.124 0.751166 39.2799 0.739612C39.4359 0.728057 39.5746 0.849378 39.5804 1.00536L39.6901 2.62297C39.4937 2.63452 39.3031 2.64608 39.1182 2.65763ZM41.7179 2.55942V0.936035C41.7179 0.780052 41.845 0.652954 42.001 0.652954C42.157 0.652954 42.2841 0.780052 42.2841 0.936035V2.55942C42.1916 2.55942 42.0934 2.55942 42.001 2.55942C41.9028 2.55364 41.8103 2.55942 41.7179 2.55942ZM44.231 2.61719L44.335 0.999584C44.3465 0.843601 44.4794 0.72228 44.6354 0.733834C44.7914 0.745389 44.9127 0.878264 44.9011 1.03425L44.7971 2.65185C44.6123 2.6403 44.4216 2.62875 44.231 2.61719ZM46.9116 2.85983L47.1253 1.25378C47.1484 1.0978 47.2871 0.98803 47.4431 1.01114C47.5991 1.02847 47.7088 1.1729 47.6857 1.32888L47.472 2.93493C47.2871 2.90605 47.0965 2.88294 46.9116 2.85983ZM49.3958 3.2469L49.7077 1.66396C49.7366 1.50797 49.8868 1.40976 50.0428 1.43865C50.1988 1.46753 50.297 1.61774 50.2681 1.77372L49.9562 3.35667C49.7713 3.31623 49.5806 3.28734 49.3958 3.2469ZM51.9377 3.81884L52.3537 2.25901C52.3941 2.1088 52.5501 2.01637 52.7003 2.05681C52.8505 2.09725 52.9429 2.25323 52.9025 2.40344L52.4865 3.96327C52.3017 3.91705 52.1168 3.86506 51.9377 3.81884ZM54.3526 4.52943L54.8667 3.00426C54.9187 2.85405 55.0805 2.77317 55.2249 2.82517C55.3751 2.87716 55.456 3.03892 55.404 3.18335L54.8899 4.7143C54.7108 4.65075 54.5317 4.5872 54.3526 4.52943ZM56.8714 5.45956L57.4896 3.96905C57.5473 3.82462 57.7149 3.75529 57.8593 3.81306C58.0037 3.87084 58.0731 4.03837 58.0153 4.1828L57.3971 5.67331C57.2238 5.59821 57.0505 5.52888 56.8714 5.45956ZM59.1765 6.48212L59.8871 5.03782C59.9564 4.89917 60.1297 4.8414 60.2684 4.91073C60.407 4.98005 60.4648 5.14759 60.3955 5.29202L59.6791 6.74209C59.5174 6.64965 59.344 6.563 59.1765 6.48212ZM61.4758 7.69532L62.2846 6.29725C62.3597 6.15859 62.5388 6.11238 62.6717 6.19326C62.8046 6.26836 62.8566 6.44745 62.7757 6.58033L61.9669 7.98418C61.8051 7.88019 61.6434 7.78775 61.4758 7.69532ZM63.6249 9.00674L64.5204 7.66066C64.607 7.52778 64.7861 7.49312 64.9132 7.57978C65.0461 7.66643 65.0808 7.84553 64.9941 7.97262L64.0987 9.3187C63.9427 9.21471 63.7809 9.11073 63.6249 9.00674ZM65.8203 10.5608L66.8081 9.27249C66.9064 9.15117 67.0797 9.12806 67.2068 9.22049C67.3281 9.31293 67.3512 9.4978 67.2588 9.61912L66.2709 10.9016C66.1207 10.7861 65.9705 10.6763 65.8203 10.5608ZM67.7787 12.1437L68.8475 10.9248C68.9515 10.8092 69.1306 10.7977 69.2461 10.8959C69.3616 10.9999 69.379 11.179 69.275 11.2945L68.2062 12.5135C68.0618 12.3922 67.9231 12.2651 67.7787 12.1437ZM69.6852 13.9058L70.8348 12.7561C70.9446 12.6464 71.1295 12.6464 71.2392 12.7561C71.349 12.8659 71.349 13.045 71.2392 13.1605L70.0896 14.3102C69.9567 14.1773 69.8238 14.0444 69.6852 13.9058ZM71.4241 15.7314L72.6431 14.6568C72.7586 14.5528 72.9435 14.5644 73.0475 14.6799C73.1515 14.7955 73.1399 14.9803 73.0244 15.0785L71.8054 16.1473C71.6783 16.0144 71.5512 15.8758 71.4241 15.7314ZM73.1457 17.7938L74.434 16.8059C74.5553 16.7135 74.7344 16.7366 74.8326 16.8579C74.9251 16.985 74.902 17.1583 74.7806 17.2565L73.4923 18.2444C73.3768 18.0942 73.2612 17.944 73.1457 17.7938ZM74.6304 19.8331L75.9765 18.9319C76.1094 18.8453 76.2827 18.8799 76.3694 19.007C76.456 19.1399 76.4213 19.3132 76.2885 19.3999L74.9424 20.3011C74.8384 20.1451 74.7344 19.9891 74.6304 19.8331ZM76.0227 22.0285L77.4266 21.2197C77.5652 21.1446 77.7385 21.1908 77.8136 21.3237C77.8887 21.4565 77.8425 21.6356 77.7096 21.7107L76.3116 22.5195C76.2134 22.3578 76.1152 22.1902 76.0227 22.0285ZM77.2301 24.2411L78.6802 23.5248C78.8189 23.4554 78.9922 23.5132 79.0615 23.6519C79.1308 23.7905 79.0731 23.9638 78.9344 24.0331L77.4901 24.7495C77.3977 24.5762 77.311 24.4087 77.2301 24.2411ZM78.3567 26.6791L79.8472 26.0667C79.9916 26.0089 80.1592 26.0783 80.2169 26.2227C80.2747 26.3671 80.2054 26.5347 80.061 26.5924L78.5704 27.2048C78.5011 27.0257 78.4318 26.8524 78.3567 26.6791ZM79.2579 29.0304L80.7831 28.5104C80.9333 28.4585 81.0951 28.5393 81.1413 28.6895C81.1933 28.8397 81.1124 29.0015 80.9622 29.0477L79.437 29.5677C79.385 29.3886 79.3215 29.2095 79.2579 29.0304ZM80.0321 31.5146L81.5919 31.0986C81.7421 31.0582 81.8981 31.1506 81.9385 31.3008C81.979 31.451 81.8865 31.607 81.7363 31.6475L80.1765 32.0634C80.1361 31.8785 80.0841 31.6937 80.0321 31.5146ZM80.6213 33.9641L82.2043 33.6464C82.3603 33.6175 82.5105 33.7157 82.5394 33.8717C82.5682 34.0276 82.47 34.1778 82.314 34.2067L80.7311 34.5245C80.6964 34.3338 80.6618 34.149 80.6213 33.9641ZM81.0777 36.61L82.6838 36.4021C82.8398 36.3847 82.9842 36.4945 83.0015 36.6447C83.0189 36.8007 82.9149 36.9451 82.7589 36.9624L81.1528 37.1704C81.1297 36.9855 81.1008 36.8007 81.0777 36.61ZM81.3377 39.1173L82.9553 39.0076C83.1113 38.996 83.2442 39.1173 83.2557 39.2733C83.2673 39.4293 83.146 39.5622 82.99 39.5737L81.3724 39.6835C81.3608 39.4928 81.355 39.3022 81.3377 39.1173ZM81.4417 41.7171H83.0651C83.2211 41.7171 83.3482 41.8442 83.3482 42.0001C83.3482 42.1561 83.2211 42.2832 83.0651 42.2832H81.4417C81.4417 42.1908 81.4475 42.0926 81.4475 42.0001C81.4475 41.9019 81.4417 41.8095 81.4417 41.7171ZM81.3782 44.2301L82.9958 44.3341C83.1517 44.3457 83.2731 44.4785 83.2615 44.6345C83.25 44.7905 83.1171 44.9118 82.9611 44.9003L81.3435 44.7963C81.355 44.6114 81.3724 44.4208 81.3782 44.2301ZM81.1413 46.9107L82.7473 47.1245C82.9033 47.1476 83.0131 47.2862 82.99 47.4422C82.9669 47.5982 82.8282 47.708 82.6722 47.6849L81.0662 47.4711C81.0893 47.2862 81.1182 47.0956 81.1413 46.9107ZM80.7484 49.3949L82.3314 49.7069C82.4874 49.7358 82.5856 49.886 82.5567 50.042C82.5278 50.1979 82.3776 50.2962 82.2216 50.2673L80.6387 49.9553C80.6791 49.7704 80.7138 49.5798 80.7484 49.3949ZM80.1823 51.9369L81.7421 52.3528C81.8923 52.3933 81.9848 52.5492 81.9443 52.6994C81.9039 52.8497 81.7479 52.9421 81.5977 52.9016L80.0378 52.4857C80.0841 52.3008 80.1361 52.1217 80.1823 51.9369ZM79.4659 54.3517L80.9911 54.8659C81.1413 54.9121 81.2222 55.0739 81.1702 55.2241C81.1182 55.3743 80.9622 55.4552 80.812 55.4032L79.281 54.889C79.3504 54.7099 79.4081 54.5308 79.4659 54.3517ZM78.5416 56.8706L80.0321 57.4887C80.1765 57.5465 80.2458 57.714 80.1881 57.8585C80.1303 58.0029 79.9627 58.0722 79.8183 58.0144L78.3278 57.3963C78.3971 57.223 78.4722 57.0497 78.5416 56.8706ZM77.519 59.1757L78.9691 59.8862C79.1077 59.9556 79.1655 60.1231 79.0962 60.2675C79.0268 60.4062 78.8535 60.464 78.7149 60.3946L77.2648 59.6783C77.3515 59.5165 77.4323 59.3432 77.519 59.1757ZM76.3058 61.4807L77.7039 62.2895C77.8367 62.3646 77.8887 62.5437 77.8079 62.6766C77.7328 62.8095 77.5537 62.8615 77.4208 62.7806L76.0169 61.9718C76.1152 61.8043 76.2134 61.6425 76.3058 61.4807ZM74.9886 63.6241L76.3347 64.5195C76.4676 64.6062 76.5022 64.7853 76.4156 64.9124C76.3289 65.0452 76.1498 65.0799 76.0227 64.9933L74.6766 64.0978C74.7806 63.9418 74.8846 63.7801 74.9886 63.6241ZM73.4403 65.8194L74.7286 66.8073C74.85 66.9055 74.8731 67.0788 74.7806 67.2059C74.6824 67.3272 74.5091 67.3503 74.382 67.2579L73.0995 66.27C73.2092 66.1198 73.3248 65.9696 73.4403 65.8194ZM71.8574 67.7779L73.0764 68.8466C73.1919 68.9506 73.2092 69.1297 73.1053 69.2453C73.0013 69.3608 72.8222 69.3724 72.7066 69.2741L71.4876 68.2054C71.6032 68.0609 71.7303 67.9223 71.8574 67.7779ZM70.0896 69.6843L71.2392 70.834C71.349 70.9437 71.349 71.1228 71.2392 71.2384C71.1295 71.3481 70.9504 71.3481 70.8348 71.2384L69.6852 70.0887C69.8238 69.9558 69.9567 69.823 70.0896 69.6843ZM68.264 71.4232L69.3385 72.6422C69.4425 72.7635 69.431 72.9426 69.3154 73.0466C69.1999 73.1506 69.015 73.1391 68.9168 73.0235L67.848 71.8045C67.9867 71.6774 68.1253 71.5503 68.264 71.4232ZM66.2015 73.1448L67.1894 74.4331C67.2819 74.5602 67.2588 74.7336 67.1374 74.8318C67.0103 74.93 66.8313 74.9011 66.7388 74.7798L65.7509 73.4915C65.9011 73.3759 66.0513 73.2604 66.2015 73.1448ZM64.168 74.6296L65.0692 75.9756C65.1559 76.1085 65.1212 76.2818 64.9941 76.3685C64.8612 76.4552 64.6879 76.4205 64.6013 76.2934L63.7 74.9473C63.856 74.8375 64.012 74.7336 64.168 74.6296ZM61.9669 76.0219L62.7757 77.4257C62.8566 77.5586 62.8046 77.7377 62.6717 77.8128C62.5388 77.8879 62.3597 77.8417 62.2846 77.7088L61.4758 76.3107C61.6434 76.2125 61.8051 76.1143 61.9669 76.0219ZM59.76 77.2293L60.4764 78.6736C60.5457 78.8122 60.4879 78.9855 60.3493 79.0549C60.2106 79.1242 60.0373 79.0664 59.968 78.9278L59.2516 77.4835C59.4191 77.3968 59.5925 77.3102 59.76 77.2293ZM57.322 78.3558L57.9344 79.8464C57.9922 79.9908 57.9229 80.1583 57.7784 80.2161C57.634 80.2739 57.4665 80.2045 57.4087 80.0601L56.7963 78.5696C56.9696 78.5003 57.1487 78.4309 57.322 78.3558ZM54.9707 79.2571L55.4907 80.7822C55.5427 80.9325 55.4618 81.0942 55.3116 81.1404C55.1614 81.1924 54.9996 81.1115 54.9534 80.9613L54.4335 79.4362C54.6125 79.3842 54.7916 79.3206 54.9707 79.2571ZM52.4865 80.0312L52.9025 81.591C52.9429 81.7413 52.8505 81.8972 52.7003 81.9377C52.5501 81.9781 52.3941 81.8857 52.3537 81.7355L51.9377 80.1756C52.1226 80.1352 52.3017 80.0832 52.4865 80.0312ZM50.037 80.6205L50.3548 82.2034C50.3837 82.3594 50.2854 82.5096 50.1295 82.5385C49.9735 82.5674 49.8233 82.4692 49.7944 82.3132L49.4766 80.7303C49.6673 80.6956 49.8522 80.6609 50.037 80.6205ZM47.3853 81.0769L47.5933 82.6829C47.6106 82.8389 47.5009 82.9834 47.3506 83.0007C47.1947 83.018 47.0502 82.9082 47.0329 82.758L46.8249 81.152C47.0156 81.1289 47.2004 81.1 47.3853 81.0769Z" fill="#ECE7DA"/>
<path fill-rule="evenodd" clip-rule="evenodd" d="M42.0012 80.3489C63.1225 80.3489 80.35 63.1214 80.35 42.0001C80.35 20.8788 63.1225 3.65125 42.0012 3.65125C20.8799 3.65125 3.65234 20.8788 3.65234 42.0001C3.65234 63.1214 20.8799 80.3489 42.0012 80.3489Z" fill="url(#paint1_linear)"/>
<path fill-rule="evenodd" clip-rule="evenodd" d="M28.202 22.3056C24.1934 25.7009 22.1148 27.2577 19.6238 34.2336C13.9407 37.2879 11.3343 42.455 10.3775 48.0001C9.4784 45.4574 9 42.6996 9 39.801C9 34.419 10.6579 29.2148 13.5448 24.626C19.6403 22.1351 21.7519 21.5198 28.202 22.3056ZM31.1714 20.7933C35.5678 17.4425 40.3023 15.2482 44.5997 15.3371C41.3746 17.5018 37.9185 19.7703 35.3121 22.4391C34.1078 21.2529 31.9138 20.6006 31.1714 20.7933ZM21.9498 34.2929C23.7974 33.3885 26.7173 32.4767 28.4 32.6472C30.1981 28.0065 32.1695 25.0708 34.3883 23.7142C33.0025 22.4465 30.99 22.4984 29.761 22.491C27.7896 22.832 19.1949 33.5368 21.9498 34.2929ZM40.8054 8.20554C30.3961 9.28046 21.158 14.7441 15.3759 22.2982C18.535 21.6977 22.6344 17.8502 29.7032 20.5116C30.0332 20.3485 29.7032 20.4227 30.0991 20.3337C33.9841 15.6781 40.7147 15.1666 43.2304 14.1139C46.2328 13.4171 44.4264 9.48062 44.7729 8.65033C45.9689 7.72367 41.0859 7.99796 40.8054 8.20554Z" fill="url(#paint2_linear)"/>
<path d="M34.3262 28.5254C35.0846 28.5254 35.695 28.8021 36.1572 29.3555C36.6227 29.9056 36.8555 30.6152 36.8555 31.4844C36.8555 32.3307 36.6243 33.0257 36.1621 33.5693C35.6999 34.113 35.0879 34.3848 34.3262 34.3848V35.293H32.9492V34.3848C32.4316 34.3848 31.9824 34.2643 31.6016 34.0234C31.224 33.7793 30.9294 33.4375 30.7178 32.998C30.5062 32.5553 30.4004 32.054 30.4004 31.4941C30.4004 30.625 30.6331 29.9137 31.0986 29.3604C31.5641 28.8037 32.181 28.5254 32.9492 28.5254V27.5977H34.3262V28.5254ZM32.876 29.751C32.5277 29.751 32.2526 29.9056 32.0508 30.2148C31.8522 30.5241 31.7529 30.9505 31.7529 31.4941C31.7529 32.002 31.8522 32.4056 32.0508 32.7051C32.2526 33.0046 32.5309 33.1543 32.8857 33.1543H32.9492V29.751H32.876ZM34.3262 29.751V33.1543H34.3994C34.738 33.1543 35.0065 33.0046 35.2051 32.7051C35.4036 32.4023 35.5029 31.9954 35.5029 31.4844C35.5029 30.9473 35.4036 30.5241 35.2051 30.2148C35.0098 29.9056 34.7363 29.751 34.3848 29.751H34.3262ZM42.8125 32.085C42.8125 33.0387 42.5863 33.7793 42.1338 34.3066C41.6846 34.834 41.0596 35.0977 40.2588 35.0977C39.4613 35.0977 38.8346 34.8372 38.3789 34.3164C37.9232 33.7923 37.6921 33.0599 37.6855 32.1191V30.9033C37.6855 29.9268 37.9118 29.165 38.3643 28.6182C38.8167 28.068 39.445 27.793 40.249 27.793C41.04 27.793 41.6634 28.0632 42.1191 28.6035C42.5749 29.1406 42.806 29.8958 42.8125 30.8691V32.085ZM41.3721 30.8936C41.3721 30.2523 41.2809 29.7754 41.0986 29.4629C40.9163 29.1504 40.6331 28.9941 40.249 28.9941C39.8682 28.9941 39.5866 29.1455 39.4043 29.4482C39.222 29.7477 39.1276 30.2051 39.1211 30.8203V32.085C39.1211 32.7067 39.2139 33.1657 39.3994 33.4619C39.585 33.7549 39.8714 33.9014 40.2588 33.9014C40.6331 33.9014 40.9115 33.7581 41.0938 33.4717C41.276 33.182 41.3688 32.7344 41.3721 32.1289V30.8936ZM48.0273 29.0869H46.2695V35H44.8291V29.0869H43.1006V27.8906H48.0273V29.0869ZM53.7207 32.085C53.7207 33.0387 53.4945 33.7793 53.042 34.3066C52.5928 34.834 51.9678 35.0977 51.167 35.0977C50.3695 35.0977 49.7428 34.8372 49.2871 34.3164C48.8314 33.7923 48.6003 33.0599 48.5938 32.1191V30.9033C48.5938 29.9268 48.82 29.165 49.2725 28.6182C49.7249 28.068 50.3532 27.793 51.1572 27.793C51.9482 27.793 52.5716 28.0632 53.0273 28.6035C53.4831 29.1406 53.7142 29.8958 53.7207 30.8691V32.085ZM52.2803 30.8936C52.2803 30.2523 52.1891 29.7754 52.0068 29.4629C51.8245 29.1504 51.5413 28.9941 51.1572 28.9941C50.7764 28.9941 50.4948 29.1455 50.3125 29.4482C50.1302 29.7477 50.0358 30.2051 50.0293 30.8203V32.085C50.0293 32.7067 50.1221 33.1657 50.3076 33.4619C50.4932 33.7549 50.7796 33.9014 51.167 33.9014C51.5413 33.9014 51.8197 33.7581 52.002 33.4717C52.1842 33.182 52.277 32.7344 52.2803 32.1289V30.8936Z" fill="#5C3F2D"/>
<path fill-rule="evenodd" clip-rule="evenodd" d="M41.6228 65L42.4836 66.5656L44.2457 66.9065L43.0209 68.2121L43.2404 69.9915L41.6228 69.2347L39.9994 69.9915L40.2248 68.2179L39 66.9065L40.7563 66.5714L41.6228 65Z" fill="#5C3F2D"/>
<path fill-rule="evenodd" clip-rule="evenodd" d="M41.6228 14L42.4836 15.5656L44.2457 15.9065L43.0209 17.2121L43.2404 18.9915L41.6228 18.2347L39.9994 18.9915L40.2248 17.2179L39 15.9065L40.7563 15.5714L41.6228 14Z" fill="#5C3F2D"/>
<g filter="url(#filter0_di)">
<path d="M9.29297 51V49.4985L10.3989 49.2642V42.0791L9.29297 41.8447V40.3359H14.0757V41.8447L12.9697 42.0791V44.7744H16.8516V42.0791L15.7456 41.8447V40.3359H20.521V41.8447L19.415 42.0791V49.2642L20.521 49.4985V51H15.7456V49.4985L16.8516 49.2642V46.7446H12.9697V49.2642L14.0757 49.4985V51H9.29297ZM21.1143 51V49.4985L22.2202 49.2642V42.0791L21.1143 41.8447V40.3359H29.6323V43.4121H27.6914L27.6328 42.3135H24.791V44.5034H28.1968V46.4736H24.791V49.0151H27.772L27.8306 47.8652H29.7495V51H21.1143ZM30.7969 53.6147L30.665 49.0444H31.4268C31.6855 48.8687 31.9175 48.6147 32.1226 48.2827C32.3276 47.9507 32.4961 47.499 32.6279 46.9277C32.7646 46.3564 32.8525 45.624 32.8916 44.7305L33.104 42.0571L32.1152 41.8447V40.3359H41.5854V41.8447L40.4868 42.0791V49.0444H41.6221L41.3877 53.6294H39.0513V51H33.2212V53.6147H30.7969ZM34.3638 49.0444H37.916V42.2988H35.6455L35.4697 44.7305C35.4258 45.7607 35.3086 46.6128 35.1182 47.2866C34.9277 47.9604 34.6763 48.5464 34.3638 49.0444ZM42.2666 51V49.4985L43.3726 49.2642V42.0791L42.2666 41.8447V40.3359H50.7847V43.4121H48.8438L48.7852 42.3135H45.9434V44.5034H49.3491V46.4736H45.9434V49.0151H48.9243L48.9829 47.8652H50.9019V51H42.2666ZM51.876 51V49.0444H52.1616C52.606 48.9858 52.9429 48.8418 53.1724 48.6123C53.4019 48.3779 53.5532 47.9849 53.6265 47.4331C53.7046 46.8813 53.7388 46.1001 53.729 45.0894L53.6777 42.0791L52.5718 41.8447V40.3359H62.4888V41.8447L61.3828 42.0791V49.2642L62.4888 49.4985V51H57.7134V49.4985L58.8193 49.2642V42.2988H56.2412L56.2998 45.0894C56.3145 46.4956 56.1777 47.6333 55.8896 48.5024C55.6064 49.3716 55.1792 50.0063 54.6079 50.4067C54.0415 50.8022 53.3384 51 52.4985 51H51.876ZM63.2871 51V49.4985L64.4004 49.2642V42.0791L63.2871 41.8447V40.3359H68.0698V41.8447L66.9565 42.0791V46.2612L67.0005 46.2759L70.7871 42.6211V42.0791L69.6885 41.8447V40.3359H74.4712V41.8447L73.3726 42.0791V49.2642L74.4712 49.4985V51H69.6885V49.4985L70.7871 49.2642V45.1479L70.7432 45.1333L66.9565 48.7954V49.2642L68.0698 49.4985V51H63.2871Z" fill="#5C3F2D"/>
</g>
</g>
<defs>
<filter id="filter0_di" x="9.29297" y="40.3359" width="66.1782" height="14.2935" filterUnits="userSpaceOnUse" color-interpolation-filters="sRGB">
<feFlood flood-opacity="0" result="BackgroundImageFix"/>
<feColorMatrix in="SourceAlpha" type="matrix" values="0 0 0 0 0 0 0 0 0 0 0 0 0 0 0 0 0 0 127 0"/>
<feOffset dx="1" dy="1"/>
<feColorMatrix type="matrix" values="0 0 0 0 0.920278 0 0 0 0 0.834256 0 0 0 0 0.613056 0 0 0 1 0"/>
<feBlend mode="normal" in2="BackgroundImageFix" result="effect1_dropShadow"/>
<feBlend mode="normal" in="SourceGraphic" in2="effect1_dropShadow" result="shape"/>
<feColorMatrix in="SourceAlpha" type="matrix" values="0 0 0 0 0 0 0 0 0 0 0 0 0 0 0 0 0 0 127 0" result="hardAlpha"/>
<feOffset dx="1" dy="1"/>
<feComposite in2="hardAlpha" operator="arithmetic" k2="-1" k3="1"/>
<feColorMatrix type="matrix" values="0 0 0 0 0.244531 0 0 0 0 0.171531 0 0 0 0 0.130469 0 0 0 1 0"/>
<feBlend mode="normal" in2="shape" result="effect2_innerShadow"/>
</filter>
<linearGradient id="paint0_linear" x1="0.942349" y1="76.4499" x2="83.0636" y2="7.54188" gradientUnits="userSpaceOnUse">
<stop stop-color="#DBA73E"/>
<stop offset="0.16" stop-color="#D89D3A"/>
<stop offset="0.3" stop-color="#A46B28"/>
<stop offset="0.49" stop-color="#8E5723"/>
<stop offset="0.54" stop-color="#F4F3B8"/>
<stop offset="0.56" stop-color="#F7ED9A"/>
<stop offset="0.69" stop-color="#D5B767"/>
<stop offset="0.75" stop-color="#A76F29"/>
<stop offset="0.85" stop-color="#D0AB5B"/>
<stop offset="1" stop-color="#E0C77D"/>
</linearGradient>
<linearGradient id="paint1_linear" x1="40.8098" y1="76.0901" x2="43.1907" y2="7.90809" gradientUnits="userSpaceOnUse">
<stop stop-color="#DBA73E"/>
<stop offset="0.16" stop-color="#D89D3A"/>
<stop offset="0.3" stop-color="#A46B28"/>
<stop offset="0.49" stop-color="#8E5723"/>
<stop offset="0.54" stop-color="#F4F3B8"/>
<stop offset="0.56" stop-color="#F7ED9A"/>
<stop offset="0.69" stop-color="#D5B767"/>
<stop offset="0.75" stop-color="#A76F29"/>
<stop offset="0.85" stop-color="#D0AB5B"/>
<stop offset="1" stop-color="#E0C77D"/>
</linearGradient>
<linearGradient id="paint2_linear" x1="15.0767" y1="40.1071" x2="43.7225" y2="-10.8993" gradientUnits="userSpaceOnUse">
<stop stop-color="#F1ECD7"/>
<stop offset="0.21" stop-color="#F4F0E0"/>
<stop offset="1" stop-color="white"/>
</linearGradient>
<clipPath id="clip0">
<rect width="84" height="84" fill="white"/>
</clipPath>
</defs>
</svg>
