<svg width="84" height="84" viewBox="0 0 84 84" fill="none" xmlns="http://www.w3.org/2000/svg">
<path fill-rule="evenodd" clip-rule="evenodd" d="M43.6756 0.138422C44.3505 0.348823 45.008 0.609057 45.6483 0.902511C46.2482 1.17936 46.848 1.50049 47.4537 1.85485C48.0709 2.21475 48.5958 2.54696 49.086 2.8681C49.5475 3.17263 50.0493 3.51592 50.5511 3.8592L50.5915 3.88689C51.3471 4.40736 52.1027 4.92229 52.8007 5.34863C53.4409 5.73621 54.0466 6.04627 54.5772 6.21238C55.5866 6.52798 57.069 6.49476 58.5572 6.456L58.6898 6.44493H59.0648C60.1318 6.42278 61.1989 6.40617 62.2776 6.47815C63.5696 6.5612 64.8962 6.76053 66.2748 7.19241L66.4998 7.281L66.8574 7.45264L67.0766 7.57999L68.3571 8.47143L68.5474 8.62646L68.83 8.89777L68.9916 9.08048C70.6124 11.2233 71.4487 13.6318 72.2851 16.0403L72.3082 16.1123V16.1179L72.3139 16.14C72.5793 16.9096 72.8504 17.6848 73.1849 18.471C73.4618 19.1299 73.7617 19.7113 74.0905 20.1487C74.3962 20.5529 74.8288 20.946 75.3249 21.3225C75.8498 21.7267 76.5131 22.1641 77.1764 22.6015L77.1937 22.6126L77.2399 22.6403L77.2687 22.6624C77.7128 22.9559 78.157 23.2494 78.6415 23.5871C79.1606 23.947 79.6509 24.3014 80.0835 24.6446C80.5853 25.0433 81.0814 25.4752 81.5717 25.9624C82.0619 26.4497 82.5234 26.9701 82.956 27.5349L83.0886 27.7453L83.2675 28.0831L83.3597 28.299L83.85 29.7386L83.9077 29.9656L83.9712 30.3421L83.9942 30.5857C83.9942 33.2822 83.204 35.6741 82.4138 38.066H82.408H82.4138C82.1081 38.9852 81.8081 39.9043 81.6236 40.6075C81.5543 40.8843 81.4851 41.1722 81.4332 41.4657C81.3928 41.6982 81.3582 41.9086 81.3467 42.0969V42.407C81.3467 42.9108 81.4563 43.4756 81.6293 44.0625C81.8081 44.6771 82.0792 45.419 82.3561 46.1665V46.172L82.4311 46.3769L83.1059 48.2096H83.0771C83.2098 48.6138 83.3367 49.0235 83.4463 49.4388C83.6078 50.0368 83.7404 50.6624 83.8385 51.3379C83.9366 52.0134 83.9942 52.6945 83.9942 53.3866L83.9712 53.6302L83.9077 54.0067L83.85 54.2337L83.3597 55.6733L83.2675 55.8893L83.0886 56.2325L82.956 56.4429C82.5407 56.9966 82.0792 57.5171 81.589 58.0099C81.116 58.4861 80.6084 58.9401 80.0893 59.3664C79.5817 59.7872 79.0799 60.1693 78.5838 60.5402C78.1397 60.8669 77.6205 61.2379 77.0957 61.6033C76.738 61.858 76.3746 62.1127 75.9363 62.4339C75.5325 62.7273 75.1807 62.9931 74.9153 63.209C74.6442 63.425 74.3847 63.6575 74.1309 63.9011C73.9232 64.106 73.7329 64.3109 73.5771 64.5213C73.4329 64.7095 73.306 64.9199 73.1907 65.1414C73.0696 65.3739 72.9484 65.6508 72.8273 65.9498C72.6946 66.282 72.5735 66.6308 72.4524 66.9962C72.2793 67.5167 72.187 67.8212 72.0948 68.1202C71.939 68.6296 71.7833 69.139 71.5872 69.7149C71.4084 70.2519 71.2065 70.8056 70.9642 71.3925C70.7104 72.0016 70.4336 72.594 70.1221 73.1588C69.7933 73.7568 69.4184 74.3437 68.9916 74.9029L68.83 75.0912L68.5474 75.3625L68.3571 75.5175L67.0766 76.4089L66.8574 76.5363L66.4998 76.7079L66.2748 76.7965C64.9251 77.2173 63.5754 77.4277 62.2256 77.5385C60.997 77.6381 59.6704 77.6492 58.3495 77.6603C57.8996 77.6658 57.4497 77.6658 56.9652 77.6769C56.5614 77.688 56.1231 77.7046 55.627 77.7378C55.229 77.7655 54.8714 77.7987 54.5599 77.8485C54.2715 77.8928 53.9946 77.9537 53.7408 78.0312C53.2506 78.1863 52.7314 78.4631 52.195 78.8009C51.6297 79.1552 50.978 79.6369 50.3204 80.1186L50.2627 80.1629L50.257 80.1685L50.1993 80.2072L50.1762 80.2294H50.1704C49.8186 80.4896 49.4437 80.7609 48.9072 81.1374C48.4112 81.4807 47.9151 81.8129 47.4191 82.1175C46.8423 82.4663 46.2597 82.7874 45.6656 83.0698C45.0484 83.3577 44.3909 83.618 43.6814 83.8394L43.4449 83.8948L43.0527 83.9557L42.7989 83.9778H41.2184L40.9531 83.9723L40.5609 83.9114L40.3244 83.856C39.6495 83.6456 38.992 83.3854 38.3517 83.0919C37.7518 82.8151 37.152 82.494 36.5463 82.1396C35.9349 81.7852 35.4042 81.453 34.914 81.1264C34.441 80.8163 33.9276 80.4619 33.4085 80.1076C32.6529 79.5871 31.8973 79.0722 31.1359 78.6181C30.8071 78.4188 30.4899 78.2472 30.2015 78.1088C29.9304 77.9759 29.6708 77.8707 29.4228 77.7932C28.4134 77.4776 26.931 77.5108 25.4428 77.5495L25.3102 77.5606H24.9352C24.5084 77.5717 24.07 77.5772 23.6144 77.5772C22.9914 77.5772 22.3858 77.5661 21.8147 77.5329C21.1399 77.4942 20.4765 77.4222 19.8132 77.3114C19.1326 77.1952 18.4404 77.0346 17.731 76.8131L17.506 76.7245L17.1484 76.5529L16.9292 76.4255L15.6487 75.5341L15.4526 75.3791L15.17 75.1078L15.0084 74.9195C13.3876 72.7767 12.5513 70.3682 11.7149 67.9652L11.6918 67.8988V67.8932L11.6861 67.8711C11.415 67.1014 11.1496 66.3263 10.8151 65.54C10.5382 64.8812 10.2383 64.2942 9.91527 63.8624C9.60956 63.4582 9.17696 63.0706 8.67514 62.6885C8.15024 62.2844 7.48692 61.8469 6.82359 61.4095L6.80629 61.3985L6.76015 61.3708L6.73131 61.3486C6.28717 61.0552 5.84303 60.7617 5.35851 60.424C4.83939 60.0641 4.3491 59.7097 3.9165 59.3664C3.41468 58.9678 2.91863 58.5359 2.42835 58.0486C1.93806 57.5614 1.47662 57.0409 1.04402 56.4706L0.911351 56.2602L0.732541 55.9169L0.640253 55.701L0.149969 54.2614L0.0922887 54.0344L0.0230722 53.6524L0 53.4032C0 52.0467 0.20765 50.7455 0.513356 49.4776C0.813294 48.2428 1.19398 47.0801 1.57468 45.9229H1.58044H1.57468C1.88038 45.0038 2.18032 44.0846 2.3649 43.3759C2.43411 43.0991 2.50333 42.8111 2.55524 42.5177C2.59562 42.2851 2.63023 42.0747 2.64176 41.8865V41.5764C2.64176 40.9618 2.46295 40.2365 2.21493 39.4613H2.20916L1.70734 38.0162L1.64389 37.8169C0.819062 35.5911 0 33.3597 0 30.5913L0.0230722 30.3476L0.0865206 29.9711L0.144201 29.7441L0.634485 28.3045L0.726773 28.0886L0.905583 27.7508L1.03825 27.5404C1.45355 26.9868 1.91499 26.4718 2.40527 25.979C2.88402 25.5029 3.38584 25.0544 3.90496 24.6225C4.41255 24.2017 4.91437 23.8197 5.41042 23.4542C5.85456 23.1275 6.37369 22.7566 6.89281 22.3911C7.2562 22.1364 7.61382 21.8817 8.05795 21.5606C8.46172 21.2672 8.81357 21.0014 9.0789 20.7854C9.35 20.5695 9.60956 20.337 9.86335 20.0933C10.071 19.8885 10.2613 19.6836 10.4171 19.4732C10.5613 19.285 10.6882 19.0745 10.8035 18.8531C10.9247 18.6205 11.0458 18.3437 11.1669 18.0447C11.2996 17.7125 11.4207 17.3637 11.5419 16.9982C11.7149 16.4778 11.8072 16.1732 11.8995 15.8742C12.0552 15.3648 12.2109 14.8554 12.4071 14.2851C12.5859 13.7481 12.7877 13.1944 13.03 12.6075C13.2838 11.9984 13.5549 11.4115 13.8664 10.8467C14.1952 10.2488 14.5701 9.66185 14.9969 9.09709L15.1584 8.91438L15.441 8.64307L15.6372 8.48804L16.9177 7.5966L17.1369 7.46925L17.4945 7.29761L17.7194 7.20902C19.0691 6.78821 20.4189 6.57228 21.7686 6.46708C22.9972 6.36741 24.3238 6.35634 25.6447 6.3508C26.0946 6.34526 26.5445 6.34526 27.029 6.33419C27.4328 6.32312 27.8712 6.30651 28.373 6.27328C28.771 6.2456 29.1286 6.21238 29.4401 6.16255C29.7285 6.11825 30.0054 6.05735 30.2591 5.97983C30.9225 5.77497 31.6723 5.3154 32.4568 4.77279L33.4893 4.03085L33.6796 3.89243L33.7603 3.83152C35.6753 2.42515 37.6019 1.01879 40.3244 0.171643L40.5609 0.116274L40.9531 0.0221475L41.2127 0H42.7931L43.0469 0.0221475L43.4391 0.0830532L43.6756 0.138422ZM37.1635 8.23888L37.7403 8.96974L37.2731 8.3773L37.1635 8.23888ZM37.1635 8.23888L37.7345 8.95313L37.7461 8.96974L37.1635 8.23888ZM17.1426 66.21L17.1484 66.2266V66.2322L17.904 65.9941L18.0424 65.9276L17.9848 65.9442L17.1426 66.21ZM46.8365 75.7611L46.2597 75.0303L46.7211 75.6227L46.8365 75.7611ZM46.8423 75.7611L46.2712 75.0469L46.2597 75.0303L46.8423 75.7611ZM58.3322 72.1732L58.3264 71.2541V71.2707L58.3322 72.1732ZM44.3101 12.3639C43.6468 11.9098 42.9892 11.4558 42.4066 11.0904C42.2855 11.0129 42.1644 10.9409 42.0433 10.8689C41.9913 10.9021 41.9337 10.9409 41.876 10.9741C41.6049 11.1513 41.3511 11.334 41.0973 11.5112C40.9992 11.5832 40.6243 11.8545 40.2552 12.1258C39.315 12.8179 38.3748 13.51 37.3019 14.1578C36.1945 14.8222 35.0005 15.4147 33.6104 15.8465C32.9413 16.0569 32.2434 16.2175 31.5339 16.3393C30.8186 16.4667 30.1438 16.5442 29.492 16.5996C28.9383 16.6439 28.2865 16.6715 27.5885 16.6882C26.9829 16.7048 26.3311 16.7103 25.6851 16.7103C25.3102 16.7103 24.9295 16.7158 24.5257 16.7214C24.1854 16.7269 23.8162 16.738 23.3952 16.7601C23.2798 16.7657 23.1414 16.7712 22.9741 16.7878C22.951 16.8432 22.9337 16.9041 22.9107 16.965C22.7895 17.2861 22.6915 17.5741 22.605 17.8509C22.5184 18.1167 22.4146 18.4544 22.3108 18.7922C22.1551 19.3016 21.9993 19.811 21.8032 20.3813C21.6244 20.9183 21.4225 21.472 21.1803 22.0589C20.9265 22.668 20.6554 23.2604 20.3439 23.8252C20.0151 24.4232 19.6402 25.0101 19.2134 25.5748C18.7923 26.1285 18.3366 26.6435 17.8463 27.1362C17.3733 27.6124 16.8658 28.0664 16.3466 28.4983C15.839 28.9136 15.343 29.3012 14.8412 29.6666C14.4028 29.9933 13.8779 30.3587 13.353 30.7297C13.1281 30.8902 12.8973 31.0508 12.4013 31.4107C12.0725 31.6488 11.7668 31.8758 11.5015 32.0807C11.4092 32.1527 11.3054 32.2357 11.1785 32.3354C11.2304 32.5015 11.2823 32.6731 11.34 32.8448C11.5188 33.3818 11.6976 33.8636 11.8706 34.3508V34.3563C12.2686 35.4305 12.6609 36.5046 12.9608 37.6231C13.1223 38.2211 13.255 38.8467 13.353 39.5222C13.4511 40.1977 13.5088 40.8788 13.5088 41.5709V42.8001V44.3338H13.2319C13.1223 44.9428 12.9839 45.5408 12.8281 46.1277C12.534 47.2296 12.234 48.1432 11.9341 49.0512V49.0568C11.6457 49.926 11.363 50.7953 11.1554 51.5816C11.2015 51.6148 11.2535 51.6535 11.3054 51.6923C11.836 52.0854 12.3782 52.4398 12.9204 52.7997V52.7941L12.9666 52.8274C14.9854 54.1562 16.9984 55.4906 18.6885 57.7275C19.1038 58.2812 19.4787 58.857 19.8132 59.455C20.142 60.0419 20.4304 60.6399 20.6957 61.249C20.938 61.8026 21.1572 62.3729 21.3764 62.9543C21.509 63.3031 21.734 63.962 21.9647 64.632L22.0051 64.7261L22.1147 65.0528C22.2589 65.4625 22.4146 65.8999 22.6223 66.4426C22.7146 66.6862 22.8126 66.9243 22.9049 67.1457C22.9799 67.1513 23.0491 67.1513 23.1068 67.1513C23.7413 67.1679 24.4277 67.1513 25.1141 67.1347H25.1198C26.308 67.107 27.502 67.0738 28.6845 67.1457C29.3593 67.19 30.0227 67.2565 30.6918 67.3672C31.3666 67.4835 32.0645 67.6441 32.774 67.8655C33.4489 68.0759 34.1064 68.3362 34.7467 68.6296C35.3466 68.9065 35.9464 69.2276 36.5521 69.582C37.1635 69.9363 37.6942 70.2685 38.1787 70.5952C38.6517 70.9053 39.1708 71.2596 39.6841 71.614C40.2321 71.9905 40.7858 72.3726 41.2819 72.6881C41.5068 72.8321 41.726 72.9705 41.9567 73.1034C42.0087 73.0702 42.0663 73.0314 42.1182 72.9982C42.6028 72.6771 43.168 72.2618 43.7333 71.8465C44.6735 71.1544 45.6137 70.4623 46.6865 69.8145C47.794 69.1501 48.988 68.5576 50.3781 68.1258C51.0529 67.9154 51.7451 67.7548 52.4546 67.633C53.1698 67.5056 53.8447 67.4281 54.4965 67.3727C55.0502 67.3285 55.702 67.3008 56.3999 67.2842C57.0056 67.2675 57.6574 67.262 58.3034 67.262C58.6783 67.262 59.059 67.2565 59.4627 67.2509C59.8031 67.2454 60.1722 67.2343 60.5933 67.2122C60.7086 67.2066 60.8471 67.1956 61.0144 67.1845L61.0836 67.0073C61.2047 66.6862 61.3028 66.3927 61.3893 66.1214C61.4758 65.8556 61.5796 65.5179 61.6834 65.1857C61.8392 64.6763 61.9949 64.1669 62.191 63.5911C62.3698 63.054 62.5717 62.5003 62.814 61.9134C63.0678 61.3043 63.3389 60.7119 63.6561 60.1471C63.9849 59.5491 64.354 58.9622 64.7867 58.3975C65.202 57.8438 65.6634 57.3288 66.1537 56.8361C66.6267 56.3599 67.1342 55.9114 67.6534 55.474C68.161 55.0532 68.6628 54.6711 69.1588 54.3057C69.5972 53.979 70.1221 53.6081 70.6412 53.2426C70.8662 53.0821 71.0969 52.9215 71.5929 52.5616C71.9217 52.3235 72.2274 52.0965 72.4928 51.8916C72.585 51.8197 72.6889 51.7366 72.8158 51.6314C72.7985 51.565 72.7754 51.4985 72.7581 51.4376C72.6831 51.194 72.5908 50.9282 72.4928 50.6458H72.4812L72.1928 49.8153L72.1236 49.6326V49.627L72.1178 49.6049C71.2988 47.3846 70.4855 45.1588 70.4855 42.4014V41.1944V39.6607H70.7623C70.8719 39.0516 71.0104 38.4536 71.1661 37.8667C71.4603 36.7649 71.7602 35.8513 72.0602 34.9377C72.3486 34.0684 72.6312 33.1991 72.8388 32.4129C72.7927 32.3797 72.7408 32.3409 72.6889 32.3022C72.4408 32.1194 72.1755 31.9367 71.8986 31.7485C71.5064 31.4827 71.2872 31.3387 71.0738 31.1948V31.2003L71.0277 31.1671C69.0089 29.8382 66.9958 28.5039 65.3058 26.267C64.8905 25.7133 64.5155 25.1374 64.181 24.5394C63.8522 23.9525 63.5581 23.3546 63.2985 22.7455C63.0562 22.1918 62.8371 21.6215 62.6179 21.0401C62.491 20.6858 62.2602 20.0324 62.0295 19.3625L61.9892 19.2683L61.8796 18.9417C61.7354 18.5264 61.5796 18.0945 61.372 17.5519C61.2797 17.3083 61.1816 17.0702 61.0893 16.8487C61.0144 16.8432 60.9451 16.8432 60.8875 16.8432C60.2587 16.8266 59.5723 16.8432 58.8859 16.8598H58.8744C57.6862 16.8875 56.4922 16.9207 55.3098 16.8487C54.6349 16.8044 53.9716 16.738 53.3082 16.6272C52.6334 16.511 51.9355 16.3504 51.226 16.1289C50.5511 15.9185 49.8936 15.6583 49.2533 15.3648C48.6534 15.088 48.0536 14.7669 47.4479 14.4125C46.8365 14.0581 46.3058 13.7259 45.8213 13.3992C45.3426 13.0726 44.8235 12.7182 44.3101 12.3639ZM8.86548 35.3696L8.05219 35.6409L7.96567 35.6741L8.20792 35.5966L8.86548 35.3696ZM10.3133 41.2664V41.2442L9.35576 41.2664H10.3133ZM8.88855 48.1376L7.97143 47.8608L7.99451 47.8719L8.07526 47.894L8.88855 48.1376ZM72.5504 55.7232L73.1157 56.4596L72.9773 56.2768L72.5504 55.7232ZM73.6867 42.7281V42.7558L74.6442 42.7281H73.6867ZM75.1807 35.879L76.0228 36.1337L76.0113 36.1281L75.9247 36.1005L75.1807 35.879ZM7.9599 47.8552L7.92529 47.8442L7.9772 47.8608L7.9599 47.8552ZM18.4058 65.8113L18.1982 65.8778L18.1866 65.8833L18.3308 65.839L18.4058 65.8113ZM18.3193 65.8446L18.1809 65.8889L18.0597 65.9442L18.3193 65.8446ZM75.8844 48.3702L76.0401 48.3203H76.0343L75.8844 48.3702Z" fill="url(#paint0_linear)"/>
<path fill-rule="evenodd" clip-rule="evenodd" d="M43.1853 1.59459C44.4082 1.97663 45.5387 2.52478 46.6346 3.16153C47.7132 3.78719 48.688 4.46269 49.6686 5.13265C51.2087 6.1902 52.7545 7.24774 54.0869 7.66301C55.3617 8.06166 57.0113 8.02291 58.661 7.97861L58.6898 7.97307V7.97861C60.997 7.92324 63.3043 7.86787 65.7788 8.64304L66.1364 8.81468L67.4169 9.70612L67.6995 9.97742C69.1877 11.943 69.9837 14.2297 70.7739 16.5165L70.797 16.5885V16.594V16.5995C71.3795 18.2772 71.9679 19.9438 72.7927 21.0346C73.5771 22.0755 74.9384 22.9725 76.2939 23.8695L76.3112 23.8805C77.2514 24.5007 78.1858 25.1208 79.0626 25.8184C79.997 26.5604 80.8795 27.402 81.6582 28.4318L81.837 28.7696L82.3273 30.2092L82.3907 30.5857C82.3907 33.0496 81.6409 35.3253 80.8853 37.6065C80.5795 38.5256 80.2796 39.4447 80.072 40.2475C79.8989 40.9064 79.7778 41.5321 79.7432 42.1024V42.418C79.7432 43.7081 80.2911 45.1975 80.8391 46.6869C81.2198 47.7223 81.6005 48.7522 81.8889 49.8319C82.1888 50.9614 82.3907 52.1352 82.3907 53.4032L82.3273 53.7797L81.837 55.2193L81.6582 55.557C80.9026 56.5592 80.0027 57.4229 79.0395 58.2203C78.1051 58.9899 77.1245 59.6875 76.1439 60.3852C75.3479 60.9499 74.5462 61.5147 73.8829 62.0518C73.2426 62.5667 72.6831 63.0927 72.2736 63.6298C71.8929 64.1336 71.5872 64.7482 71.3218 65.4127C71.0277 66.1491 70.7912 66.9242 70.5489 67.6939C70.2317 68.7293 69.9087 69.7646 69.4703 70.8277C69.0204 71.9185 68.4609 72.9816 67.688 74.0059L67.4053 74.2772L66.1248 75.1686L65.7672 75.3403C63.3446 76.0933 60.8355 76.1155 58.3322 76.1321C57.3862 76.1376 56.4461 76.1487 55.5001 76.2096C54.658 76.2705 53.8793 76.3757 53.2333 76.575C51.9701 76.9681 50.6549 77.9371 49.3398 78.906L49.2764 78.9559C48.4054 79.5982 47.5344 80.2349 46.5596 80.8273C45.5329 81.4475 44.4312 81.9956 43.1738 82.3887L42.7816 82.4496H41.2011L40.8089 82.3887C39.5918 82.0067 38.4555 81.4585 37.3596 80.8218C36.281 80.1961 35.3004 79.5206 34.3256 78.8507C33.5412 78.3081 32.7509 77.771 31.9723 77.3059C31.2513 76.874 30.5591 76.5252 29.9131 76.3203C28.6383 75.9217 26.9887 75.966 25.339 76.0047L25.3102 76.0103V76.0047C24.1796 76.0324 23.0491 76.0601 21.9128 75.9881C20.7015 75.9161 19.4787 75.7334 18.2155 75.3403L17.8636 75.1686L16.5831 74.2772L16.3005 74.0059C14.8123 72.0403 14.0221 69.7536 13.2261 67.4668L13.203 67.3949V67.3893V67.3838C12.6205 65.7061 12.0321 64.0395 11.2073 62.9488C10.4229 61.9078 9.06159 61.0108 7.7061 60.1139L7.6888 60.1028C6.74861 59.4827 5.81419 58.8625 4.93744 58.1649C4.00302 57.4229 3.12051 56.5813 2.34183 55.5515L2.16302 55.2137L1.67273 53.7741L1.60928 53.3976C1.60928 50.9337 2.35913 48.6581 3.11474 46.3769C3.40314 45.4633 3.70885 44.5442 3.9165 43.7413C4.08954 43.0824 4.21067 42.4512 4.24528 41.8865V41.5709C4.24528 40.2808 3.69731 38.7913 3.14935 37.3019C2.37643 35.2034 1.60352 33.105 1.60352 30.5912L1.66696 30.2147L2.15725 28.7751L2.33606 28.4374C3.09167 27.4352 3.98572 26.5715 4.95475 25.7741C5.88917 24.999 6.86974 24.3069 7.85031 23.6092C8.6463 23.0445 9.44805 22.4797 10.1114 21.9426C10.7516 21.4277 11.3111 20.9017 11.7207 20.3646C12.1014 19.8608 12.4071 19.2462 12.6724 18.5817C12.9666 17.8453 13.203 17.0702 13.4453 16.3005C13.7625 15.2651 14.0856 14.2297 14.5239 13.1667C14.9738 12.0759 15.5333 11.0128 16.3063 9.99403L16.5889 9.72273L17.8694 8.83129L18.2212 8.65965C20.6438 7.90663 23.1529 7.88448 25.6563 7.86787C26.6022 7.86234 27.5424 7.8568 28.4884 7.79036C29.3305 7.72945 30.1092 7.62425 30.7552 7.42492C32.0184 7.0318 33.3335 6.06285 34.6486 5.0939C36.4829 3.7429 38.3171 2.3919 40.8204 1.6112L41.2127 1.55029H42.7931L43.1853 1.59459ZM45.3137 5.25447C44.4428 4.75061 43.543 4.30766 42.5855 3.98652H41.4145C39.413 4.65095 37.8037 5.83584 36.2002 7.02073C34.7121 8.11703 33.2239 9.21333 31.5512 9.7338C30.6744 10.0051 29.6996 10.1435 28.6729 10.2155C27.7501 10.282 26.7118 10.2875 25.6736 10.293C23.4471 10.3096 21.2206 10.3262 19.2018 10.9132L18.2616 11.572C17.679 12.3749 17.2464 13.2054 16.8946 14.0581C16.5139 14.9828 16.2024 15.9849 15.8967 16.9816C15.6372 17.8232 15.3776 18.6703 15.0661 19.4455C14.7258 20.2926 14.3278 21.0955 13.7972 21.7931C13.2665 22.4963 12.557 23.1607 11.761 23.803C10.9881 24.4287 10.1864 24.999 9.37884 25.5693C8.43288 26.2392 7.49269 26.9092 6.63325 27.6179C5.85456 28.2602 5.13933 28.9468 4.52791 29.7219L4.17029 30.7739C4.21067 32.806 4.88553 34.6498 5.56616 36.488C6.03914 37.7726 6.51212 39.0571 6.714 40.3417H6.82359V41.5709C6.82359 42.4235 6.65632 43.3537 6.40253 44.3227C6.1545 45.275 5.85456 46.1942 5.54886 47.1133C4.87976 49.1508 4.2049 51.1829 4.17029 53.2149L4.52791 54.2669C5.13933 55.0421 5.83149 55.6954 6.5698 56.2823C7.40617 56.9468 8.28291 57.5281 9.15965 58.104L9.17696 58.1151C10.717 59.1283 12.2513 60.1471 13.2838 61.5147C14.3394 62.91 14.9969 64.8091 15.6602 66.7083L15.6891 66.7969C16.387 68.7957 17.0849 70.7945 18.2732 72.4224L19.2133 73.0812C20.1766 73.3636 21.1341 73.4965 22.0916 73.5574C23.1702 73.6239 24.2373 73.5962 25.2986 73.574L25.3275 73.5685V73.574C27.1906 73.5297 29.0479 73.4854 30.7206 74.0059C31.5916 74.2772 32.4625 74.7146 33.3393 75.2406C34.1526 75.7279 34.9889 76.2982 35.8253 76.874C36.7886 77.5384 37.7576 78.1973 38.7036 78.751C39.5745 79.2604 40.4744 79.6978 41.4319 80.019H42.6085C43.566 79.6978 44.4255 79.2715 45.233 78.7787C46.1155 78.2416 46.9749 77.6104 47.8286 76.9847L47.8921 76.9349C49.3571 75.8552 50.828 74.7866 52.4776 74.2717C53.3544 74.0004 54.3292 73.8619 55.3559 73.79C56.2788 73.7235 57.317 73.718 58.3553 73.7124C60.5817 73.6958 62.814 73.6792 64.827 73.0923L65.7672 72.4334C66.3498 71.6306 66.7824 70.8 67.1342 69.9474C67.5149 69.0227 67.8264 68.0205 68.1321 67.0239C68.3917 66.1823 68.6512 65.3351 68.9627 64.56C69.2973 63.7128 69.701 62.91 70.2317 62.2123C70.7623 61.5092 71.4718 60.8447 72.2678 60.2025C73.0407 59.5768 73.8425 59.0065 74.65 58.4362C75.596 57.7662 76.5419 57.0963 77.3956 56.3875C78.1743 55.7453 78.8895 55.0587 79.5009 54.2835L79.8585 53.2315C79.8412 52.257 79.6797 51.3379 79.4375 50.4465C79.1721 49.4443 78.8145 48.4809 78.4569 47.5175C77.9839 46.2329 77.5109 44.9484 77.3091 43.6638H77.1995V42.4402C77.1995 41.5875 77.3668 40.6573 77.6206 39.6883C77.8686 38.736 78.1743 37.8169 78.4742 36.8922C79.1433 34.8546 79.8182 32.8226 79.8528 30.7906L79.4952 29.7385C78.8838 28.9634 78.1916 28.31 77.4533 27.7231C76.6169 27.0587 75.7402 26.4773 74.8634 25.9015L74.8461 25.8904C73.306 24.8772 71.7718 23.8584 70.7393 22.4963C69.6837 21.101 69.0262 19.2019 68.3628 17.3027L68.334 17.2141C67.6361 15.2153 66.9381 13.2165 65.7499 11.5887L64.8097 10.9298C62.7851 10.3373 60.7548 10.3927 58.7244 10.4425L58.6956 10.4481V10.4425C56.8325 10.4868 54.9752 10.5311 53.3025 10.0106C51.6009 9.4791 49.8993 8.31082 48.1978 7.14254C47.223 6.46704 46.2597 5.80262 45.3137 5.25447ZM70.8085 16.6051L13.1973 67.3893L70.8085 16.6051ZM45.233 11.118C44.5697 10.6585 43.9006 10.2044 43.2719 9.81132C42.845 9.54555 42.4297 9.30192 42.0144 9.09152C41.6683 9.27978 41.3165 9.49018 40.9704 9.72273C40.434 10.0771 39.8629 10.4979 39.2919 10.9187C37.4577 12.2697 35.6234 13.6207 33.1259 14.3959C31.8915 14.7779 30.6398 14.9772 29.3709 15.0769C28.2 15.171 26.9425 15.1766 25.6851 15.1876C24.9006 15.1932 24.1162 15.1987 23.3144 15.2375C22.8068 15.2596 22.3166 15.2984 21.8609 15.3648C21.6936 15.7081 21.5436 16.0791 21.4052 16.4666C21.1745 17.0868 20.9784 17.7291 20.7823 18.3658C20.465 19.4012 20.142 20.4366 19.7036 21.4997C19.2537 22.5904 18.6942 23.6535 17.9213 24.6778C17.1657 25.68 16.2659 26.5438 15.3026 27.3411C14.3682 28.1107 13.3876 28.8084 12.4071 29.506C11.761 29.9656 11.115 30.4196 10.5036 30.8958C10.1114 31.2003 9.73645 31.5048 9.40768 31.8149C9.60379 32.7838 9.99025 33.8248 10.3709 34.8657C10.7516 35.8956 11.1323 36.931 11.4207 38.0051C11.7207 39.1346 11.9225 40.3084 11.9225 41.5764V42.8056H11.8476C11.6572 44.8376 11.04 46.7202 10.4171 48.6027C10.0076 49.843 9.60379 51.0777 9.40191 52.1629C9.69031 52.4231 10.0133 52.6723 10.3479 52.9215C10.8958 53.3257 11.4726 53.7077 12.0437 54.0842C13.9529 55.3466 15.8621 56.6035 17.408 58.6411C18.1636 59.6377 18.7404 60.7229 19.2364 61.8525C19.6921 62.8989 20.0901 64.0395 20.4823 65.1801L20.4939 65.1967H20.4881C20.9092 66.4093 21.3302 67.6163 21.8436 68.613C22.2473 68.6628 22.6569 68.685 23.0779 68.696C23.7528 68.7126 24.4565 68.696 25.166 68.6794C26.308 68.6517 27.4501 68.6241 28.5922 68.6905C29.8035 68.768 31.0263 68.9452 32.2837 69.3383C33.5008 69.7204 34.6371 70.2685 35.733 70.9053C36.8116 71.5309 37.7922 72.2064 38.767 72.8764C39.8629 73.6294 40.9589 74.3824 41.9856 74.9029C42.3317 74.7146 42.6835 74.5042 43.0296 74.2717C43.566 73.9173 44.1371 73.4965 44.7081 73.0757C46.5423 71.7247 48.3766 70.3792 50.8799 69.5985C52.1143 69.2165 53.3659 69.0172 54.6349 68.9175C55.8058 68.8234 57.0632 68.8178 58.3207 68.8068C59.1051 68.8012 59.8896 68.7957 60.6913 68.7569C61.1989 68.7348 61.6892 68.696 62.1449 68.6296C62.3122 68.2863 62.4621 67.9153 62.6006 67.5333C62.8313 66.9076 63.0274 66.2709 63.2235 65.6341C63.5408 64.5987 63.8638 63.5633 64.3021 62.5003C64.752 61.4095 65.3115 60.3464 66.0845 59.3221C66.8401 58.3255 67.7399 57.4562 68.7031 56.6589C69.6376 55.8837 70.6181 55.1916 71.5987 54.4939C72.2447 54.0344 72.8907 53.5804 73.5022 53.1042C73.8944 52.7997 74.2693 52.4896 74.5981 52.1851C74.5231 51.8086 74.4193 51.421 74.2981 51.0279C74.1136 50.4299 73.8713 49.7821 73.6348 49.1342C72.8619 47.0358 72.089 44.9373 72.089 42.4235V41.1944H72.164C72.3543 39.1623 72.9715 37.2798 73.5945 35.3972C74.004 34.157 74.4077 32.9223 74.6096 31.837C74.3212 31.5768 73.9982 31.3276 73.6637 31.0785C73.1157 30.6743 72.5389 30.2922 71.9621 29.9157C70.0529 28.6533 68.1437 27.3964 66.5978 25.3589C65.8422 24.3622 65.2654 23.277 64.7693 22.1475C64.3137 21.101 63.9157 19.9604 63.5234 18.8198L63.5119 18.8032H63.5177C63.0966 17.5962 62.6755 16.3836 62.168 15.387C61.7642 15.3371 61.3547 15.315 60.9336 15.3039C60.2587 15.2873 59.5493 15.3039 58.8456 15.3205C57.7035 15.3482 56.5614 15.3759 55.4193 15.3039C54.2081 15.2319 52.9852 15.0492 51.722 14.6561C50.4992 14.274 49.3687 13.7259 48.2727 13.0892C47.1941 12.4635 46.2136 11.788 45.233 11.118ZM44.662 7.75714L73.4099 27.9058C71.6852 26.7652 69.9548 25.6246 68.6685 23.9193C68.0456 23.0943 67.5553 22.1752 67.1342 21.2062C66.6786 20.1653 66.3152 19.1188 65.9518 18.0723L65.9403 18.0557C65.3981 16.4999 64.8559 14.944 64.1003 13.665L63.8061 13.1722L63.235 13.067C62.5256 12.9341 61.77 12.8732 60.9855 12.8566C60.253 12.84 59.5147 12.8566 58.7764 12.8732C57.715 12.9009 56.6479 12.923 55.5693 12.8566C54.5541 12.7957 53.5332 12.6462 52.5065 12.3251C51.474 12.0039 50.5165 11.5388 49.5879 10.9962C48.6419 10.4481 47.6786 9.78363 46.7096 9.11921C46.0347 8.65965 45.3599 8.19455 44.662 7.75714ZM42.5278 6.60546L44.6562 7.76267C43.9409 7.30865 43.2315 6.90999 42.5278 6.60546ZM41.4722 6.60546L42.5335 6.59993L42.0029 6.36738L41.4722 6.60546ZM39.5226 7.7073L41.4722 6.611C40.8089 6.90446 40.1571 7.2865 39.5226 7.7073ZM37.7403 8.96971L39.5169 7.7073C38.8997 8.11703 38.3229 8.54337 37.7403 8.96971ZM32.3299 12.0648C34.4179 11.4115 36.0791 10.1934 37.7403 8.96971L32.3299 12.0648ZM29.1575 12.6296C30.2534 12.541 31.3205 12.3804 32.3299 12.0648L29.1575 12.6296ZM25.6736 12.7459C26.8214 12.7348 27.9692 12.7293 29.1575 12.6351L25.6736 12.7459ZM23.1875 12.7957L25.6793 12.7459C24.8199 12.7514 23.9604 12.7569 23.1875 12.7957ZM20.7592 13.067L23.1818 12.7957C22.3396 12.8345 21.5263 12.912 20.7592 13.067ZM19.8997 13.6705L20.7592 13.067L20.1824 13.1833L19.8997 13.6705ZM18.9942 15.6472L19.8997 13.665C19.5421 14.2907 19.248 14.9606 18.9942 15.6472ZM18.3308 17.6737L18.9942 15.6472C18.7577 16.295 18.5443 16.9871 18.3308 17.6737ZM17.333 20.5972C17.7137 19.6725 18.0251 18.6703 18.3308 17.6737L17.333 20.5972ZM15.8506 23.2383C16.4966 22.3856 16.958 21.5052 17.333 20.6027L15.8506 23.2383ZM13.6299 25.4918C14.4547 24.8107 15.2161 24.0743 15.8506 23.2383L13.6299 25.4918ZM10.8843 27.5404C11.8303 26.8704 12.7704 26.2005 13.6299 25.4918L10.8843 27.5404ZM8.90586 28.9855L10.8843 27.5404C10.2037 28.0221 9.52881 28.4983 8.90586 28.9855ZM7.10046 30.5746L8.90586 28.9855C8.23676 29.5005 7.61958 30.0265 7.10046 30.5746ZM6.77745 31.5436L7.10046 30.5746L6.70823 30.9899L6.77745 31.5436ZM7.9599 35.6796L6.77168 31.5436C6.94472 32.9278 7.45231 34.3009 7.9599 35.6796ZM8.94047 38.6086C8.67514 37.612 8.31752 36.643 7.96567 35.6796L8.94047 38.6086ZM9.35576 41.2663C9.32692 40.3417 9.16542 39.4613 8.94047 38.6086L9.35576 41.2663ZM9.35576 41.5764V41.2663V41.5764ZM7.9772 47.8608C8.6636 45.7734 9.35576 43.6804 9.35576 41.5764L7.9772 47.8608ZM6.77168 52.4564L7.9772 47.8552C7.45808 49.4222 6.94472 50.9891 6.77168 52.4564ZM7.10623 53.4253L6.77168 52.4564L6.70823 53.0101L7.10623 53.4253ZM8.7905 54.8649L7.10623 53.4253C7.60805 53.9402 8.17908 54.4164 8.7905 54.8649ZM10.5901 56.0941L8.7905 54.8649C9.35576 55.2802 9.97295 55.6844 10.5901 56.0941ZM15.3315 60.0751C14.0452 58.3698 12.3148 57.2292 10.5901 56.0941L15.3315 60.0751ZM16.8715 62.7882C16.4505 61.8192 15.9602 60.9001 15.3315 60.0751L16.8715 62.7882ZM18.054 65.9221C17.6906 64.8756 17.3272 63.8291 16.8715 62.7882L18.054 65.9221ZM18.0597 65.9442L18.0482 65.9276L18.0597 65.9442ZM19.8997 70.335L18.0597 65.9442C18.6019 67.5001 19.1384 69.0559 19.8997 70.335ZM20.765 70.9329L19.8997 70.335L20.1939 70.8277L20.765 70.9329ZM23.0087 71.1433L20.7592 70.9329C21.4744 71.0658 22.23 71.1212 23.0087 71.1433ZM25.2179 71.1212L23.0087 71.1433C23.7413 71.16 24.4796 71.1433 25.2179 71.1212ZM28.4307 71.1378C27.3521 71.0714 26.285 71.099 25.2236 71.1212L28.4307 71.1378ZM31.4935 71.6693C30.461 71.3482 29.4459 71.1987 28.4249 71.1378L31.4935 71.6693ZM34.4121 72.9982C33.4835 72.4611 32.5202 71.9905 31.4935 71.6693L34.4121 72.9982ZM37.2904 74.8752C36.3271 74.2108 35.3581 73.5519 34.4121 72.9982L37.2904 74.8752ZM41.4722 77.3945L37.2904 74.8752C38.6863 75.8331 40.0764 76.791 41.4722 77.3945ZM42.5278 77.3889L41.4665 77.3945L41.9971 77.627L42.5278 77.3889ZM44.4774 76.2926L42.5278 77.3889C43.1911 77.0955 43.8429 76.7134 44.4774 76.2926ZM46.2597 75.0302L44.4774 76.2926C45.1003 75.8829 45.6771 75.4566 46.2597 75.0302ZM51.6701 71.9351C49.5821 72.5829 47.9209 73.8066 46.2597 75.0302L51.6701 71.9351ZM54.8425 71.3648C53.7466 71.4534 52.6795 71.614 51.6701 71.9296L54.8425 71.3648ZM58.3264 71.2541C57.1786 71.2651 56.0365 71.2707 54.8425 71.3648L58.3264 71.2541ZM60.8182 71.2042L58.3264 71.2541C59.1801 71.2485 60.0396 71.243 60.8182 71.2042ZM63.2408 70.9329L60.8182 71.2042C61.6604 71.1655 62.4737 71.0824 63.2408 70.9329ZM64.1003 70.3294L63.2408 70.9329L63.8176 70.8222L64.1003 70.3294ZM65.0058 68.3472L64.1003 70.3294C64.4636 69.7037 64.752 69.0393 65.0058 68.3472ZM65.6692 66.3262L65.0058 68.3527C65.2423 67.6994 65.4557 67.0128 65.6692 66.3262ZM66.667 63.3972C66.2863 64.3219 65.9749 65.3241 65.6692 66.3207L66.667 63.3972ZM68.1494 60.7617C67.5034 61.6144 67.042 62.4947 66.667 63.4028L68.1494 60.7617ZM70.3701 58.5082C69.5453 59.1892 68.7839 59.9256 68.1494 60.7617L70.3701 58.5082ZM73.1157 56.4595C72.1697 57.1295 71.2296 57.7995 70.3701 58.5082L73.1157 56.4595ZM75.0941 55.0144L73.1157 56.4595C73.7963 55.9778 74.477 55.4961 75.0941 55.0144ZM76.8995 53.4253L75.0941 55.0144C75.7632 54.4995 76.3804 53.9735 76.8995 53.4253ZM77.2283 52.4564L76.9053 53.4253L77.2975 53.0101L77.2283 52.4564ZM76.7438 50.3413L77.2283 52.4564C77.1418 51.7587 76.963 51.05 76.7438 50.3413ZM76.0401 48.3203L76.7438 50.3413C76.5246 49.6436 76.2824 48.9792 76.0401 48.3203ZM74.65 42.7281C74.7134 44.7103 75.3768 46.5153 76.0401 48.3148L74.65 42.7281ZM74.65 42.4235V42.7336V42.4235ZM76.0228 36.1392C75.3364 38.2321 74.6442 40.3195 74.6442 42.4235L76.0228 36.1392ZM77.2283 31.538L76.0228 36.1336C76.5419 34.5722 77.0553 33.0108 77.2283 31.538ZM76.8938 30.5691L77.2283 31.538L77.2918 30.9843L76.8938 30.5691ZM75.2095 29.135L76.8938 30.5691C76.392 30.0542 75.8209 29.5835 75.2095 29.135ZM73.4099 27.9058L75.2095 29.135C74.6442 28.7198 74.0271 28.31 73.4099 27.9058Z" fill="url(#paint1_linear)"/>
<path fill-rule="evenodd" clip-rule="evenodd" d="M42.003 5.09387C45.7695 6.26769 49.1381 9.98847 52.9046 11.1623C56.6711 12.3361 60.8356 10.963 64.6022 12.1423C66.9325 15.2208 67.3766 20.1265 69.7069 23.205C72.0372 26.2835 76.2421 27.5238 78.5724 30.5967C78.5724 34.4006 75.9248 38.6252 75.9248 42.4235C75.9248 46.2274 78.5724 49.6048 78.5724 53.4031C76.2421 56.4816 71.5181 58.4029 69.1878 61.4815C66.8575 64.56 66.9325 68.7846 64.6022 71.8576C60.8356 73.0314 55.8347 71.924 52.0682 73.0978C48.3017 74.2716 45.7695 77.7322 42.003 78.906C38.2365 77.7322 34.8679 74.0114 31.1014 72.8321C27.3349 71.6582 23.1703 73.0314 19.4038 71.852C17.0735 68.7791 16.6294 63.8678 14.2991 60.7893C11.9688 57.7164 7.76388 56.4761 5.43359 53.3976C5.43359 49.5938 8.08113 45.3691 8.08113 41.5708C8.08113 37.767 5.43359 34.3895 5.43359 30.5912C7.76388 27.5182 12.4879 25.5914 14.8182 22.5129C17.1485 19.4399 17.0735 15.2098 19.4038 12.1368C23.1703 10.963 28.177 12.0703 31.9377 10.8965C35.7043 9.72824 38.2365 6.26769 42.003 5.09387Z" fill="url(#paint2_linear)"/>
<path fill-rule="evenodd" clip-rule="evenodd" d="M27.4156 28.2051C23.7471 31.5217 21.8436 33.0498 19.5652 39.8657C14.3625 42.8501 11.9803 47.9053 11.1035 53.3259C10.2845 50.8343 9.84033 48.1434 9.84033 45.3085C9.84033 40.0485 11.3573 34.9601 13.9991 30.4696C19.5826 28.0334 21.5148 27.4299 27.4156 28.2051ZM30.1381 26.7212C34.1642 23.4433 38.496 21.3006 42.4298 21.3892C39.4765 23.5043 36.3099 25.7245 33.9334 28.3324C32.826 27.1752 30.8129 26.5385 30.1381 26.7212ZM21.6994 39.9211C23.3952 39.0352 26.0658 38.1493 27.6059 38.3154C29.2556 33.7752 31.0552 30.9126 33.0855 29.5782C31.8166 28.3379 29.9766 28.3878 28.8518 28.3822C27.0464 28.72 19.173 39.1847 21.6994 39.9211ZM38.9516 14.4182C29.4228 15.4702 20.9727 20.8078 15.6776 28.194C18.5674 27.6071 22.3224 23.842 28.7941 26.4499C29.0998 26.2948 28.7941 26.3613 29.1517 26.2782C32.7106 21.7269 38.8651 21.2286 41.1781 20.1987C43.9237 19.5177 42.2683 15.6696 42.5913 14.8556C43.6872 13.9476 39.2112 14.2134 38.9516 14.4182Z" fill="url(#paint3_linear)"/>
<g filter="url(#filter0_di)">
<path d="M26.3097 52V48.7041L33.1798 41.4678C34.0978 40.4229 34.7423 39.5439 35.1134 38.8311C35.4845 38.1182 35.67 37.4492 35.67 36.8242C35.67 36.1309 35.4845 35.5449 35.1134 35.0664C34.7423 34.5781 34.1857 34.334 33.4435 34.334C32.6329 34.334 32.0323 34.6221 31.6417 35.1982C31.2511 35.7646 31.0558 36.5312 31.0558 37.498H26.0314L26.0021 37.4102C25.9728 36.0918 26.256 34.9004 26.8517 33.8359C27.4571 32.7715 28.3263 31.9268 29.4591 31.3018C30.5919 30.6768 31.9249 30.3643 33.4581 30.3643C35.7628 30.3643 37.5646 30.9551 38.8634 32.1367C40.172 33.3086 40.8263 34.8564 40.8263 36.7803C40.8263 37.6592 40.6749 38.4697 40.3722 39.2119C40.0792 39.9443 39.5909 40.7305 38.9073 41.5703C38.2335 42.4102 37.3302 43.4258 36.1974 44.6172L32.9747 48.0303L33.004 48.1035H37.2374L37.4571 46.3311H41.3097V52H26.3097Z" fill="#B4B4B4"/>
<path d="M50.7726 52.3076C48.4581 52.3076 46.6271 51.5752 45.2794 50.1104C43.9317 48.6455 43.2579 46.4727 43.2579 43.5918V39.0947C43.2579 36.2236 43.9317 34.0508 45.2794 32.5762C46.6271 31.1016 48.4483 30.3643 50.7433 30.3643C53.0187 30.3643 54.8302 31.1016 56.1778 32.5762C57.5353 34.0508 58.214 36.2236 58.214 39.0947V43.5918C58.214 46.4727 57.5401 48.6455 56.1925 50.1104C54.8546 51.5752 53.048 52.3076 50.7726 52.3076ZM50.7726 48.3965C51.5245 48.3965 52.1007 48.0547 52.5011 47.3711C52.9015 46.6777 53.1017 45.5156 53.1017 43.8848V38.7725C53.1017 37.1709 52.8966 36.0234 52.4864 35.3301C52.0763 34.6367 51.4952 34.29 50.7433 34.29C49.962 34.29 49.3712 34.6367 48.9708 35.3301C48.5704 36.0137 48.3702 37.1611 48.3702 38.7725V43.8848C48.3702 45.5254 48.5704 46.6875 48.9708 47.3711C49.3712 48.0547 49.9718 48.3965 50.7726 48.3965Z" fill="#B4B4B4"/>
</g>
<g filter="url(#filter1_d)">
<path d="M38.9268 19.0869H37.1689V25H35.7285V19.0869H34V17.8906H38.9268V19.0869Z" fill="#969696"/>
<path d="M44.6201 22.085C44.6201 23.0387 44.3939 23.7793 43.9414 24.3066C43.4922 24.834 42.8672 25.0977 42.0664 25.0977C41.2689 25.0977 40.6423 24.8372 40.1865 24.3164C39.7308 23.7923 39.4997 23.0599 39.4932 22.1191V20.9033C39.4932 19.9268 39.7194 19.165 40.1719 18.6182C40.6243 18.068 41.2526 17.793 42.0566 17.793C42.8477 17.793 43.471 18.0632 43.9268 18.6035C44.3825 19.1406 44.6136 19.8958 44.6201 20.8691V22.085ZM43.1797 20.8936C43.1797 20.2523 43.0885 19.7754 42.9062 19.4629C42.724 19.1504 42.4408 18.9941 42.0566 18.9941C41.6758 18.9941 41.3942 19.1455 41.2119 19.4482C41.0296 19.7477 40.9352 20.2051 40.9287 20.8203V22.085C40.9287 22.7067 41.0215 23.1657 41.207 23.4619C41.3926 23.7549 41.679 23.9014 42.0664 23.9014C42.4408 23.9014 42.7191 23.7581 42.9014 23.4717C43.0837 23.182 43.1764 22.7344 43.1797 22.1289V20.8936Z" fill="#969696"/>
<path d="M50.6406 25H49.2051V19.0869H47.0957V25H45.6602V17.8906H50.6406V25Z" fill="#969696"/>
</g>
<g filter="url(#filter2_d)">
<path d="M25.875 56.8906L27.2178 62.0322L28.5557 56.8906H30.4307V64H28.9902V62.0762L29.1221 59.1123L27.7012 64H26.7246L25.3037 59.1123L25.4355 62.0762V64H24V56.8906H25.875Z" fill="#969696"/>
<path d="M35.2598 60.9238H33.0234V62.8086H35.6699V64H31.5879V56.8906H35.6602V58.0869H33.0234V59.7666H35.2598V60.9238Z" fill="#969696"/>
<path d="M41.3193 61.6318C41.2835 62.4424 41.0557 63.056 40.6357 63.4727C40.2158 63.8893 39.6234 64.0977 38.8584 64.0977C38.0544 64.0977 37.4375 63.834 37.0078 63.3066C36.5814 62.776 36.3682 62.0208 36.3682 61.041V59.8447C36.3682 58.8682 36.5895 58.1162 37.0322 57.5889C37.4749 57.0583 38.0902 56.793 38.8779 56.793C39.6527 56.793 40.2402 57.0094 40.6406 57.4424C41.0443 57.8753 41.2738 58.4971 41.3291 59.3076H39.8887C39.8757 58.8063 39.7975 58.4613 39.6543 58.2725C39.5143 58.0804 39.2555 57.9844 38.8779 57.9844C38.4938 57.9844 38.222 58.1195 38.0625 58.3896C37.903 58.6566 37.8184 59.0977 37.8086 59.7129V61.0557C37.8086 61.762 37.8867 62.2471 38.043 62.5107C38.2025 62.7744 38.4743 62.9062 38.8584 62.9062C39.236 62.9062 39.4964 62.8151 39.6396 62.6328C39.7829 62.4473 39.8643 62.1136 39.8838 61.6318H41.3193Z" fill="#969696"/>
<path d="M44.8545 64V61.4414H44.1025L43.0527 64H41.5049L42.7646 60.9238C42.1787 60.5169 41.8857 59.9049 41.8857 59.0879C41.8857 58.3848 42.0827 57.8428 42.4766 57.4619C42.8737 57.0811 43.4352 56.8906 44.1611 56.8906H46.2949V64H44.8545ZM43.3262 59.2002C43.3262 59.5941 43.3962 59.8805 43.5361 60.0596C43.6761 60.2354 43.8942 60.3232 44.1904 60.3232H44.8545V58.0869H44.1416C43.598 58.0869 43.3262 58.458 43.3262 59.2002Z" fill="#969696"/>
<path d="M47.3643 56.8906H48.7998V62.8086H50.9043V56.8906H52.3447V62.8135H53.2188L53.1211 65.7139H51.7832V64H47.3643V56.8906Z" fill="#969696"/>
<path d="M57.5791 62.5449H55.6211L55.2402 64H53.7217L55.9434 56.8906H57.2568L59.4932 64H57.96L57.5791 62.5449ZM55.9336 61.3486H57.2617L56.5977 58.8145L55.9336 61.3486Z" fill="#969696"/>
</g>
<defs>
<filter id="filter0_di" x="26" y="30.3643" width="33.214" height="22.9434" filterUnits="userSpaceOnUse" color-interpolation-filters="sRGB">
<feFlood flood-opacity="0" result="BackgroundImageFix"/>
<feColorMatrix in="SourceAlpha" type="matrix" values="0 0 0 0 0 0 0 0 0 0 0 0 0 0 0 0 0 0 127 0"/>
<feOffset dx="1" dy="1"/>
<feColorMatrix type="matrix" values="0 0 0 0 0.908333 0 0 0 0 0.908333 0 0 0 0 0.908333 0 0 0 1 0"/>
<feBlend mode="normal" in2="BackgroundImageFix" result="effect1_dropShadow"/>
<feBlend mode="normal" in="SourceGraphic" in2="effect1_dropShadow" result="shape"/>
<feColorMatrix in="SourceAlpha" type="matrix" values="0 0 0 0 0 0 0 0 0 0 0 0 0 0 0 0 0 0 127 0" result="hardAlpha"/>
<feOffset dx="1" dy="1"/>
<feComposite in2="hardAlpha" operator="arithmetic" k2="-1" k3="1"/>
<feColorMatrix type="matrix" values="0 0 0 0 0.470833 0 0 0 0 0.470833 0 0 0 0 0.470833 0 0 0 1 0"/>
<feBlend mode="normal" in2="shape" result="effect2_innerShadow"/>
</filter>
<filter id="filter1_d" x="34" y="17.793" width="17.6406" height="8.30469" filterUnits="userSpaceOnUse" color-interpolation-filters="sRGB">
<feFlood flood-opacity="0" result="BackgroundImageFix"/>
<feColorMatrix in="SourceAlpha" type="matrix" values="0 0 0 0 0 0 0 0 0 0 0 0 0 0 0 0 0 0 127 0"/>
<feOffset dx="1" dy="1"/>
<feColorMatrix type="matrix" values="0 0 0 0 0.909804 0 0 0 0 0.909804 0 0 0 0 0.909804 0 0 0 1 0"/>
<feBlend mode="normal" in2="BackgroundImageFix" result="effect1_dropShadow"/>
<feBlend mode="normal" in="SourceGraphic" in2="effect1_dropShadow" result="shape"/>
</filter>
<filter id="filter2_d" x="24" y="56.793" width="36.4932" height="9.9209" filterUnits="userSpaceOnUse" color-interpolation-filters="sRGB">
<feFlood flood-opacity="0" result="BackgroundImageFix"/>
<feColorMatrix in="SourceAlpha" type="matrix" values="0 0 0 0 0 0 0 0 0 0 0 0 0 0 0 0 0 0 127 0"/>
<feOffset dx="1" dy="1"/>
<feColorMatrix type="matrix" values="0 0 0 0 0.909804 0 0 0 0 0.909804 0 0 0 0 0.909804 0 0 0 1 0"/>
<feBlend mode="normal" in2="BackgroundImageFix" result="effect1_dropShadow"/>
<feBlend mode="normal" in="SourceGraphic" in2="effect1_dropShadow" result="shape"/>
</filter>
<linearGradient id="paint0_linear" x1="56.42" y1="84.6002" x2="29.6281" y2="-1.29931" gradientUnits="userSpaceOnUse">
<stop stop-color="#888888"/>
<stop offset="0.12" stop-color="#DBDBDB"/>
<stop offset="0.4" stop-color="#D4D4D4"/>
<stop offset="0.67" stop-color="#939393"/>
<stop offset="0.85" stop-color="#EBEBEB"/>
<stop offset="1" stop-color="#3C3737"/>
</linearGradient>
<linearGradient id="paint1_linear" x1="42.0004" y1="81.6543" x2="42.0004" y2="2.34234" gradientUnits="userSpaceOnUse">
<stop stop-color="#8D8D8D"/>
<stop offset="0.16" stop-color="#898989"/>
<stop offset="0.3" stop-color="#666666"/>
<stop offset="0.49" stop-color="#595959"/>
<stop offset="0.54" stop-color="#D6D6D6"/>
<stop offset="0.56" stop-color="#C9C9C9"/>
<stop offset="0.69" stop-color="#9E9E9E"/>
<stop offset="0.75" stop-color="#686868"/>
<stop offset="0.85" stop-color="#969696"/>
<stop offset="1" stop-color="#AFAFAF"/>
</linearGradient>
<linearGradient id="paint2_linear" x1="29.91" y1="22.6833" x2="60.0903" y2="75.0088" gradientUnits="userSpaceOnUse">
<stop stop-color="#E9E9E9"/>
<stop offset="0.2002" stop-color="#D3D3D3"/>
<stop offset="0.3882" stop-color="#C8C8C8"/>
<stop offset="0.5713" stop-color="#D9D9D9"/>
<stop offset="0.7514" stop-color="#E5E5E5"/>
<stop offset="0.9277" stop-color="#BFBFBF"/>
<stop offset="1" stop-color="#C1C1C1"/>
</linearGradient>
<linearGradient id="paint3_linear" x1="15.4056" y1="45.6063" x2="44.3412" y2="-2.63381" gradientUnits="userSpaceOnUse">
<stop stop-color="#E4E4E4"/>
<stop offset="0.21" stop-color="#EAEAEA"/>
<stop offset="1" stop-color="white"/>
</linearGradient>
</defs>
</svg>
