<svg width="147" height="33" viewBox="0 0 147 33" fill="none" xmlns="http://www.w3.org/2000/svg">
<path fill-rule="evenodd" clip-rule="evenodd" d="M20.5239 18.2894C19.3162 18.2894 18.3372 19.2684 18.3372 20.4761C18.3372 21.6838 19.3162 22.6628 20.5239 22.6628C21.7316 22.6628 22.7106 21.6838 22.7106 20.4761C22.7106 19.2684 21.7316 18.2894 20.5239 18.2894ZM14.7589 20.4761C14.7589 17.2922 17.34 14.7111 20.5239 14.7111C23.7078 14.7111 26.2889 17.2922 26.2889 20.4761C26.2889 23.66 23.7078 26.2411 20.5239 26.2411C17.34 26.2411 14.7589 23.66 14.7589 20.4761Z" fill="white"/>
<path fill-rule="evenodd" clip-rule="evenodd" d="M20.524 11.928C17.0983 11.928 14.1396 13.9431 12.7755 16.8605C12.357 17.7555 11.2921 18.1419 10.397 17.7233C9.50187 17.3048 9.11555 16.2399 9.53408 15.3448C11.4646 11.2161 15.6577 8.34972 20.524 8.34972C25.3902 8.34972 29.5834 11.2161 31.5139 15.3448C31.9324 16.2399 31.5461 17.3048 30.651 17.7233C29.7559 18.1419 28.691 17.7555 28.2725 16.8605C26.9084 13.9431 23.9497 11.928 20.524 11.928Z" fill="white"/>
<path fill-rule="evenodd" clip-rule="evenodd" d="M0.237127 10.9291C0.679024 10.0453 1.75371 9.68705 2.6375 10.1289L6.61335 12.1169C7.49714 12.5588 7.85537 13.6334 7.41348 14.5172C6.97158 15.401 5.8969 15.7593 5.0131 15.3174L1.03725 13.3294C0.153459 12.8875 -0.204769 11.8129 0.237127 10.9291Z" fill="white"/>
<path fill-rule="evenodd" clip-rule="evenodd" d="M40.8106 11.3267C40.3687 10.4429 39.294 10.0846 38.4102 10.5265L34.4344 12.5145C33.5506 12.9564 33.1924 14.031 33.6343 14.9148C34.0762 15.7986 35.1508 16.1569 36.0346 15.715L40.0105 13.727C40.8943 13.2851 41.2525 12.2105 40.8106 11.3267Z" fill="white"/>
<path fill-rule="evenodd" clip-rule="evenodd" d="M11.4342 0.160804C12.3338 -0.248079 13.3945 0.149679 13.8033 1.04922L15.7913 5.42266C16.2002 6.3222 15.8024 7.38289 14.9029 7.79177C14.0033 8.20066 12.9426 7.8029 12.5337 6.90336L10.5458 2.52992C10.1369 1.63038 10.5347 0.569687 11.4342 0.160804Z" fill="white"/>
<path fill-rule="evenodd" clip-rule="evenodd" d="M29.6135 0.558387C28.714 0.149504 27.6533 0.547262 27.2444 1.44681L25.2565 5.82024C24.8476 6.71978 25.2453 7.78047 26.1449 8.18936C27.0444 8.59824 28.1051 8.20048 28.514 7.30094L30.5019 2.9275C30.9108 2.02796 30.513 0.96727 29.6135 0.558387Z" fill="white"/>
<path fill-rule="evenodd" clip-rule="evenodd" d="M6.21076 19.4821C7.19887 19.4821 7.9999 20.2831 7.9999 21.2712V25.2471C7.9999 25.7824 8.32452 26.9155 9.05426 27.929C9.77305 28.9274 10.5929 29.4217 11.3794 29.4217H20.5238C21.5119 29.4217 22.313 30.2228 22.313 31.2109C22.313 32.199 21.5119 33 20.5238 33H11.3794C8.98519 33 7.22071 31.5064 6.15037 30.0198C5.09097 28.5485 4.42163 26.6997 4.42163 25.2471V21.2712C4.42163 20.2831 5.22265 19.4821 6.21076 19.4821Z" fill="white"/>
<path fill-rule="evenodd" clip-rule="evenodd" d="M34.837 19.4821C33.8489 19.4821 33.0478 20.2831 33.0478 21.2712V25.2471C33.0478 25.7824 32.7232 26.9155 31.9935 27.929C31.2747 28.9274 30.4549 29.4217 29.6684 29.4217H20.5239C19.5358 29.4217 18.7348 30.2228 18.7348 31.2109C18.7348 32.199 19.5358 33 20.5239 33H29.6684C32.0625 33 33.827 31.5064 34.8974 30.0198C35.9568 28.5485 36.6261 26.6997 36.6261 25.2471V21.2712C36.6261 20.2831 35.8251 19.4821 34.837 19.4821Z" fill="white"/>
<path d="M52.224 24.64V27.784C52.224 28.072 52.16 28.256 52.032 28.336C51.92 28.416 51.76 28.456 51.552 28.456H49.632C49.344 28.456 49.16 28.392 49.08 28.264C49 28.152 48.96 27.992 48.96 27.784V12.328C48.96 12.04 49.016 11.856 49.128 11.776C49.256 11.696 49.424 11.656 49.632 11.656H51.816C52.104 11.656 52.248 11.768 52.248 11.992V12.184C52.248 12.296 52.304 12.352 52.416 12.352C52.432 12.352 52.504 12.312 52.632 12.232C52.904 11.992 53.144 11.824 53.352 11.728C53.72 11.552 54.184 11.464 54.744 11.464C56.088 11.464 57 12.024 57.48 13.144C57.752 13.784 57.888 14.72 57.888 15.952V20.8C57.888 22 57.72 22.936 57.384 23.608C56.856 24.664 55.92 25.192 54.576 25.192C54.032 25.192 53.592 25.12 53.256 24.976C52.952 24.816 52.648 24.648 52.344 24.472C52.264 24.536 52.224 24.592 52.224 24.64ZM52.224 15.976V20.68C52.224 21.096 52.28 21.424 52.392 21.664C52.584 22.064 52.92 22.264 53.4 22.264C53.88 22.264 54.216 22.064 54.408 21.664C54.52 21.424 54.576 21.096 54.576 20.68V15.976C54.576 15.56 54.52 15.232 54.408 14.992C54.216 14.592 53.88 14.392 53.4 14.392C52.92 14.392 52.584 14.592 52.392 14.992C52.28 15.232 52.224 15.56 52.224 15.976ZM59.8116 24.328V8.87199C59.8116 8.58399 59.8676 8.39999 59.9796 8.31999C60.1076 8.24 60.2756 8.2 60.4836 8.2H62.4036C62.6916 8.2 62.8756 8.264 62.9556 8.392C63.0356 8.50399 63.0756 8.66399 63.0756 8.87199V12.04V12.184C63.0756 12.264 63.1476 12.32 63.2916 12.352C63.4676 12.352 63.7316 12.208 64.0836 11.92C64.4516 11.616 64.9476 11.464 65.5716 11.464C66.4196 11.464 67.1156 11.72 67.6596 12.232C68.3156 12.856 68.6436 13.792 68.6436 15.04V24.328C68.6436 24.616 68.5796 24.8 68.4516 24.88C68.3396 24.96 68.1796 25 67.9716 25H66.0516C65.7636 25 65.5796 24.944 65.4996 24.832C65.4196 24.704 65.3796 24.536 65.3796 24.328V15.736C65.3796 15.416 65.2756 15.152 65.0676 14.944C64.8756 14.72 64.6036 14.608 64.2516 14.608C63.7396 14.608 63.3956 14.832 63.2196 15.28C63.1236 15.536 63.0756 15.904 63.0756 16.384V24.328C63.0756 24.616 63.0116 24.8 62.8836 24.88C62.7716 24.96 62.6116 25 62.4036 25H60.4836C60.1956 25 60.0116 24.944 59.9316 24.832C59.8516 24.704 59.8116 24.536 59.8116 24.328ZM70.4254 20.368V16.288C70.4254 14.992 70.6734 13.96 71.1694 13.192C71.9054 12.04 73.1774 11.464 74.9854 11.464C76.7774 11.464 78.0494 12.04 78.8014 13.192C79.2974 13.96 79.5454 14.992 79.5454 16.288V20.368C79.5454 21.664 79.2974 22.696 78.8014 23.464C78.0654 24.616 76.7934 25.192 74.9854 25.192C73.1934 25.192 71.9214 24.616 71.1694 23.464C70.6734 22.696 70.4254 21.664 70.4254 20.368ZM73.6894 15.736V20.92C73.6894 21.512 73.8254 21.936 74.0974 22.192C74.3214 22.4 74.6174 22.504 74.9854 22.504C75.3374 22.504 75.6254 22.4 75.8494 22.192C76.1374 21.92 76.2814 21.496 76.2814 20.92V15.736C76.2814 15.144 76.1534 14.736 75.8974 14.512C75.6574 14.272 75.3534 14.152 74.9854 14.152C74.6334 14.152 74.3454 14.256 74.1214 14.464C73.8334 14.736 73.6894 15.16 73.6894 15.736ZM82.1192 9.256L84.4952 8.488C84.5912 8.456 84.6712 8.43999 84.7352 8.43999C84.9272 8.43999 85.0232 8.57599 85.0232 8.848V11.536C85.0232 11.744 85.1272 11.848 85.3352 11.848H86.2712C86.4792 11.848 86.6392 11.888 86.7512 11.968C86.8792 12.048 86.9432 12.232 86.9432 12.52V13.648C86.9432 13.936 86.8792 14.12 86.7512 14.2C86.6392 14.28 86.4792 14.32 86.2712 14.32H85.2872C85.1112 14.32 85.0232 14.408 85.0232 14.584V21.112C85.0232 21.576 85.0872 21.904 85.2152 22.096C85.3592 22.288 85.6392 22.384 86.0552 22.384C86.2312 22.384 86.3672 22.376 86.4632 22.36C86.5592 22.328 86.6632 22.312 86.7752 22.312C86.9672 22.312 87.0632 22.432 87.0632 22.672V24.496C87.0632 24.752 86.9592 24.928 86.7512 25.024C86.5432 25.136 86.0952 25.192 85.4072 25.192C84.1112 25.192 83.1752 24.96 82.5992 24.496C82.0392 24.016 81.7592 23.208 81.7592 22.072V14.632C81.7592 14.504 81.7272 14.424 81.6632 14.392C81.5992 14.36 81.5272 14.336 81.4472 14.32H81.0632C80.8872 14.32 80.7592 14.28 80.6792 14.2C80.5992 14.12 80.5592 13.936 80.5592 13.648V12.52C80.5592 12.232 80.5992 12.048 80.6792 11.968C80.7592 11.888 80.8872 11.848 81.0632 11.848H81.4472C81.4952 11.848 81.5272 11.848 81.5432 11.848C81.6872 11.8 81.7592 11.696 81.7592 11.536V9.75999C81.7592 9.504 81.8792 9.336 82.1192 9.256ZM88.0738 20.368V16.288C88.0738 14.992 88.3218 13.96 88.8178 13.192C89.5538 12.04 90.8258 11.464 92.6338 11.464C94.4258 11.464 95.6978 12.04 96.4498 13.192C96.9458 13.96 97.1938 14.992 97.1938 16.288V20.368C97.1938 21.664 96.9458 22.696 96.4498 23.464C95.7138 24.616 94.4418 25.192 92.6338 25.192C90.8418 25.192 89.5698 24.616 88.8178 23.464C88.3218 22.696 88.0738 21.664 88.0738 20.368ZM91.3378 15.736V20.92C91.3378 21.512 91.4738 21.936 91.7458 22.192C91.9698 22.4 92.2658 22.504 92.6338 22.504C92.9858 22.504 93.2738 22.4 93.4978 22.192C93.7858 21.92 93.9298 21.496 93.9298 20.92V15.736C93.9298 15.144 93.8018 14.736 93.5458 14.512C93.3058 14.272 93.0018 14.152 92.6338 14.152C92.2818 14.152 91.9938 14.256 91.7698 14.464C91.4818 14.736 91.3378 15.16 91.3378 15.736ZM102.696 22.192V24.328C102.696 24.616 102.632 24.8 102.504 24.88C102.392 24.96 102.232 25 102.024 25H99.8876C99.5996 25 99.4156 24.944 99.3356 24.832C99.2556 24.704 99.2156 24.536 99.2156 24.328V22.192C99.2156 21.904 99.2716 21.72 99.3836 21.64C99.5116 21.56 99.6796 21.52 99.8876 21.52H102.024C102.312 21.52 102.496 21.584 102.576 21.712C102.656 21.824 102.696 21.984 102.696 22.192ZM104.378 24.016V22.456C104.378 22.072 104.506 21.88 104.762 21.88C104.842 21.88 105.058 21.936 105.41 22.048C105.778 22.144 106.186 22.232 106.634 22.312C107.098 22.392 107.482 22.432 107.786 22.432C108.282 22.432 108.642 22.328 108.866 22.12C109.09 21.912 109.202 21.656 109.202 21.352C109.202 20.904 108.874 20.44 108.218 19.96C107.738 19.64 107.402 19.408 107.21 19.264C106.378 18.672 105.778 18.16 105.41 17.728C104.738 16.944 104.402 16.064 104.402 15.088C104.402 14.16 104.666 13.384 105.194 12.76C105.914 11.896 107.05 11.464 108.602 11.464C109.818 11.464 110.706 11.568 111.266 11.776C111.842 11.984 112.13 12.288 112.13 12.688V14.2C112.13 14.28 112.13 14.352 112.13 14.416C112.082 14.608 111.93 14.704 111.674 14.704C110.906 14.704 110.362 14.6 110.042 14.392C109.866 14.28 109.506 14.224 108.962 14.224C108.562 14.224 108.282 14.312 108.122 14.488C107.978 14.648 107.906 14.824 107.906 15.016C107.906 15.432 108.29 15.904 109.058 16.432C109.41 16.672 109.77 16.912 110.138 17.152C110.97 17.76 111.57 18.312 111.938 18.808C112.45 19.512 112.706 20.344 112.706 21.304C112.706 22.52 112.282 23.472 111.434 24.16C110.586 24.848 109.458 25.192 108.05 25.192C106.498 25.192 105.434 25.032 104.858 24.712C104.538 24.536 104.378 24.304 104.378 24.016ZM117.357 8.512V9.976C117.357 10.184 117.317 10.352 117.237 10.48C117.157 10.592 116.973 10.648 116.685 10.648H114.765C114.477 10.648 114.293 10.592 114.213 10.48C114.133 10.352 114.093 10.184 114.093 9.976V8.512C114.093 8.304 114.133 8.144 114.213 8.032C114.293 7.904 114.477 7.84 114.765 7.84H116.685C116.893 7.84 117.053 7.88 117.165 7.96C117.293 8.04 117.357 8.224 117.357 8.512ZM117.357 12.328V24.328C117.357 24.616 117.293 24.8 117.165 24.88C117.053 24.96 116.893 25 116.685 25H114.765C114.477 25 114.293 24.944 114.213 24.832C114.133 24.704 114.093 24.536 114.093 24.328V12.328C114.093 12.04 114.149 11.856 114.261 11.776C114.389 11.696 114.557 11.656 114.765 11.656H116.685C116.893 11.656 117.053 11.696 117.165 11.776C117.293 11.856 117.357 12.04 117.357 12.328ZM125.201 11.656H127.385C127.593 11.656 127.753 11.696 127.865 11.776C127.993 11.856 128.057 12.04 128.057 12.328V22.792C128.057 24.632 127.865 25.904 127.481 26.608C126.761 27.904 125.249 28.552 122.945 28.552C121.377 28.552 120.337 28.456 119.825 28.264C119.537 28.152 119.393 27.976 119.393 27.736V25.84C119.393 25.616 119.489 25.504 119.681 25.504C120.113 25.6 120.585 25.688 121.097 25.768C121.625 25.848 122.097 25.888 122.513 25.888C123.441 25.888 124.081 25.712 124.433 25.36C124.673 25.12 124.793 24.776 124.793 24.328V24.064C124.777 23.936 124.753 23.872 124.721 23.872C124.353 24.112 123.993 24.296 123.641 24.424C123.305 24.552 122.905 24.616 122.441 24.616C121.081 24.616 120.145 24.032 119.633 22.864C119.297 22.112 119.129 21.04 119.129 19.648V15.952C119.129 14.688 119.273 13.736 119.561 13.096C120.041 12.008 120.945 11.464 122.273 11.464C122.817 11.464 123.273 11.552 123.641 11.728C123.945 11.936 124.249 12.144 124.553 12.352C124.697 12.32 124.769 12.264 124.769 12.184V11.992C124.769 11.768 124.913 11.656 125.201 11.656ZM124.793 20.104V15.976C124.793 15.56 124.737 15.232 124.625 14.992C124.433 14.592 124.097 14.392 123.617 14.392C123.137 14.392 122.801 14.592 122.609 14.992C122.497 15.232 122.441 15.56 122.441 15.976V20.104C122.441 20.52 122.497 20.848 122.609 21.088C122.801 21.488 123.137 21.688 123.617 21.688C124.097 21.688 124.433 21.488 124.625 21.088C124.737 20.848 124.793 20.52 124.793 20.104ZM129.983 24.328V8.87199C129.983 8.58399 130.039 8.39999 130.151 8.31999C130.279 8.24 130.447 8.2 130.655 8.2H132.575C132.863 8.2 133.047 8.264 133.127 8.392C133.207 8.50399 133.247 8.66399 133.247 8.87199V12.04V12.184C133.247 12.264 133.319 12.32 133.463 12.352C133.639 12.352 133.903 12.208 134.255 11.92C134.623 11.616 135.119 11.464 135.743 11.464C136.591 11.464 137.287 11.72 137.831 12.232C138.487 12.856 138.815 13.792 138.815 15.04V24.328C138.815 24.616 138.751 24.8 138.623 24.88C138.511 24.96 138.351 25 138.143 25H136.223C135.935 25 135.751 24.944 135.671 24.832C135.591 24.704 135.551 24.536 135.551 24.328V15.736C135.551 15.416 135.447 15.152 135.239 14.944C135.047 14.72 134.775 14.608 134.423 14.608C133.911 14.608 133.567 14.832 133.391 15.28C133.295 15.536 133.247 15.904 133.247 16.384V24.328C133.247 24.616 133.183 24.8 133.055 24.88C132.943 24.96 132.783 25 132.575 25H130.655C130.367 25 130.183 24.944 130.103 24.832C130.023 24.704 129.983 24.536 129.983 24.328ZM141.533 9.256L143.909 8.488C144.005 8.456 144.085 8.43999 144.149 8.43999C144.341 8.43999 144.437 8.57599 144.437 8.848V11.536C144.437 11.744 144.541 11.848 144.749 11.848H145.685C145.893 11.848 146.053 11.888 146.165 11.968C146.293 12.048 146.357 12.232 146.357 12.52V13.648C146.357 13.936 146.293 14.12 146.165 14.2C146.053 14.28 145.893 14.32 145.685 14.32H144.701C144.525 14.32 144.437 14.408 144.437 14.584V21.112C144.437 21.576 144.501 21.904 144.629 22.096C144.773 22.288 145.053 22.384 145.469 22.384C145.645 22.384 145.781 22.376 145.877 22.36C145.973 22.328 146.077 22.312 146.189 22.312C146.381 22.312 146.477 22.432 146.477 22.672V24.496C146.477 24.752 146.373 24.928 146.165 25.024C145.957 25.136 145.509 25.192 144.821 25.192C143.525 25.192 142.589 24.96 142.013 24.496C141.453 24.016 141.173 23.208 141.173 22.072V14.632C141.173 14.504 141.141 14.424 141.077 14.392C141.013 14.36 140.941 14.336 140.861 14.32H140.477C140.301 14.32 140.173 14.28 140.093 14.2C140.013 14.12 139.973 13.936 139.973 13.648V12.52C139.973 12.232 140.013 12.048 140.093 11.968C140.173 11.888 140.301 11.848 140.477 11.848H140.861C140.909 11.848 140.941 11.848 140.957 11.848C141.101 11.8 141.173 11.696 141.173 11.536V9.75999C141.173 9.504 141.293 9.336 141.533 9.256Z" fill="white"/>
</svg>
