<svg width="60" height="60" viewBox="0 0 60 60" fill="none" xmlns="http://www.w3.org/2000/svg">
<path d="M9.24545 0H50.7545C53.2065 0.000249374 55.558 0.974401 57.2918 2.70821C59.0256 4.44201 59.9998 6.79348 60 9.24545V50.7545C59.9998 53.2065 59.0256 55.558 57.2918 57.2918C55.558 59.0256 53.2065 59.9998 50.7545 60H9.24545C6.79348 59.9998 4.44201 59.0256 2.70821 57.2918C0.974401 55.558 0.000249374 53.2065 0 50.7545V9.24545C0.000249374 6.79348 0.974401 4.44201 2.70821 2.70821C4.44201 0.974401 6.79348 0.000249374 9.24545 0Z" fill="#2787F5"/>
<path d="M29.5615 41.9027H32.0162C32.0162 41.9027 32.7586 41.8213 33.1377 41.4162C33.4859 41.0419 33.4746 40.3429 33.4746 40.3429C33.4746 40.3429 33.4266 37.0678 34.9555 36.5841C36.4609 36.1078 38.3991 39.7506 40.4502 41.1514C42.0017 42.2106 43.1787 41.9785 43.1787 41.9785L48.6649 41.9027C48.6649 41.9027 51.5355 41.7268 50.1703 39.4829C50.0592 39.2958 49.3781 37.823 46.0916 34.7884C42.6509 31.6135 43.1119 32.1272 47.2555 26.6345C49.7798 23.2892 50.7884 21.2475 50.4732 20.3726C50.1721 19.5388 48.3168 19.7597 48.3168 19.7597L42.139 19.7971C42.139 19.7971 41.6808 19.7353 41.3421 19.9374C41.0034 20.1396 40.7964 20.5924 40.7964 20.5924C40.7964 20.5924 39.8188 23.1807 38.5157 25.3824C35.7647 30.0274 34.6648 30.2735 34.215 29.9844C33.1688 29.3125 33.4304 27.2838 33.4304 25.8428C33.4304 21.341 34.1172 19.4649 32.0934 18.9783C31.4226 18.8174 30.9277 18.7107 29.2106 18.6976C27.0061 18.6751 25.1413 18.7041 24.0847 19.2188C23.3819 19.5613 22.84 20.3239 23.1702 20.3669C23.5785 20.4212 24.5034 20.6158 24.9936 21.2783C25.6268 22.1355 25.6042 24.0584 25.6042 24.0584C25.6042 24.0584 25.9683 29.3574 24.7574 30.0162C23.9248 30.4672 22.7816 29.5483 20.3307 25.3319C19.4994 23.8667 18.7637 22.3499 18.1281 20.7908C18.1281 20.7908 17.9456 20.3454 17.6191 20.1068C17.3321 19.9174 17.0095 19.7879 16.6707 19.726L10.8006 19.7643C10.8006 19.7643 9.91998 19.7887 9.59632 20.1695C9.30747 20.5092 9.5728 21.21 9.5728 21.21C9.5728 21.21 14.1642 31.8979 19.3719 37.2859C24.144 42.2274 29.5615 41.9027 29.5615 41.9027Z" fill="white"/>
</svg>
